SplineFontDB: 3.2
FontName: VJDYOfficialAppLogo-Bold
FullName: VJDY Official App Logo Bold
FamilyName: VJDY Official App Logo
Weight: Bold
Copyright: Copyright 2015 The Roboto Mono Project Authors (https://github.com/googlefonts/robotomono)
Version: 3.000
ItalicAngle: 0
UnderlinePosition: -200
UnderlineWidth: 100
Ascent: 1638
Descent: 410
InvalidEm: 0
sfntRevision: 0x00030000
LayerCount: 2
Layer: 0 1 "Back" 1
Layer: 1 1 "Fore" 0
XUID: [1021 474 -1613799265 17447]
StyleMap: 0x0020
FSType: 0
OS2Version: 4
OS2_WeightWidthSlopeOnly: 0
OS2_UseTypoMetrics: 0
CreationTime: 1221222574
ModificationTime: 1748510367
PfmFamily: 81
TTFWeight: 700
TTFWidth: 5
LineGap: 0
VLineGap: 0
Panose: 0 0 0 9 0 0 0 0 0 0
OS2TypoAscent: 2146
OS2TypoAOffset: 0
OS2TypoDescent: -555
OS2TypoDOffset: 0
OS2TypoLinegap: 0
OS2WinAscent: 2146
OS2WinAOffset: 0
OS2WinDescent: 555
OS2WinDOffset: 0
HheadAscent: 2146
HheadAOffset: 0
HheadDescent: -555
HheadDOffset: 0
OS2SubXSize: 1434
OS2SubYSize: 1331
OS2SubXOff: 0
OS2SubYOff: 287
OS2SupXSize: 1434
OS2SupYSize: 1331
OS2SupXOff: 0
OS2SupYOff: 977
OS2StrikeYSize: 102
OS2StrikeYPos: 512
OS2CapHeight: 1456
OS2XHeight: 1082
OS2Vendor: 'GOOG'
OS2CodePages: 2000019f.4f010000
OS2UnicodeRanges: e00002ff.1000205b.00000020.00000000
Lookup: 1 0 0 "'smcp' Lowercase to Small Capitals lookup 0" { "'smcp' Lowercase to Small Capitals lookup 0 subtable"  } ['smcp' ('DFLT' <'dflt' > 'cyrl' <'dflt' > 'grek' <'dflt' > 'latn' <'dflt' > ) ]
MarkAttachClasses: 1
DEI: 91125
TtTable: prep
PUSHW_1
 511
SCANCTRL
PUSHB_1
 4
SCANTYPE
EndTTInstrs
ShortTable: maxp 16
  1
  0
  1000
  177
  22
  135
  5
  1
  0
  0
  0
  0
  0
  0
  3
  1
EndShort
LangName: 1033 "" "" "" "" "" "Version 3.000" "" "Roboto Mono is a trademark of Google." "" "Google" "" "Google.com" "Christian Robertson" "Licensed under the Apache License, Version 2.0" "http://www.apache.org/licenses/LICENSE-2.0"
GaspTable: 1 65535 15 1
Encoding: UnicodeBmp
UnicodeInterp: none
NameList: AGL For New Fonts
DisplaySize: -48

StartChar: exclam
Encoding: 33 33 4
Width: 1229
GlyphClass: 1
Flags: W
LayerCount: 2
Fore
SplineSet
741 509 m 1,0,-1
 757 1456 l 1,1,-1
 472 1456 l 1,2,-1
 488 509 l 1,3,-1
 741 509 l 1,0,-1
452 136 m 0,4,5
 452 72 452 72 495 28.5 c 128,-1,6
 538 -15 538 -15 614 -15 c 0,7,8
 688 -15 688 -15 732 28.5 c 128,-1,9
 776 72 776 72 776 136 c 0,10,11
 776 202 776 202 732 246 c 128,-1,12
 688 290 688 290 614 290 c 0,13,14
 538 290 538 290 495 246 c 128,-1,15
 452 202 452 202 452 136 c 0,4,5
EndSplineSet
EndChar

StartChar: quotedbl
Encoding: 34 34 5
Width: 1229
GlyphClass: 1
Flags: W
LayerCount: 2
Fore
SplineSet
487 1428 m 1,0,-1
 487 1536 l 1,1,-1
 281 1536 l 1,2,-1
 281 1423 l 1,3,-1
 281 1008 l 1,4,-1
 458 1008 l 1,5,-1
 487 1428 l 1,0,-1
898 1428 m 1,6,-1
 898 1536 l 1,7,-1
 693 1536 l 1,8,-1
 693 1426 l 1,9,-1
 693 1008 l 1,10,-1
 870 1008 l 1,11,-1
 898 1428 l 1,6,-1
EndSplineSet
EndChar

StartChar: numbersign
Encoding: 35 35 6
Width: 1229
GlyphClass: 1
Flags: W
LayerCount: 2
Fore
SplineSet
649 410 m 1,0,-1
 576 0 l 1,1,-1
 755 0 l 1,2,-1
 828 410 l 1,3,-1
 1081 410 l 1,4,-1
 1081 579 l 1,5,-1
 858 579 l 1,6,-1
 910 869 l 1,7,-1
 1157 869 l 1,8,-1
 1157 1040 l 1,9,-1
 940 1040 l 1,10,-1
 1015 1456 l 1,11,-1
 835 1456 l 1,12,-1
 761 1040 l 1,13,-1
 560 1040 l 1,14,-1
 634 1456 l 1,15,-1
 456 1456 l 1,16,-1
 381 1040 l 1,17,-1
 116 1040 l 1,18,-1
 116 869 l 1,19,-1
 351 869 l 1,20,-1
 299 579 l 1,21,-1
 41 579 l 1,22,-1
 41 410 l 1,23,-1
 269 410 l 1,24,-1
 196 0 l 1,25,-1
 375 0 l 1,26,-1
 448 410 l 1,27,-1
 649 410 l 1,0,-1
478 579 m 1,28,-1
 529 869 l 1,29,-1
 730 869 l 1,30,-1
 679 579 l 1,31,-1
 478 579 l 1,28,-1
EndSplineSet
EndChar

StartChar: dollar
Encoding: 36 36 7
Width: 1229
GlyphClass: 1
Flags: W
LayerCount: 2
Fore
SplineSet
863 382 m 0,0,1
 863 345 863 345 850.5 313 c 128,-1,2
 838 281 838 281 814 258 c 0,3,4
 787 232 787 232 745 217.5 c 128,-1,5
 703 203 703 203 646 203 c 0,6,7
 601 203 601 203 558 215 c 128,-1,8
 515 227 515 227 482 256 c 0,9,10
 448 284 448 284 427 332.5 c 128,-1,11
 406 381 406 381 406 453 c 1,12,-1
 127 453 l 1,13,14
 127 333 127 333 164 247.5 c 128,-1,15
 201 162 201 162 263 106 c 0,16,17
 324 50 324 50 404 20.5 c 128,-1,18
 484 -9 484 -9 569 -17 c 1,19,-1
 569 -213 l 1,20,-1
 728 -213 l 1,21,-1
 728 -17 l 1,22,23
 822 -8 822 -8 898 22.5 c 128,-1,24
 974 53 974 53 1028 104 c 256,25,26
 1082 155 1082 155 1111 225.5 c 128,-1,27
 1140 296 1140 296 1140 384 c 0,28,29
 1140 480 1140 480 1108.5 550.5 c 128,-1,30
 1077 621 1077 621 1019 675 c 0,31,32
 960 728 960 728 878 768.5 c 128,-1,33
 796 809 796 809 695 847 c 0,34,35
 628 871 628 871 583 894.5 c 128,-1,36
 538 918 538 918 511 944 c 0,37,38
 483 970 483 970 471.5 1000.5 c 128,-1,39
 460 1031 460 1031 460 1070 c 256,40,41
 460 1109 460 1109 471.5 1142 c 128,-1,42
 483 1175 483 1175 507 1200 c 0,43,44
 531 1224 531 1224 568.5 1237.5 c 128,-1,45
 606 1251 606 1251 657 1251 c 0,46,47
 701 1251 701 1251 737.5 1237 c 128,-1,48
 774 1223 774 1223 800 1196 c 0,49,50
 829 1165 829 1165 845 1117 c 128,-1,51
 861 1069 861 1069 861 1005 c 1,52,-1
 1139 1005 l 1,53,54
 1139 1105 1139 1105 1111.5 1185.5 c 128,-1,55
 1084 1266 1084 1266 1034 1326 c 0,56,57
 983 1385 983 1385 911 1422 c 128,-1,58
 839 1459 839 1459 749 1471 c 1,59,-1
 749 1688 l 1,60,-1
 589 1688 l 1,61,-1
 589 1473 l 1,62,63
 497 1464 497 1464 422 1432 c 128,-1,64
 347 1400 347 1400 294 1348 c 256,65,66
 241 1296 241 1296 212 1225.5 c 128,-1,67
 183 1155 183 1155 183 1070 c 0,68,69
 183 973 183 973 215 902.5 c 128,-1,70
 247 832 247 832 306 779 c 0,71,72
 364 726 364 726 447 686 c 128,-1,73
 530 646 530 646 631 610 c 0,74,75
 694 588 694 588 738.5 565.5 c 128,-1,76
 783 543 783 543 811 516 c 0,77,78
 838 489 838 489 850.5 456.5 c 128,-1,79
 863 424 863 424 863 382 c 0,0,1
EndSplineSet
EndChar

StartChar: percent
Encoding: 37 37 8
Width: 1229
GlyphClass: 1
Flags: W
LayerCount: 2
Fore
SplineSet
35 1196 m 2,0,-1
 35 1119 l 2,1,2
 35 1062 35 1062 53 1011.5 c 128,-1,3
 71 961 71 961 107 923 c 0,4,5
 142 884 142 884 195.5 862 c 128,-1,6
 249 840 249 840 321 840 c 256,7,8
 393 840 393 840 446 862 c 128,-1,9
 499 884 499 884 534 923 c 0,10,11
 569 961 569 961 586.5 1011.5 c 128,-1,12
 604 1062 604 1062 604 1119 c 2,13,-1
 604 1196 l 2,14,15
 604 1254 604 1254 586.5 1305 c 128,-1,16
 569 1356 569 1356 534 1394 c 256,17,18
 499 1432 499 1432 445.5 1454.5 c 128,-1,19
 392 1477 392 1477 319 1477 c 0,20,21
 248 1477 248 1477 194.5 1454.5 c 128,-1,22
 141 1432 141 1432 106 1394 c 0,23,24
 70 1356 70 1356 52.5 1305 c 128,-1,25
 35 1254 35 1254 35 1196 c 2,0,-1
223 1119 m 2,26,-1
 223 1196 l 2,27,28
 223 1219 223 1219 228 1240.5 c 128,-1,29
 233 1262 233 1262 245 1279 c 0,30,31
 256 1295 256 1295 274 1304.5 c 128,-1,32
 292 1314 292 1314 319 1314 c 0,33,34
 347 1314 347 1314 365.5 1304.5 c 128,-1,35
 384 1295 384 1295 396 1279 c 0,36,37
 407 1262 407 1262 412 1240.5 c 128,-1,38
 417 1219 417 1219 417 1196 c 2,39,-1
 417 1119 l 2,40,41
 417 1096 417 1096 412 1074.5 c 128,-1,42
 407 1053 407 1053 396 1037 c 0,43,44
 385 1020 385 1020 366.5 1010.5 c 128,-1,45
 348 1001 348 1001 321 1001 c 256,46,47
 294 1001 294 1001 275 1010.5 c 128,-1,48
 256 1020 256 1020 245 1037 c 0,49,50
 233 1053 233 1053 228 1074.5 c 128,-1,51
 223 1096 223 1096 223 1119 c 2,26,-1
623 337 m 2,52,-1
 623 259 l 2,53,54
 623 202 623 202 641 151 c 128,-1,55
 659 100 659 100 695 62 c 0,56,57
 730 24 730 24 784 2 c 128,-1,58
 838 -20 838 -20 910 -20 c 256,59,60
 982 -20 982 -20 1035 2 c 128,-1,61
 1088 24 1088 24 1124 62 c 0,62,63
 1159 100 1159 100 1176 151 c 128,-1,64
 1193 202 1193 202 1193 259 c 2,65,-1
 1193 337 l 2,66,67
 1193 394 1193 394 1175.5 445 c 128,-1,68
 1158 496 1158 496 1123 535 c 0,69,70
 1088 573 1088 573 1034.5 595 c 128,-1,71
 981 617 981 617 908 617 c 0,72,73
 837 617 837 617 783.5 595 c 128,-1,74
 730 573 730 573 695 535 c 0,75,76
 659 496 659 496 641 445 c 128,-1,77
 623 394 623 394 623 337 c 2,52,-1
811 259 m 2,78,-1
 811 337 l 2,79,80
 811 360 811 360 816 381 c 128,-1,81
 821 402 821 402 832 419 c 0,82,83
 843 435 843 435 862 444.5 c 128,-1,84
 881 454 881 454 908 454 c 256,85,86
 935 454 935 454 953.5 444.5 c 128,-1,87
 972 435 972 435 984 419 c 0,88,89
 995 402 995 402 1000 381 c 128,-1,90
 1005 360 1005 360 1005 337 c 2,91,-1
 1005 259 l 2,92,93
 1005 235 1005 235 1002 214 c 128,-1,94
 999 193 999 193 989 177 c 0,95,96
 979 160 979 160 960 150.5 c 128,-1,97
 941 141 941 141 910 141 c 0,98,99
 885 141 885 141 866.5 150.5 c 128,-1,100
 848 160 848 160 836 177 c 0,101,102
 823 193 823 193 817 214.5 c 128,-1,103
 811 236 811 236 811 259 c 2,78,-1
415 198 m 1,104,-1
 976 1226 l 1,105,-1
 840 1291 l 1,106,-1
 279 263 l 1,107,-1
 415 198 l 1,104,-1
EndSplineSet
EndChar

StartChar: ampersand
Encoding: 38 38 9
Width: 1229
GlyphClass: 1
Flags: W
LayerCount: 2
Fore
SplineSet
75 371 m 0,0,1
 75 285 75 285 105 213 c 128,-1,2
 135 141 135 141 192 89 c 0,3,4
 248 37 248 37 329 8 c 128,-1,5
 410 -21 410 -21 511 -21 c 0,6,7
 574 -21 574 -21 628 -11 c 128,-1,8
 682 -1 682 -1 731 18 c 0,9,10
 762 30 762 30 792.5 46.5 c 128,-1,11
 823 63 823 63 853 83 c 1,12,-1
 918 0 l 1,13,-1
 1236 0 l 1,14,-1
 1048 240 l 1,15,16
 1126 334 1126 334 1162.5 452.5 c 128,-1,17
 1199 571 1199 571 1199 708 c 1,18,-1
 961 708 l 1,19,20
 961 630 961 630 943.5 562 c 128,-1,21
 926 494 926 494 894 437 c 1,22,-1
 647 754 l 1,23,-1
 727 819 l 2,24,25
 770 850 770 850 807.5 885 c 128,-1,26
 845 920 845 920 873 960 c 0,27,28
 901 999 901 999 917 1044 c 128,-1,29
 933 1089 933 1089 933 1140 c 0,30,31
 933 1208 933 1208 909 1269 c 128,-1,32
 885 1330 885 1330 842 1377 c 0,33,34
 798 1423 798 1423 736.5 1450 c 128,-1,35
 675 1477 675 1477 600 1477 c 0,36,37
 511 1477 511 1477 439 1450.5 c 128,-1,38
 367 1424 367 1424 316 1375 c 256,39,40
 265 1326 265 1326 237.5 1256 c 128,-1,41
 210 1186 210 1186 210 1100 c 0,42,43
 210 1048 210 1048 222 999 c 128,-1,44
 234 950 234 950 257 901 c 0,45,46
 272 869 272 869 291.5 835.5 c 128,-1,47
 311 802 311 802 334 767 c 1,48,-1
 316 754 l 2,49,50
 263 716 263 716 220 677 c 128,-1,51
 177 638 177 638 146 595 c 0,52,53
 112 547 112 547 93.5 492 c 128,-1,54
 75 437 75 437 75 371 c 0,0,1
523 202 m 0,55,56
 485 202 485 202 453.5 216 c 128,-1,57
 422 230 422 230 400 255 c 0,58,59
 378 279 378 279 366 313 c 128,-1,60
 354 347 354 347 354 387 c 0,61,62
 354 408 354 408 357.5 431.5 c 128,-1,63
 361 455 361 455 372 481 c 0,64,65
 382 507 382 507 403 538.5 c 128,-1,66
 424 570 424 570 452 593 c 2,67,-1
 458 598 l 1,68,-1
 721 256 l 1,69,70
 702 245 702 245 682.5 236.5 c 128,-1,71
 663 228 663 228 643 221 c 0,72,73
 614 212 614 212 584 207 c 128,-1,74
 554 202 554 202 523 202 c 0,55,56
462 1100 m 0,75,76
 462 1131 462 1131 470.5 1158.5 c 128,-1,77
 479 1186 479 1186 496 1207 c 256,78,79
 513 1228 513 1228 539 1240 c 128,-1,80
 565 1252 565 1252 600 1252 c 0,81,82
 623 1252 623 1252 641.5 1241 c 128,-1,83
 660 1230 660 1230 673 1212 c 256,84,85
 686 1194 686 1194 693 1171 c 128,-1,86
 700 1148 700 1148 700 1124 c 0,87,88
 700 1115 700 1115 700 1099.5 c 128,-1,89
 700 1084 700 1084 694 1065 c 0,90,91
 687 1045 687 1045 671 1023.5 c 128,-1,92
 655 1002 655 1002 624 982 c 2,93,-1
 531 913 l 1,94,95
 518 934 518 934 506.5 954.5 c 128,-1,96
 495 975 495 975 487 995 c 0,97,98
 475 1022 475 1022 468.5 1048 c 128,-1,99
 462 1074 462 1074 462 1100 c 0,75,76
EndSplineSet
EndChar

StartChar: quotesingle
Encoding: 39 39 10
Width: 1229
GlyphClass: 1
Flags: W
LayerCount: 2
Fore
SplineSet
671 1394 m 1,0,-1
 671 1536 l 1,1,-1
 457 1536 l 1,2,-1
 457 1395 l 1,3,-1
 457 993 l 1,4,-1
 643 993 l 1,5,-1
 671 1394 l 1,0,-1
EndSplineSet
EndChar

StartChar: parenleft
Encoding: 40 40 11
Width: 1229
GlyphClass: 1
Flags: W
LayerCount: 2
Fore
SplineSet
345 592 m 2,0,-1
 345 570 l 2,1,2
 345 428 345 428 366.5 304 c 128,-1,3
 388 180 388 180 425 75 c 0,4,5
 462 -31 462 -31 511.5 -118 c 128,-1,6
 561 -205 561 -205 616 -271 c 0,7,8
 671 -338 671 -338 729.5 -385 c 128,-1,9
 788 -432 788 -432 843 -457 c 1,10,-1
 897 -307 l 1,11,12
 858 -277 858 -277 818 -232 c 128,-1,13
 778 -187 778 -187 742 -126 c 0,14,15
 708 -70 708 -70 678.5 5 c 128,-1,16
 649 80 649 80 627 168 c 0,17,18
 611 231 611 231 597.5 337 c 128,-1,19
 584 443 584 443 584 568 c 2,20,-1
 584 594 l 2,21,22
 584 721 584 721 598 829 c 128,-1,23
 612 937 612 937 635 1026 c 0,24,25
 661 1118 661 1118 695.5 1196 c 128,-1,26
 730 1274 730 1274 770 1331 c 0,27,28
 801 1375 801 1375 833 1409 c 128,-1,29
 865 1443 865 1443 897 1467 c 1,30,-1
 843 1619 l 1,31,32
 788 1594 788 1594 729.5 1547.5 c 128,-1,33
 671 1501 671 1501 616 1434 c 256,34,35
 561 1367 561 1367 511.5 1280 c 128,-1,36
 462 1193 462 1193 425 1088 c 0,37,38
 388 982 388 982 366.5 857.5 c 128,-1,39
 345 733 345 733 345 592 c 2,0,-1
EndSplineSet
EndChar

StartChar: parenright
Encoding: 41 41 12
Width: 1229
GlyphClass: 1
Flags: W
LayerCount: 2
Fore
SplineSet
881 570 m 2,0,-1
 881 592 l 2,1,2
 881 729 881 729 859 851.5 c 128,-1,3
 837 974 837 974 799 1080 c 256,4,5
 761 1186 761 1186 710.5 1273.5 c 128,-1,6
 660 1361 660 1361 603 1430 c 0,7,8
 546 1498 546 1498 486 1546 c 128,-1,9
 426 1594 426 1594 369 1619 c 1,10,-1
 316 1470 l 1,11,12
 346 1447 346 1447 376.5 1414.5 c 128,-1,13
 407 1382 407 1382 436 1341 c 0,14,15
 479 1279 479 1279 517.5 1194 c 128,-1,16
 556 1109 556 1109 583 1002 c 0,17,18
 604 916 604 916 616.5 814 c 128,-1,19
 629 712 629 712 629 594 c 2,20,-1
 629 568 l 2,21,22
 629 447 629 447 616.5 343 c 128,-1,23
 604 239 604 239 583 153 c 0,24,25
 558 59 558 59 525.5 -17 c 128,-1,26
 493 -93 493 -93 454 -153 c 0,27,28
 421 -204 421 -204 386 -242.5 c 128,-1,29
 351 -281 351 -281 316 -307 c 1,30,-1
 369 -457 l 1,31,32
 426 -432 426 -432 486 -384 c 128,-1,33
 546 -336 546 -336 603 -267 c 0,34,35
 660 -199 660 -199 710.5 -111.5 c 128,-1,36
 761 -24 761 -24 799 82 c 256,37,38
 837 188 837 188 859 310.5 c 128,-1,39
 881 433 881 433 881 570 c 2,0,-1
EndSplineSet
EndChar

StartChar: asterisk
Encoding: 42 42 13
Width: 1229
GlyphClass: 1
Flags: W
LayerCount: 2
Fore
SplineSet
546 890 m 1,0,-1
 268 563 l 1,1,-1
 447 440 l 1,2,-1
 658 801 l 1,3,-1
 869 429 l 1,4,-1
 1047 558 l 1,5,-1
 779 881 l 1,6,-1
 1177 972 l 1,7,-1
 1111 1181 l 1,8,-1
 739 1018 l 1,9,-1
 778 1456 l 1,10,-1
 559 1456 l 1,11,-1
 595 1025 l 1,12,-1
 220 1191 l 1,13,-1
 154 986 l 1,14,-1
 546 890 l 1,0,-1
EndSplineSet
EndChar

StartChar: plus
Encoding: 43 43 14
Width: 1229
GlyphClass: 1
Flags: W
LayerCount: 2
Fore
SplineSet
731 812 m 1,0,-1
 731 1206 l 1,1,-1
 466 1206 l 1,2,-1
 466 812 l 1,3,-1
 99 812 l 1,4,-1
 99 558 l 1,5,-1
 466 558 l 1,6,-1
 466 146 l 1,7,-1
 731 146 l 1,8,-1
 731 558 l 1,9,-1
 1097 558 l 1,10,-1
 1097 812 l 1,11,-1
 731 812 l 1,0,-1
EndSplineSet
EndChar

StartChar: comma
Encoding: 44 44 15
Width: 1229
GlyphClass: 1
Flags: W
LayerCount: 2
Fore
SplineSet
710 22 m 2,0,-1
 711 243 l 1,1,-1
 450 243 l 1,2,-1
 450 9 l 2,3,4
 450 -101 450 -101 424 -179.5 c 128,-1,5
 398 -258 398 -258 360 -330 c 1,6,-1
 507 -406 l 1,7,8
 597 -326 597 -326 653.5 -209 c 128,-1,9
 710 -92 710 -92 710 22 c 2,0,-1
EndSplineSet
EndChar

StartChar: hyphen
Encoding: 45 45 16
Width: 1229
GlyphClass: 1
Flags: W
LayerCount: 2
Fore
SplineSet
1115 530 m 1,0,-1
 1115 755 l 1,1,-1
 282 755 l 1,2,-1
 282 530 l 1,3,-1
 1115 530 l 1,0,-1
EndSplineSet
EndChar

StartChar: period
Encoding: 46 46 17
Width: 1229
GlyphClass: 1
Flags: W
LayerCount: 2
Fore
SplineSet
422 161 m 256,0,1
 422 84 422 84 474 32 c 128,-1,2
 526 -20 526 -20 615 -20 c 0,3,4
 703 -20 703 -20 755.5 31.5 c 128,-1,5
 808 83 808 83 808 161 c 256,6,7
 808 239 808 239 756.5 292 c 128,-1,8
 705 345 705 345 615 345 c 0,9,10
 524 345 524 345 473 291.5 c 128,-1,11
 422 238 422 238 422 161 c 256,0,1
EndSplineSet
EndChar

StartChar: slash
Encoding: 47 47 18
AltUni2: 002215.ffffffff.0 002215.ffffffff.0
Width: 1229
GlyphClass: 1
Flags: W
LayerCount: 2
Fore
SplineSet
479 -125 m 1,0,-1
 1024 1456 l 1,1,-1
 765 1456 l 1,2,-1
 220 -125 l 1,3,-1
 479 -125 l 1,0,-1
EndSplineSet
EndChar

StartChar: zero
Encoding: 48 48 19
Width: 1229
GlyphClass: 1
Flags: W
LayerCount: 2
Fore
SplineSet
1089 554 m 2,0,-1
 1089 902 l 2,1,2
 1089 1043 1089 1043 1056 1150.5 c 128,-1,3
 1023 1258 1023 1258 962 1331 c 0,4,5
 900 1403 900 1403 812 1440 c 128,-1,6
 724 1477 724 1477 614 1477 c 0,7,8
 505 1477 505 1477 417.5 1440 c 128,-1,9
 330 1403 330 1403 269 1331 c 0,10,11
 207 1258 207 1258 174 1150.5 c 128,-1,12
 141 1043 141 1043 141 902 c 2,13,-1
 141 554 l 2,14,15
 141 413 141 413 174.5 305.5 c 128,-1,16
 208 198 208 198 270 126 c 0,17,18
 331 53 331 53 419 16 c 128,-1,19
 507 -21 507 -21 616 -21 c 0,20,21
 726 -21 726 -21 814 16 c 128,-1,22
 902 53 902 53 963 126 c 0,23,24
 1024 198 1024 198 1056.5 305.5 c 128,-1,25
 1089 413 1089 413 1089 554 c 2,0,-1
421 674 m 1,26,27
 421 705 421 705 421 721 c 128,-1,28
 421 737 421 737 421 785 c 2,29,-1
 421 946 l 2,30,31
 421 1027 421 1027 433.5 1086 c 128,-1,32
 446 1145 446 1145 472 1182 c 0,33,34
 496 1217 496 1217 531.5 1234.5 c 128,-1,35
 567 1252 567 1252 614 1252 c 0,36,37
 656 1252 656 1252 689.5 1238.5 c 128,-1,38
 723 1225 723 1225 746 1197 c 0,39,40
 776 1162 776 1162 791.5 1103.5 c 128,-1,41
 807 1045 807 1045 809 963 c 1,42,-1
 421 674 l 1,26,27
809 512 m 2,43,44
 809 431 809 431 796.5 371.5 c 128,-1,45
 784 312 784 312 759 274 c 0,46,47
 735 238 735 238 699 220.5 c 128,-1,48
 663 203 663 203 616 203 c 0,49,50
 565 203 565 203 528 223 c 128,-1,51
 491 243 491 243 467 284 c 0,52,53
 446 318 446 318 434.5 369 c 128,-1,54
 423 420 423 420 421 486 c 1,55,-1
 809 774 l 1,56,57
 809 745 809 745 809 729.5 c 128,-1,58
 809 714 809 714 809 681 c 2,59,-1
 809 512 l 2,43,44
EndSplineSet
EndChar

StartChar: one
Encoding: 49 49 20
Width: 1229
GlyphClass: 1
Flags: W
LayerCount: 2
Fore
SplineSet
822 0 m 1,0,-1
 822 1456 l 1,1,-1
 807 1456 l 1,2,-1
 173 1227 l 1,3,-1
 173 985 l 1,4,-1
 541 1117 l 1,5,-1
 541 0 l 1,6,-1
 822 0 l 1,0,-1
EndSplineSet
EndChar

StartChar: two
Encoding: 50 50 21
Width: 1229
GlyphClass: 1
Flags: W
LayerCount: 2
Fore
SplineSet
1093 0 m 1,0,-1
 1093 223 l 1,1,-1
 454 223 l 1,2,-1
 728 513 l 2,3,4
 799 586 799 586 857 652.5 c 128,-1,5
 915 719 915 719 957 783 c 0,6,7
 998 847 998 847 1020.5 912.5 c 128,-1,8
 1043 978 1043 978 1043 1050 c 0,9,10
 1043 1145 1043 1145 1013 1223.5 c 128,-1,11
 983 1302 983 1302 926 1358 c 0,12,13
 868 1414 868 1414 782.5 1445 c 128,-1,14
 697 1476 697 1476 586 1476 c 0,15,16
 470 1476 470 1476 374.5 1438.5 c 128,-1,17
 279 1401 279 1401 212 1336 c 0,18,19
 144 1271 144 1271 107 1184.5 c 128,-1,20
 70 1098 70 1098 70 1001 c 1,21,-1
 349 1001 l 1,22,23
 349 1060 349 1060 364 1106 c 128,-1,24
 379 1152 379 1152 408 1183 c 0,25,26
 436 1213 436 1213 478.5 1228.5 c 128,-1,27
 521 1244 521 1244 577 1244 c 0,28,29
 620 1244 620 1244 655.5 1230 c 128,-1,30
 691 1216 691 1216 717 1190 c 0,31,32
 742 1163 742 1163 756 1125 c 128,-1,33
 770 1087 770 1087 770 1038 c 0,34,35
 770 1005 770 1005 759.5 970 c 128,-1,36
 749 935 749 935 726 895 c 0,37,38
 702 854 702 854 664 805 c 128,-1,39
 626 756 626 756 571 696 c 2,40,-1
 100 190 l 1,41,-1
 100 0 l 1,42,-1
 1093 0 l 1,0,-1
EndSplineSet
EndChar

StartChar: three
Encoding: 51 51 22
Width: 1229
GlyphClass: 1
Flags: W
LayerCount: 2
Fore
SplineSet
421 850 m 1,0,-1
 421 634 l 1,1,-1
 572 634 l 2,2,3
 629 634 629 634 674.5 621 c 128,-1,4
 720 608 720 608 753 581 c 0,5,6
 785 554 785 554 802 512 c 128,-1,7
 819 470 819 470 819 411 c 0,8,9
 819 364 819 364 804.5 326 c 128,-1,10
 790 288 790 288 762 262 c 0,11,12
 733 233 733 233 690 218 c 128,-1,13
 647 203 647 203 593 203 c 0,14,15
 545 203 545 203 505 217.5 c 128,-1,16
 465 232 465 232 436 258 c 0,17,18
 406 283 406 283 390 318.5 c 128,-1,19
 374 354 374 354 374 396 c 1,20,-1
 96 396 l 1,21,22
 96 290 96 290 137.5 212 c 128,-1,23
 179 134 179 134 248 83 c 0,24,25
 317 31 317 31 405.5 5.5 c 128,-1,26
 494 -20 494 -20 587 -20 c 0,27,28
 695 -20 695 -20 788.5 8.5 c 128,-1,29
 882 37 882 37 950 92 c 0,30,31
 1018 146 1018 146 1057 226 c 128,-1,32
 1096 306 1096 306 1096 408 c 0,33,34
 1096 466 1096 466 1082 518 c 128,-1,35
 1068 570 1068 570 1039 614 c 0,36,37
 1010 657 1010 657 965.5 691 c 128,-1,38
 921 725 921 725 860 747 c 1,39,40
 912 772 912 772 952 806.5 c 128,-1,41
 992 841 992 841 1019 882 c 256,42,43
 1046 923 1046 923 1060 968.5 c 128,-1,44
 1074 1014 1074 1014 1074 1061 c 0,45,46
 1074 1163 1074 1163 1038.5 1240.5 c 128,-1,47
 1003 1318 1003 1318 939 1371 c 0,48,49
 875 1423 875 1423 785 1449.5 c 128,-1,50
 695 1476 695 1476 587 1476 c 0,51,52
 487 1476 487 1476 400.5 1447 c 128,-1,53
 314 1418 314 1418 250 1366 c 0,54,55
 186 1313 186 1313 149.5 1240 c 128,-1,56
 113 1167 113 1167 113 1078 c 1,57,-1
 391 1078 l 1,58,59
 391 1118 391 1118 407 1150 c 128,-1,60
 423 1182 423 1182 451 1205 c 0,61,62
 478 1227 478 1227 514.5 1239 c 128,-1,63
 551 1251 551 1251 593 1251 c 0,64,65
 644 1251 644 1251 682.5 1237 c 128,-1,66
 721 1223 721 1223 746 1198 c 0,67,68
 771 1172 771 1172 783.5 1136.5 c 128,-1,69
 796 1101 796 1101 796 1058 c 0,70,71
 796 1014 796 1014 783.5 976.5 c 128,-1,72
 771 939 771 939 746 913 c 0,73,74
 719 883 719 883 675.5 866.5 c 128,-1,75
 632 850 632 850 572 850 c 2,76,-1
 421 850 l 1,0,-1
EndSplineSet
EndChar

StartChar: four
Encoding: 52 52 23
Width: 1229
GlyphClass: 1
Flags: W
LayerCount: 2
Fore
SplineSet
953 541 m 1,0,-1
 953 1456 l 1,1,-1
 671 1456 l 1,2,-1
 59 490 l 1,3,-1
 70 316 l 1,4,-1
 675 316 l 1,5,-1
 675 0 l 1,6,-1
 953 0 l 1,7,-1
 953 316 l 1,8,-1
 1122 316 l 1,9,-1
 1122 541 l 1,10,-1
 953 541 l 1,0,-1
332 541 m 1,11,-1
 648 1034 l 1,12,-1
 675 1082 l 1,13,-1
 675 541 l 1,14,-1
 332 541 l 1,11,-1
EndSplineSet
EndChar

StartChar: five
Encoding: 53 53 24
Width: 1229
GlyphClass: 1
Flags: W
LayerCount: 2
Fore
SplineSet
155 717 m 1,0,-1
 377 662 l 1,1,2
 393 678 393 678 411 692.5 c 128,-1,3
 429 707 429 707 452 718 c 256,4,5
 475 729 475 729 505 736 c 128,-1,6
 535 743 535 743 576 743 c 0,7,8
 637 743 637 743 682 724 c 128,-1,9
 727 705 727 705 757 670 c 256,10,11
 787 635 787 635 801.5 586.5 c 128,-1,12
 816 538 816 538 816 480 c 0,13,14
 816 421 816 421 804.5 370 c 128,-1,15
 793 319 793 319 769 282 c 0,16,17
 744 245 744 245 704.5 224 c 128,-1,18
 665 203 665 203 609 203 c 0,19,20
 518 203 518 203 459.5 255 c 128,-1,21
 401 307 401 307 391 402 c 1,22,-1
 117 402 l 1,23,24
 120 301 120 301 162.5 222.5 c 128,-1,25
 205 144 205 144 273 90 c 256,26,27
 341 36 341 36 428.5 8 c 128,-1,28
 516 -20 516 -20 610 -20 c 0,29,30
 734 -20 734 -20 825 19 c 128,-1,31
 916 58 916 58 976 125 c 256,32,33
 1036 192 1036 192 1065 280 c 128,-1,34
 1094 368 1094 368 1094 466 c 0,35,36
 1094 581 1094 581 1064 672 c 128,-1,37
 1034 763 1034 763 978 826 c 0,38,39
 921 889 921 889 838.5 922.5 c 128,-1,40
 756 956 756 956 651 956 c 0,41,42
 577 956 577 956 520 937 c 128,-1,43
 463 918 463 918 432 900 c 1,44,-1
 467 1220 l 1,45,-1
 1046 1220 l 1,46,-1
 1046 1456 l 1,47,-1
 238 1456 l 1,48,-1
 155 717 l 1,0,-1
EndSplineSet
EndChar

StartChar: six
Encoding: 54 54 25
Width: 1229
GlyphClass: 1
Flags: W
LayerCount: 2
Fore
SplineSet
879 1468 m 1,0,-1
 842 1468 l 2,1,2
 661 1468 661 1468 523 1407.5 c 128,-1,3
 385 1347 385 1347 292 1240 c 0,4,5
 199 1132 199 1132 152 984.5 c 128,-1,6
 105 837 105 837 105 664 c 2,7,-1
 105 557 l 2,8,9
 105 432 105 432 140.5 326.5 c 128,-1,10
 176 221 176 221 242 144 c 0,11,12
 307 67 307 67 401 23.5 c 128,-1,13
 495 -20 495 -20 612 -20 c 0,14,15
 724 -20 724 -20 814 18.5 c 128,-1,16
 904 57 904 57 967 124 c 256,17,18
 1030 191 1030 191 1064 282 c 128,-1,19
 1098 373 1098 373 1098 479 c 0,20,21
 1098 578 1098 578 1072.5 667.5 c 128,-1,22
 1047 757 1047 757 995 825 c 0,23,24
 943 892 943 892 865.5 931.5 c 128,-1,25
 788 971 788 971 684 971 c 0,26,27
 633 971 633 971 589 959 c 128,-1,28
 545 947 545 947 508 928 c 0,29,30
 470 908 470 908 440 883.5 c 128,-1,31
 410 859 410 859 387 834 c 1,32,33
 396 925 396 925 430.5 999 c 128,-1,34
 465 1073 465 1073 525 1126 c 0,35,36
 584 1179 584 1179 668.5 1208 c 128,-1,37
 753 1237 753 1237 863 1237 c 2,38,-1
 879 1237 l 1,39,-1
 879 1468 l 1,0,-1
603 748 m 0,40,41
 655 748 655 748 695.5 727.5 c 128,-1,42
 736 707 736 707 764 671 c 0,43,44
 792 634 792 634 807 584 c 128,-1,45
 822 534 822 534 822 475 c 256,46,47
 822 416 822 416 807 366.5 c 128,-1,48
 792 317 792 317 764 281 c 256,49,50
 736 245 736 245 696 224.5 c 128,-1,51
 656 204 656 204 607 204 c 0,52,53
 559 204 559 204 518 224 c 128,-1,54
 477 244 477 244 447 284 c 0,55,56
 417 323 417 323 400.5 383 c 128,-1,57
 384 443 384 443 384 523 c 2,58,-1
 384 605 l 1,59,60
 398 635 398 635 418.5 660 c 128,-1,61
 439 685 439 685 464 704 c 0,62,63
 493 725 493 725 528 736.5 c 128,-1,64
 563 748 563 748 603 748 c 0,40,41
EndSplineSet
EndChar

StartChar: seven
Encoding: 55 55 26
Width: 1229
GlyphClass: 1
Flags: W
LayerCount: 2
Fore
SplineSet
1092 1301 m 1,0,-1
 1092 1456 l 1,1,-1
 69 1456 l 1,2,-1
 69 1229 l 1,3,-1
 800 1229 l 1,4,-1
 232 0 l 1,5,-1
 525 0 l 1,6,-1
 1092 1301 l 1,0,-1
EndSplineSet
EndChar

StartChar: eight
Encoding: 56 56 27
Width: 1229
GlyphClass: 1
Flags: W
LayerCount: 2
Fore
SplineSet
1055 1069 m 0,0,1
 1055 1168 1055 1168 1020.5 1243.5 c 128,-1,2
 986 1319 986 1319 925 1371 c 0,3,4
 863 1423 863 1423 779 1449.5 c 128,-1,5
 695 1476 695 1476 596 1476 c 256,6,7
 497 1476 497 1476 413.5 1449.5 c 128,-1,8
 330 1423 330 1423 270 1371 c 0,9,10
 209 1319 209 1319 175 1243.5 c 128,-1,11
 141 1168 141 1168 141 1069 c 0,12,13
 141 1015 141 1015 155.5 966 c 128,-1,14
 170 917 170 917 197 876 c 0,15,16
 222 837 222 837 258.5 805 c 128,-1,17
 295 773 295 773 340 750 c 1,18,19
 287 725 287 725 244.5 689.5 c 128,-1,20
 202 654 202 654 172 610 c 0,21,22
 142 565 142 565 125.5 511.5 c 128,-1,23
 109 458 109 458 109 398 c 0,24,25
 109 295 109 295 146.5 217 c 128,-1,26
 184 139 184 139 250 87 c 0,27,28
 316 34 316 34 405.5 7 c 128,-1,29
 495 -20 495 -20 599 -20 c 0,30,31
 702 -20 702 -20 791 7 c 128,-1,32
 880 34 880 34 946 87 c 0,33,34
 1011 139 1011 139 1048.5 217 c 128,-1,35
 1086 295 1086 295 1086 398 c 0,36,37
 1086 476 1086 476 1059 542 c 128,-1,38
 1032 608 1032 608 984 658 c 0,39,40
 958 686 958 686 925 708.5 c 128,-1,41
 892 731 892 731 855 749 c 1,42,43
 896 770 896 770 929.5 798.5 c 128,-1,44
 963 827 963 827 988 860 c 0,45,46
 1020 904 1020 904 1037.5 956.5 c 128,-1,47
 1055 1009 1055 1009 1055 1069 c 0,0,1
807 417 m 256,48,49
 807 367 807 367 791.5 327.5 c 128,-1,50
 776 288 776 288 749 260 c 0,51,52
 721 232 721 232 683 217.5 c 128,-1,53
 645 203 645 203 599 203 c 0,54,55
 552 203 552 203 514 216.5 c 128,-1,56
 476 230 476 230 449 256 c 0,57,58
 420 283 420 283 404 324 c 128,-1,59
 388 365 388 365 388 417 c 0,60,61
 388 467 388 467 403 507 c 128,-1,62
 418 547 418 547 445 576 c 0,63,64
 472 604 472 604 510.5 619 c 128,-1,65
 549 634 549 634 597 634 c 256,66,67
 645 634 645 634 683.5 619 c 128,-1,68
 722 604 722 604 750 576 c 0,69,70
 777 547 777 547 792 507 c 128,-1,71
 807 467 807 467 807 417 c 256,48,49
778 1056 m 256,72,73
 778 1012 778 1012 765.5 975.5 c 128,-1,74
 753 939 753 939 730 913 c 256,75,76
 707 887 707 887 674 872.5 c 128,-1,77
 641 858 641 858 599 858 c 256,78,79
 557 858 557 858 523.5 872.5 c 128,-1,80
 490 887 490 887 467 913 c 0,81,82
 443 939 443 939 431 975.5 c 128,-1,83
 419 1012 419 1012 419 1057 c 0,84,85
 419 1101 419 1101 430.5 1137.5 c 128,-1,86
 442 1174 442 1174 465 1199 c 0,87,88
 487 1224 487 1224 520 1237.5 c 128,-1,89
 553 1251 553 1251 596 1251 c 0,90,91
 638 1251 638 1251 671.5 1237 c 128,-1,92
 705 1223 705 1223 729 1198 c 0,93,94
 752 1172 752 1172 765 1136 c 128,-1,95
 778 1100 778 1100 778 1056 c 256,72,73
EndSplineSet
EndChar

StartChar: nine
Encoding: 57 57 28
Width: 1229
GlyphClass: 1
Flags: W
LayerCount: 2
Fore
SplineSet
332 221 m 2,0,-1
 313 221 l 1,1,-1
 313 -12 l 1,2,-1
 334 -12 l 2,3,4
 527 -12 527 -12 666 47.5 c 128,-1,5
 805 107 805 107 895 214 c 0,6,7
 985 320 985 320 1028 466 c 128,-1,8
 1071 612 1071 612 1071 786 c 2,9,-1
 1071 882 l 2,10,11
 1071 1012 1071 1012 1037.5 1121 c 128,-1,12
 1004 1230 1004 1230 941 1309 c 0,13,14
 877 1388 877 1388 786 1432 c 128,-1,15
 695 1476 695 1476 581 1476 c 0,16,17
 469 1476 469 1476 379.5 1435.5 c 128,-1,18
 290 1395 290 1395 227 1325 c 256,19,20
 164 1255 164 1255 130.5 1161.5 c 128,-1,21
 97 1068 97 1068 97 962 c 0,22,23
 97 859 97 859 124.5 769.5 c 128,-1,24
 152 680 152 680 206 614 c 0,25,26
 259 548 259 548 338 510 c 128,-1,27
 417 472 417 472 521 472 c 0,28,29
 570 472 570 472 611 480.5 c 128,-1,30
 652 489 652 489 685 504 c 0,31,32
 716 517 716 517 742 535 c 128,-1,33
 768 553 768 553 789 574 c 1,34,-1
 789 568 l 1,35,36
 779 488 779 488 748.5 423.5 c 128,-1,37
 718 359 718 359 664 315 c 0,38,39
 608 269 608 269 526 245 c 128,-1,40
 444 221 444 221 332 221 c 2,0,-1
587 687 m 0,41,42
 533 687 533 687 493 709.5 c 128,-1,43
 453 732 453 732 427 770 c 0,44,45
 400 808 400 808 387 859 c 128,-1,46
 374 910 374 910 374 966 c 256,47,48
 374 1022 374 1022 388 1073.5 c 128,-1,49
 402 1125 402 1125 428 1165 c 0,50,51
 454 1204 454 1204 492.5 1227.5 c 128,-1,52
 531 1251 531 1251 580 1251 c 0,53,54
 625 1251 625 1251 664 1231 c 128,-1,55
 703 1211 703 1211 732 1171 c 256,56,57
 761 1131 761 1131 777.5 1071 c 128,-1,58
 794 1011 794 1011 794 931 c 2,59,-1
 794 832 l 1,60,61
 782 801 782 801 762.5 774.5 c 128,-1,62
 743 748 743 748 717 729 c 0,63,64
 690 709 690 709 657.5 698 c 128,-1,65
 625 687 625 687 587 687 c 0,41,42
EndSplineSet
EndChar

StartChar: less
Encoding: 60 60 31
Width: 1229
GlyphClass: 1
Flags: W
LayerCount: 2
Fore
SplineSet
1041 144 m 1,0,-1
 1041 415 l 1,1,-1
 493 598 l 1,2,-1
 425 622 l 1,3,-1
 493 647 l 1,4,-1
 1041 833 l 1,5,-1
 1041 1103 l 1,6,-1
 156 736 l 1,7,-1
 156 511 l 1,8,-1
 1041 144 l 1,0,-1
EndSplineSet
EndChar

StartChar: equal
Encoding: 61 61 32
Width: 1229
GlyphClass: 1
Flags: W
LayerCount: 2
Fore
SplineSet
1104 717 m 1,0,-1
 1104 945 l 1,1,-1
 158 945 l 1,2,-1
 158 717 l 1,3,-1
 1104 717 l 1,0,-1
1104 286 m 1,4,-1
 1104 513 l 1,5,-1
 158 513 l 1,6,-1
 158 286 l 1,7,-1
 1104 286 l 1,4,-1
EndSplineSet
EndChar

StartChar: greater
Encoding: 62 62 33
Width: 1229
GlyphClass: 1
Flags: W
LayerCount: 2
Fore
SplineSet
161 143 m 1,0,-1
 1061 510 l 1,1,-1
 1061 737 l 1,2,-1
 161 1103 l 1,3,-1
 161 834 l 1,4,-1
 735 645 l 1,5,-1
 795 625 l 1,6,-1
 734 605 l 1,7,-1
 161 413 l 1,8,-1
 161 143 l 1,0,-1
EndSplineSet
EndChar

StartChar: question
Encoding: 63 63 34
Width: 1229
GlyphClass: 1
Flags: W
LayerCount: 2
Fore
SplineSet
499 442 m 1,0,-1
 749 442 l 1,1,2
 749 482 749 482 751 510.5 c 128,-1,3
 753 539 753 539 761 563 c 0,4,5
 768 587 768 587 785 610 c 128,-1,6
 802 633 802 633 832 663 c 0,7,8
 881 706 881 706 929.5 751.5 c 128,-1,9
 978 797 978 797 1016 848 c 0,10,11
 1054 898 1054 898 1078 956.5 c 128,-1,12
 1102 1015 1102 1015 1102 1086 c 0,13,14
 1102 1182 1102 1182 1070 1255 c 128,-1,15
 1038 1328 1038 1328 978 1378 c 0,16,17
 917 1427 917 1427 829 1452 c 128,-1,18
 741 1477 741 1477 630 1477 c 0,19,20
 531 1477 531 1477 446 1452.5 c 128,-1,21
 361 1428 361 1428 298 1378 c 256,22,23
 235 1328 235 1328 198 1252.5 c 128,-1,24
 161 1177 161 1177 160 1075 c 1,25,-1
 439 1075 l 1,26,27
 440 1121 440 1121 456.5 1154 c 128,-1,28
 473 1187 473 1187 500 1208 c 0,29,30
 526 1229 526 1229 560 1238.5 c 128,-1,31
 594 1248 594 1248 630 1248 c 0,32,33
 676 1248 676 1248 711.5 1238 c 128,-1,34
 747 1228 747 1228 772 1208 c 0,35,36
 796 1186 796 1186 809 1152.5 c 128,-1,37
 822 1119 822 1119 822 1073 c 0,38,39
 822 1035 822 1035 805 997 c 128,-1,40
 788 959 788 959 761 923 c 0,41,42
 733 886 733 886 699 851.5 c 128,-1,43
 665 817 665 817 631 786 c 0,44,45
 584 749 584 749 558 716.5 c 128,-1,46
 532 684 532 684 519 646 c 0,47,48
 506 607 506 607 502.5 559 c 128,-1,49
 499 511 499 511 499 442 c 1,0,-1
458 139 m 0,50,51
 458 75 458 75 501 31.5 c 128,-1,52
 544 -12 544 -12 620 -12 c 0,53,54
 694 -12 694 -12 738.5 31.5 c 128,-1,55
 783 75 783 75 783 139 c 0,56,57
 783 205 783 205 738.5 249.5 c 128,-1,58
 694 294 694 294 620 294 c 0,59,60
 544 294 544 294 501 249.5 c 128,-1,61
 458 205 458 205 458 139 c 0,50,51
EndSplineSet
EndChar

StartChar: at
Encoding: 64 64 35
Width: 1229
GlyphClass: 1
Flags: W
LayerCount: 2
Fore
SplineSet
1170 823 m 0,0,1
 1174 962 1174 962 1141 1076 c 128,-1,2
 1108 1190 1108 1190 1043 1272 c 0,3,4
 977 1353 977 1353 882 1397.5 c 128,-1,5
 787 1442 787 1442 669 1442 c 0,6,7
 533 1442 533 1442 420 1382.5 c 128,-1,8
 307 1323 307 1323 225 1220 c 0,9,10
 142 1116 142 1116 94.5 977 c 128,-1,11
 47 838 47 838 42 680 c 0,12,13
 37 521 37 521 68.5 393.5 c 128,-1,14
 100 266 100 266 169 177 c 256,15,16
 238 88 238 88 344 40 c 128,-1,17
 450 -8 450 -8 596 -8 c 0,18,19
 630 -8 630 -8 667 -3.5 c 128,-1,20
 704 1 704 1 741 11 c 0,21,22
 778 20 778 20 811.5 34 c 128,-1,23
 845 48 845 48 871 67 c 1,24,-1
 839 202 l 1,25,26
 816 190 816 190 787.5 180 c 128,-1,27
 759 170 759 170 728 163 c 0,28,29
 696 155 696 155 663 151 c 128,-1,30
 630 147 630 147 599 147 c 0,31,32
 501 147 501 147 425.5 180 c 128,-1,33
 350 213 350 213 301 280 c 0,34,35
 251 346 251 346 227.5 446 c 128,-1,36
 204 546 204 546 209 680 c 0,37,38
 213 813 213 813 246 924.5 c 128,-1,39
 279 1036 279 1036 337 1117 c 0,40,41
 394 1198 394 1198 475.5 1243.5 c 128,-1,42
 557 1289 557 1289 659 1289 c 0,43,44
 749 1289 749 1289 818 1261 c 128,-1,45
 887 1233 887 1233 933 1175 c 256,46,47
 979 1117 979 1117 1000.5 1027.5 c 128,-1,48
 1022 938 1022 938 1018 816 c 0,49,50
 1018 737 1018 737 1009.5 670.5 c 128,-1,51
 1001 604 1001 604 985 556 c 256,52,53
 969 508 969 508 947.5 481 c 128,-1,54
 926 454 926 454 900 454 c 0,55,56
 890 454 890 454 880 456 c 128,-1,57
 870 458 870 458 863 466 c 0,58,59
 855 474 855 474 851.5 490 c 128,-1,60
 848 506 848 506 850 535 c 2,61,-1
 893 1062 l 1,62,63
 862 1093 862 1093 812 1115.5 c 128,-1,64
 762 1138 762 1138 685 1138 c 0,65,66
 609 1138 609 1138 548 1106.5 c 128,-1,67
 487 1075 487 1075 442 1017 c 0,68,69
 397 958 397 958 368.5 876 c 128,-1,70
 340 794 340 794 329 692 c 0,71,72
 321 605 321 605 331.5 534 c 128,-1,73
 342 463 342 463 370 413 c 0,74,75
 398 362 398 362 443 335 c 128,-1,76
 488 308 488 308 548 308 c 0,77,78
 578 308 578 308 605 317.5 c 128,-1,79
 632 327 632 327 656 344 c 0,80,81
 672 356 672 356 687 371.5 c 128,-1,82
 702 387 702 387 715 405 c 1,83,84
 726 384 726 384 740 367 c 128,-1,85
 754 350 754 350 771 338 c 0,86,87
 792 322 792 322 818 314 c 128,-1,88
 844 306 844 306 873 306 c 0,89,90
 950 306 950 306 1005 351.5 c 128,-1,91
 1060 397 1060 397 1096 471 c 0,92,93
 1131 544 1131 544 1149 636.5 c 128,-1,94
 1167 729 1167 729 1170 823 c 0,0,1
502 692 m 0,95,96
 509 763 509 763 524.5 817.5 c 128,-1,97
 540 872 540 872 564 909 c 0,98,99
 588 947 588 947 621.5 966 c 128,-1,100
 655 985 655 985 699 985 c 0,101,102
 711 985 711 985 718 984 c 128,-1,103
 725 983 725 983 730 982 c 1,104,-1
 692 535 l 1,105,-1
 691 522 l 1,106,107
 682 508 682 508 673 498 c 128,-1,108
 664 488 664 488 655 481 c 0,109,110
 640 470 640 470 624.5 465.5 c 128,-1,111
 609 461 609 461 594 461 c 0,112,113
 569 461 569 461 550 476 c 128,-1,114
 531 491 531 491 519 522 c 0,115,116
 508 550 508 550 503.5 593 c 128,-1,117
 499 636 499 636 502 692 c 0,95,96
EndSplineSet
EndChar

StartChar: A
Encoding: 65 65 36
Width: 1229
GlyphClass: 1
Flags: W
LayerCount: 2
Fore
SplineSet
847 304 m 1,0,-1
 932 0 l 1,1,-1
 1228 0 l 1,2,-1
 760 1456 l 1,3,-1
 505 1456 l 1,4,-1
 28 0 l 1,5,-1
 324 0 l 1,6,-1
 410 304 l 1,7,-1
 847 304 l 1,0,-1
479 543 m 1,8,-1
 632 1079 l 1,9,-1
 781 543 l 1,10,-1
 479 543 l 1,8,-1
EndSplineSet
Substitution2: "'smcp' Lowercase to Small Capitals lookup 0 subtable" A.smcp
EndChar

StartChar: B
Encoding: 66 66 37
Width: 1229
GlyphClass: 1
Flags: W
LayerCount: 2
Fore
SplineSet
129 0 m 1,0,-1
 660 0 l 2,1,2
 780 0 780 0 876 27 c 128,-1,3
 972 54 972 54 1039 108 c 256,4,5
 1106 162 1106 162 1142 242 c 128,-1,6
 1178 322 1178 322 1178 427 c 0,7,8
 1178 482 1178 482 1163.5 533.5 c 128,-1,9
 1149 585 1149 585 1119 629 c 0,10,11
 1090 670 1090 670 1047.5 701 c 128,-1,12
 1005 732 1005 732 933 752 c 1,13,-1
 933 753 l 1,14,15
 970 767 970 767 1000.5 787 c 128,-1,16
 1031 807 1031 807 1055 831 c 0,17,18
 1099 875 1099 875 1121.5 933.5 c 128,-1,19
 1144 992 1144 992 1145 1058 c 0,20,21
 1145 1160 1145 1160 1107.5 1235 c 128,-1,22
 1070 1310 1070 1310 1001 1359 c 256,23,24
 932 1408 932 1408 834.5 1432 c 128,-1,25
 737 1456 737 1456 618 1456 c 2,26,-1
 129 1456 l 1,27,-1
 129 0 l 1,0,-1
411 642 m 1,28,-1
 673 642 l 2,29,30
 732 641 732 641 775 626 c 128,-1,31
 818 611 818 611 845 583 c 0,32,33
 872 556 872 556 884.5 517 c 128,-1,34
 897 478 897 478 897 429 c 0,35,36
 897 382 897 382 880.5 344 c 128,-1,37
 864 306 864 306 832 279 c 0,38,39
 803 255 803 255 759.5 241 c 128,-1,40
 716 227 716 227 661 227 c 2,41,-1
 411 227 l 1,42,-1
 411 642 l 1,28,-1
411 845 m 1,43,-1
 411 1227 l 1,44,-1
 619 1227 l 2,45,46
 687 1226 687 1226 737.5 1212 c 128,-1,47
 788 1198 788 1198 818 1167 c 0,48,49
 841 1145 841 1145 852.5 1112 c 128,-1,50
 864 1079 864 1079 864 1035 c 0,51,52
 864 993 864 993 850.5 960 c 128,-1,53
 837 927 837 927 812 904 c 0,54,55
 782 875 782 875 733 860.5 c 128,-1,56
 684 846 684 846 620 845 c 2,57,-1
 411 845 l 1,43,-1
EndSplineSet
Substitution2: "'smcp' Lowercase to Small Capitals lookup 0 subtable" B.smcp
EndChar

StartChar: C
Encoding: 67 67 38
Width: 1229
GlyphClass: 1
Flags: W
LayerCount: 2
Fore
SplineSet
1142 456 m 1,0,-1
 861 456 l 1,1,2
 857 390 857 390 839 343 c 128,-1,3
 821 296 821 296 790 266 c 256,4,5
 759 236 759 236 715 222 c 128,-1,6
 671 208 671 208 616 208 c 0,7,8
 575 208 575 208 541.5 217.5 c 128,-1,9
 508 227 508 227 481 247 c 0,10,11
 456 265 456 265 436.5 292 c 128,-1,12
 417 319 417 319 403 354 c 0,13,14
 383 405 383 405 373.5 473.5 c 128,-1,15
 364 542 364 542 364 629 c 2,16,-1
 364 827 l 2,17,18
 364 891 364 891 370 946.5 c 128,-1,19
 376 1002 376 1002 389 1048 c 0,20,21
 406 1107 406 1107 434.5 1151.5 c 128,-1,22
 463 1196 463 1196 504 1220 c 0,23,24
 528 1234 528 1234 556.5 1241 c 128,-1,25
 585 1248 585 1248 618 1248 c 0,26,27
 680 1248 680 1248 724.5 1231.5 c 128,-1,28
 769 1215 769 1215 799 1183 c 0,29,30
 828 1150 828 1150 843.5 1101 c 128,-1,31
 859 1052 859 1052 863 987 c 1,32,-1
 1143 987 l 1,33,34
 1133 1101 1133 1101 1095 1192 c 128,-1,35
 1057 1283 1057 1283 991 1346 c 256,36,37
 925 1409 925 1409 831.5 1443 c 128,-1,38
 738 1477 738 1477 618 1477 c 0,39,40
 537 1477 537 1477 466.5 1456.5 c 128,-1,41
 396 1436 396 1436 337 1398 c 0,42,43
 271 1353 271 1353 219 1288 c 128,-1,44
 167 1223 167 1223 135 1140 c 0,45,46
 107 1072 107 1072 93 992.5 c 128,-1,47
 79 913 79 913 79 825 c 2,48,-1
 79 629 l 2,49,50
 79 535 79 535 94.5 451 c 128,-1,51
 110 367 110 367 139 297 c 0,52,53
 169 227 169 227 212.5 169 c 128,-1,54
 256 111 256 111 312 70 c 0,55,56
 373 26 373 26 449.5 2.5 c 128,-1,57
 526 -21 526 -21 616 -21 c 0,58,59
 730 -21 730 -21 824 12.5 c 128,-1,60
 918 46 918 46 986 108 c 256,61,62
 1054 170 1054 170 1094.5 258 c 128,-1,63
 1135 346 1135 346 1142 456 c 1,0,-1
EndSplineSet
Substitution2: "'smcp' Lowercase to Small Capitals lookup 0 subtable" C.smcp
EndChar

StartChar: D
Encoding: 68 68 39
Width: 1229
GlyphClass: 1
Flags: W
LayerCount: 2
Fore
SplineSet
125 0 m 1,0,-1
 516 0 l 2,1,2
 613 0 613 0 698.5 24 c 128,-1,3
 784 48 784 48 855 93 c 0,4,5
 916 131 916 131 967 187.5 c 128,-1,6
 1018 244 1018 244 1056 311 c 0,7,8
 1096 386 1096 386 1118 476 c 128,-1,9
 1140 566 1140 566 1140 667 c 2,10,-1
 1140 787 l 2,11,12
 1140 892 1140 892 1116.5 985 c 128,-1,13
 1093 1078 1093 1078 1050 1155 c 0,14,15
 1013 1218 1013 1218 963.5 1271.5 c 128,-1,16
 914 1325 914 1325 851 1362 c 0,17,18
 779 1407 779 1407 691 1431.5 c 128,-1,19
 603 1456 603 1456 502 1456 c 2,20,-1
 125 1456 l 1,21,-1
 125 0 l 1,0,-1
408 1228 m 1,22,-1
 502 1228 l 2,23,24
 553 1228 553 1228 596.5 1216.5 c 128,-1,25
 640 1205 640 1205 676 1184 c 0,26,27
 723 1156 723 1156 758.5 1112 c 128,-1,28
 794 1068 794 1068 816 1012 c 0,29,30
 834 965 834 965 843.5 908.5 c 128,-1,31
 853 852 853 852 853 789 c 2,32,-1
 853 667 l 2,33,34
 853 600 853 600 843.5 542.5 c 128,-1,35
 834 485 834 485 816 438 c 0,36,37
 794 384 794 384 763.5 343.5 c 128,-1,38
 733 303 733 303 695 277 c 0,39,40
 658 252 658 252 613 239 c 128,-1,41
 568 226 568 226 516 226 c 2,42,-1
 408 226 l 1,43,-1
 408 1228 l 1,22,-1
EndSplineSet
Substitution2: "'smcp' Lowercase to Small Capitals lookup 0 subtable" D.smcp
EndChar

StartChar: E
Encoding: 69 69 40
Width: 1229
GlyphClass: 1
Flags: W
LayerCount: 2
Fore
SplineSet
1027 638 m 1,0,-1
 1027 860 l 1,1,-1
 429 860 l 1,2,-1
 429 1227 l 1,3,-1
 1125 1227 l 1,4,-1
 1125 1456 l 1,5,-1
 147 1456 l 1,6,-1
 147 0 l 1,7,-1
 1128 0 l 1,8,-1
 1128 227 l 1,9,-1
 429 227 l 1,10,-1
 429 638 l 1,11,-1
 1027 638 l 1,0,-1
EndSplineSet
Substitution2: "'smcp' Lowercase to Small Capitals lookup 0 subtable" E.smcp
EndChar

StartChar: F
Encoding: 70 70 41
Width: 1229
GlyphClass: 1
Flags: W
LayerCount: 2
Fore
SplineSet
1055 603 m 1,0,-1
 1055 831 l 1,1,-1
 431 831 l 1,2,-1
 431 1227 l 1,3,-1
 1133 1227 l 1,4,-1
 1133 1456 l 1,5,-1
 149 1456 l 1,6,-1
 149 0 l 1,7,-1
 431 0 l 1,8,-1
 431 603 l 1,9,-1
 1055 603 l 1,0,-1
EndSplineSet
Substitution2: "'smcp' Lowercase to Small Capitals lookup 0 subtable" F.smcp
EndChar

StartChar: G
Encoding: 71 71 42
Width: 1229
GlyphClass: 1
Flags: W
LayerCount: 2
Fore
SplineSet
1132 170 m 1,0,-1
 1131 744 l 1,1,-1
 610 744 l 1,2,-1
 610 534 l 1,3,-1
 851 534 l 1,4,-1
 850 270 l 1,5,6
 839 257 839 257 817.5 245.5 c 128,-1,7
 796 234 796 234 768 225 c 256,8,9
 740 216 740 216 708 211 c 128,-1,10
 676 206 676 206 643 206 c 0,11,12
 589 207 589 207 546.5 223.5 c 128,-1,13
 504 240 504 240 472 272 c 0,14,15
 453 291 453 291 437.5 315.5 c 128,-1,16
 422 340 422 340 410 369 c 0,17,18
 391 419 391 419 380.5 484 c 128,-1,19
 370 549 370 549 370 628 c 2,20,-1
 370 828 l 2,21,22
 370 891 370 891 377.5 945 c 128,-1,23
 385 999 385 999 399 1043 c 0,24,25
 417 1100 417 1100 444.5 1142 c 128,-1,26
 472 1184 472 1184 506 1210 c 0,27,28
 532 1229 532 1229 562 1239 c 128,-1,29
 592 1249 592 1249 624 1249 c 0,30,31
 683 1249 683 1249 725.5 1233.5 c 128,-1,32
 768 1218 768 1218 796 1187 c 0,33,34
 821 1159 821 1159 835.5 1118 c 128,-1,35
 850 1077 850 1077 857 1024 c 1,36,-1
 1131 1024 l 1,37,38
 1120 1129 1120 1129 1084.5 1213 c 128,-1,39
 1049 1297 1049 1297 986 1356 c 0,40,41
 923 1414 923 1414 831.5 1445 c 128,-1,42
 740 1476 740 1476 617 1476 c 0,43,44
 537 1476 537 1476 465 1454 c 128,-1,45
 393 1432 393 1432 332 1389 c 0,46,47
 280 1351 280 1351 236.5 1299 c 128,-1,48
 193 1247 193 1247 160 1182 c 0,49,50
 125 1109 125 1109 106 1019.5 c 128,-1,51
 87 930 87 930 87 826 c 2,52,-1
 87 628 l 2,53,54
 87 519 87 519 106.5 426 c 128,-1,55
 126 333 126 333 164 259 c 0,56,57
 197 192 197 192 244.5 140 c 128,-1,58
 292 88 292 88 350 52 c 0,59,60
 409 17 409 17 479.5 -1.5 c 128,-1,61
 550 -20 550 -20 630 -20 c 0,62,63
 722 -20 722 -20 802 -3 c 128,-1,64
 882 14 882 14 947 42 c 0,65,66
 1011 69 1011 69 1058 103 c 128,-1,67
 1105 137 1105 137 1132 170 c 1,0,-1
EndSplineSet
Substitution2: "'smcp' Lowercase to Small Capitals lookup 0 subtable" G.smcp
EndChar

StartChar: H
Encoding: 72 72 43
Width: 1229
GlyphClass: 1
Flags: W
LayerCount: 2
Fore
SplineSet
1092 0 m 1,0,-1
 1092 1456 l 1,1,-1
 814 1456 l 1,2,-1
 814 859 l 1,3,-1
 402 859 l 1,4,-1
 402 1456 l 1,5,-1
 123 1456 l 1,6,-1
 123 0 l 1,7,-1
 402 0 l 1,8,-1
 402 631 l 1,9,-1
 814 631 l 1,10,-1
 814 0 l 1,11,-1
 1092 0 l 1,0,-1
EndSplineSet
Substitution2: "'smcp' Lowercase to Small Capitals lookup 0 subtable" H.smcp
EndChar

StartChar: I
Encoding: 73 73 44
Width: 1229
GlyphClass: 1
Flags: W
LayerCount: 2
Fore
SplineSet
193 1456 m 1,0,-1
 193 1229 l 1,1,-1
 470 1229 l 1,2,-1
 470 226 l 1,3,-1
 193 226 l 1,4,-1
 193 0 l 1,5,-1
 1035 0 l 1,6,-1
 1035 226 l 1,7,-1
 751 226 l 1,8,-1
 751 1229 l 1,9,-1
 1035 1229 l 1,10,-1
 1035 1456 l 1,11,-1
 193 1456 l 1,0,-1
EndSplineSet
Substitution2: "'smcp' Lowercase to Small Capitals lookup 0 subtable" I.smcp
EndChar

StartChar: J
Encoding: 74 74 45
Width: 1229
GlyphClass: 1
Flags: W
LayerCount: 2
Fore
SplineSet
818 1456 m 1,0,-1
 818 447 l 2,1,2
 818 396 818 396 802.5 351.5 c 128,-1,3
 787 307 787 307 759 275 c 256,4,5
 731 243 731 243 691 224.5 c 128,-1,6
 651 206 651 206 603 206 c 0,7,8
 543 206 543 206 501 222 c 128,-1,9
 459 238 459 238 433 271 c 0,10,11
 413 298 413 298 403 337 c 128,-1,12
 393 376 393 376 393 428 c 1,13,-1
 111 428 l 1,14,15
 112 315 112 315 148 231 c 128,-1,16
 184 147 184 147 249 92 c 0,17,18
 313 36 313 36 403 8 c 128,-1,19
 493 -20 493 -20 603 -20 c 0,20,21
 707 -20 707 -20 797.5 14 c 128,-1,22
 888 48 888 48 955 110 c 256,23,24
 1022 172 1022 172 1060.5 257.5 c 128,-1,25
 1099 343 1099 343 1100 447 c 2,26,-1
 1099 1456 l 1,27,-1
 818 1456 l 1,0,-1
EndSplineSet
Substitution2: "'smcp' Lowercase to Small Capitals lookup 0 subtable" J.smcp
EndChar

StartChar: K
Encoding: 75 75 46
Width: 1229
GlyphClass: 1
Flags: W
LayerCount: 2
Fore
SplineSet
565 598 m 1,0,-1
 925 0 l 1,1,-1
 1259 0 l 1,2,-1
 751 812 l 1,3,-1
 1241 1456 l 1,4,-1
 897 1456 l 1,5,-1
 543 967 l 1,6,-1
 411 789 l 1,7,-1
 411 1456 l 1,8,-1
 129 1456 l 1,9,-1
 129 0 l 1,10,-1
 411 0 l 1,11,-1
 411 429 l 1,12,-1
 565 598 l 1,0,-1
EndSplineSet
Substitution2: "'smcp' Lowercase to Small Capitals lookup 0 subtable" K.smcp
EndChar

StartChar: L
Encoding: 76 76 47
Width: 1229
GlyphClass: 1
Flags: W
LayerCount: 2
Fore
SplineSet
432 227 m 1,0,-1
 432 1456 l 1,1,-1
 150 1456 l 1,2,-1
 150 0 l 1,3,-1
 1114 0 l 1,4,-1
 1114 227 l 1,5,-1
 432 227 l 1,0,-1
EndSplineSet
Substitution2: "'smcp' Lowercase to Small Capitals lookup 0 subtable" L.smcp
EndChar

StartChar: M
Encoding: 77 77 48
Width: 1229
GlyphClass: 1
Flags: W
LayerCount: 2
Fore
SplineSet
476 1456 m 1,0,-1
 127 1456 l 1,1,-1
 127 0 l 1,2,-1
 385 0 l 1,3,-1
 385 431 l 1,4,-1
 373 1085 l 1,5,-1
 544 480 l 1,6,-1
 683 480 l 1,7,-1
 874 1112 l 1,8,-1
 862 431 l 1,9,-1
 862 0 l 1,10,-1
 1120 0 l 1,11,-1
 1120 1456 l 1,12,-1
 771 1456 l 1,13,-1
 614 909 l 1,14,-1
 476 1456 l 1,0,-1
EndSplineSet
Substitution2: "'smcp' Lowercase to Small Capitals lookup 0 subtable" M.smcp
EndChar

StartChar: N
Encoding: 78 78 49
Width: 1229
GlyphClass: 1
Flags: W
LayerCount: 2
Fore
SplineSet
1091 0 m 1,0,-1
 1091 1456 l 1,1,-1
 809 1456 l 1,2,-1
 808 521 l 1,3,-1
 406 1456 l 1,4,-1
 123 1456 l 1,5,-1
 123 0 l 1,6,-1
 406 0 l 1,7,-1
 406 939 l 1,8,-1
 811 0 l 1,9,-1
 1091 0 l 1,0,-1
EndSplineSet
Substitution2: "'smcp' Lowercase to Small Capitals lookup 0 subtable" N.smcp
EndChar

StartChar: O
Encoding: 79 79 50
Width: 1229
GlyphClass: 1
Flags: W
LayerCount: 2
Fore
SplineSet
1147 621 m 2,0,-1
 1147 833 l 2,1,2
 1147 932 1147 932 1128.5 1020 c 128,-1,3
 1110 1108 1110 1108 1075 1182 c 0,4,5
 1043 1247 1043 1247 998.5 1301 c 128,-1,6
 954 1355 954 1355 895 1393 c 0,7,8
 836 1433 836 1433 762.5 1454.5 c 128,-1,9
 689 1476 689 1476 605 1476 c 0,10,11
 522 1476 522 1476 451 1455 c 128,-1,12
 380 1434 380 1434 323 1395 c 0,13,14
 265 1355 265 1355 220.5 1299 c 128,-1,15
 176 1243 176 1243 145 1174 c 0,16,17
 113 1101 113 1101 96.5 1015 c 128,-1,18
 80 929 80 929 80 833 c 2,19,-1
 80 621 l 2,20,21
 80 531 80 531 94.5 450 c 128,-1,22
 109 369 109 369 137 300 c 0,23,24
 168 225 168 225 214 165.5 c 128,-1,25
 260 106 260 106 318 64 c 0,26,27
 377 24 377 24 449 2 c 128,-1,28
 521 -20 521 -20 606 -20 c 0,29,30
 686 -20 686 -20 755.5 -0.5 c 128,-1,31
 825 19 825 19 883 54 c 0,32,33
 947 94 947 94 997 154 c 128,-1,34
 1047 214 1047 214 1081 286 c 0,35,36
 1113 358 1113 358 1130 442.5 c 128,-1,37
 1147 527 1147 527 1147 621 c 2,0,-1
862 835 m 2,38,-1
 862 621 l 2,39,40
 862 567 862 567 856.5 517 c 128,-1,41
 851 467 851 467 840 425 c 0,42,43
 826 371 826 371 802.5 328.5 c 128,-1,44
 779 286 779 286 745 258 c 0,45,46
 718 235 718 235 683 223 c 128,-1,47
 648 211 648 211 606 211 c 0,48,49
 562 211 562 211 527.5 224 c 128,-1,50
 493 237 493 237 466 261 c 0,51,52
 437 288 437 288 415.5 331.5 c 128,-1,53
 394 375 394 375 383 428 c 0,54,55
 373 470 373 470 369 519 c 128,-1,56
 365 568 365 568 365 621 c 2,57,-1
 365 835 l 2,58,59
 365 891 365 891 369.5 942 c 128,-1,60
 374 993 374 993 384 1036 c 0,61,62
 397 1092 397 1092 420.5 1134 c 128,-1,63
 444 1176 444 1176 478 1204 c 0,64,65
 503 1223 503 1223 534.5 1233 c 128,-1,66
 566 1243 566 1243 605 1243 c 0,67,68
 646 1243 646 1243 679.5 1232 c 128,-1,69
 713 1221 713 1221 740 1201 c 0,70,71
 774 1174 774 1174 799 1131.5 c 128,-1,72
 824 1089 824 1089 839 1035 c 0,73,74
 851 992 851 992 856.5 941.5 c 128,-1,75
 862 891 862 891 862 835 c 2,38,-1
EndSplineSet
Substitution2: "'smcp' Lowercase to Small Capitals lookup 0 subtable" O.smcp
EndChar

StartChar: P
Encoding: 80 80 51
Width: 1229
GlyphClass: 1
Flags: W
LayerCount: 2
Fore
SplineSet
430 534 m 1,0,-1
 647 534 l 2,1,2
 766 534 766 534 862 568 c 128,-1,3
 958 602 958 602 1026 663 c 0,4,5
 1093 723 1093 723 1129.5 806 c 128,-1,6
 1166 889 1166 889 1166 987 c 0,7,8
 1166 1092 1166 1092 1129.5 1178 c 128,-1,9
 1093 1264 1093 1264 1026 1326 c 0,10,11
 958 1387 958 1387 862 1421.5 c 128,-1,12
 766 1456 766 1456 647 1456 c 2,13,-1
 149 1456 l 1,14,-1
 149 0 l 1,15,-1
 430 0 l 1,16,-1
 430 534 l 1,0,-1
430 762 m 1,17,-1
 430 1228 l 1,18,-1
 647 1228 l 2,19,20
 707 1228 707 1228 751 1209 c 128,-1,21
 795 1190 795 1190 825 1157 c 0,22,23
 854 1124 854 1124 868.5 1080 c 128,-1,24
 883 1036 883 1036 883 985 c 0,25,26
 883 941 883 941 868.5 900.5 c 128,-1,27
 854 860 854 860 825 829 c 0,28,29
 795 798 795 798 751 780 c 128,-1,30
 707 762 707 762 647 762 c 2,31,-1
 430 762 l 1,17,-1
EndSplineSet
Substitution2: "'smcp' Lowercase to Small Capitals lookup 0 subtable" P.smcp
EndChar

StartChar: Q
Encoding: 81 81 52
Width: 1229
GlyphClass: 1
Flags: W
LayerCount: 2
Fore
SplineSet
1156 577 m 2,0,-1
 1156 829 l 2,1,2
 1156 906 1156 906 1145 976.5 c 128,-1,3
 1134 1047 1134 1047 1112 1109 c 0,4,5
 1082 1197 1082 1197 1030 1268 c 128,-1,6
 978 1339 978 1339 909 1388 c 0,7,8
 848 1430 848 1430 773 1453 c 128,-1,9
 698 1476 698 1476 612 1476 c 256,10,11
 526 1476 526 1476 453 1453 c 128,-1,12
 380 1430 380 1430 321 1388 c 0,13,14
 256 1342 256 1342 209 1276.5 c 128,-1,15
 162 1211 162 1211 134 1130 c 0,16,17
 110 1065 110 1065 97.5 988.5 c 128,-1,18
 85 912 85 912 85 829 c 2,19,-1
 85 577 l 2,20,21
 85 505 85 505 98 436.5 c 128,-1,22
 111 368 111 368 136 307 c 0,23,24
 164 237 164 237 209.5 176 c 128,-1,25
 255 115 255 115 316 71 c 0,26,27
 376 28 376 28 450 4 c 128,-1,28
 524 -20 524 -20 612 -20 c 0,29,30
 651 -20 651 -20 687.5 -15 c 128,-1,31
 724 -10 724 -10 759 -1 c 1,32,-1
 1036 -257 l 1,33,-1
 1217 -96 l 1,34,-1
 976 122 l 1,35,36
 1015 159 1015 159 1045.5 203.5 c 128,-1,37
 1076 248 1076 248 1098 297 c 0,38,39
 1126 360 1126 360 1140.5 431 c 128,-1,40
 1155 502 1155 502 1156 577 c 2,0,-1
871 831 m 2,41,-1
 871 577 l 2,42,43
 871 537 871 537 866 497.5 c 128,-1,44
 861 458 861 458 851 421 c 0,45,46
 837 372 837 372 812.5 329 c 128,-1,47
 788 286 788 286 753 257 c 0,48,49
 725 236 725 236 690 223.5 c 128,-1,50
 655 211 655 211 612 211 c 0,51,52
 570 211 570 211 536.5 223 c 128,-1,53
 503 235 503 235 478 257 c 0,54,55
 443 286 443 286 420 330 c 128,-1,56
 397 374 397 374 385 428 c 0,57,58
 377 463 377 463 373.5 501 c 128,-1,59
 370 539 370 539 370 577 c 2,60,-1
 370 831 l 2,61,62
 370 876 370 876 373 917.5 c 128,-1,63
 376 959 376 959 382 996 c 0,64,65
 392 1060 392 1060 414.5 1111.5 c 128,-1,66
 437 1163 437 1163 475 1196 c 0,67,68
 501 1219 501 1219 535 1231 c 128,-1,69
 569 1243 569 1243 612 1243 c 0,70,71
 657 1243 657 1243 693.5 1230 c 128,-1,72
 730 1217 730 1217 758 1194 c 0,73,74
 787 1167 787 1167 810 1128.5 c 128,-1,75
 833 1090 833 1090 845 1043 c 0,76,77
 859 998 859 998 865 944 c 128,-1,78
 871 890 871 890 871 831 c 2,41,-1
EndSplineSet
Substitution2: "'smcp' Lowercase to Small Capitals lookup 0 subtable" Q.smcp
EndChar

StartChar: R
Encoding: 82 82 53
Width: 1229
GlyphClass: 1
Flags: W
LayerCount: 2
Fore
SplineSet
625 544 m 1,0,-1
 899 0 l 1,1,-1
 1200 0 l 1,2,-1
 1200 13 l 1,3,-1
 887 614 l 1,4,5
 947 641 947 641 995.5 678 c 128,-1,6
 1044 715 1044 715 1079 765 c 0,7,8
 1113 814 1113 814 1131.5 876.5 c 128,-1,9
 1150 939 1150 939 1150 1017 c 0,10,11
 1150 1125 1150 1125 1112.5 1207 c 128,-1,12
 1075 1289 1075 1289 1006 1344 c 0,13,14
 936 1399 936 1399 838 1427.5 c 128,-1,15
 740 1456 740 1456 619 1456 c 2,16,-1
 131 1456 l 1,17,-1
 131 0 l 1,18,-1
 412 0 l 1,19,-1
 412 544 l 1,20,-1
 625 544 l 1,0,-1
412 772 m 1,21,-1
 412 1228 l 1,22,-1
 619 1228 l 2,23,24
 677 1228 677 1228 722 1214 c 128,-1,25
 767 1200 767 1200 798 1174 c 0,26,27
 833 1145 833 1145 850.5 1100.5 c 128,-1,28
 868 1056 868 1056 868 998 c 0,29,30
 868 950 868 950 854.5 911 c 128,-1,31
 841 872 841 872 815 844 c 0,32,33
 784 809 784 809 734.5 790.5 c 128,-1,34
 685 772 685 772 620 772 c 2,35,-1
 412 772 l 1,21,-1
EndSplineSet
Substitution2: "'smcp' Lowercase to Small Capitals lookup 0 subtable" R.smcp
EndChar

StartChar: S
Encoding: 83 83 54
Width: 1229
GlyphClass: 1
Flags: W
LayerCount: 2
Fore
SplineSet
887 380 m 256,0,1
 887 341 887 341 871 308.5 c 128,-1,2
 855 276 855 276 825 253 c 256,3,4
 795 230 795 230 751.5 217 c 128,-1,5
 708 204 708 204 652 204 c 0,6,7
 589 204 589 204 536.5 218 c 128,-1,8
 484 232 484 232 447 262 c 0,9,10
 409 292 409 292 388 339 c 128,-1,11
 367 386 367 386 365 452 c 1,12,-1
 89 452 l 1,13,14
 89 339 89 339 132.5 255 c 128,-1,15
 176 171 176 171 251 109 c 0,16,17
 330 46 330 46 436.5 13.5 c 128,-1,18
 543 -19 543 -19 652 -19 c 0,19,20
 763 -19 763 -19 857 7.5 c 128,-1,21
 951 34 951 34 1019 86 c 0,22,23
 1087 137 1087 137 1125.5 211.5 c 128,-1,24
 1164 286 1164 286 1164 382 c 0,25,26
 1164 493 1164 493 1113 578 c 128,-1,27
 1062 663 1062 663 976 727 c 0,28,29
 919 766 919 766 851 796 c 128,-1,30
 783 826 783 826 708 847 c 0,31,32
 638 866 638 866 582.5 888 c 128,-1,33
 527 910 527 910 488 937 c 0,34,35
 449 963 449 963 428.5 996 c 128,-1,36
 408 1029 408 1029 408 1070 c 0,37,38
 408 1109 408 1109 423.5 1142.5 c 128,-1,39
 439 1176 439 1176 469 1201 c 0,40,41
 499 1225 499 1225 542.5 1238.5 c 128,-1,42
 586 1252 586 1252 642 1252 c 0,43,44
 703 1252 703 1252 748.5 1235.5 c 128,-1,45
 794 1219 794 1219 825 1190 c 0,46,47
 855 1160 855 1160 870.5 1119 c 128,-1,48
 886 1078 886 1078 888 1029 c 1,49,-1
 1162 1029 l 1,50,51
 1162 1127 1162 1127 1124 1209 c 128,-1,52
 1086 1291 1086 1291 1018 1351 c 0,53,54
 950 1410 950 1410 855.5 1443 c 128,-1,55
 761 1476 761 1476 647 1476 c 0,56,57
 537 1476 537 1476 443 1447.5 c 128,-1,58
 349 1419 349 1419 280 1366 c 256,59,60
 211 1313 211 1313 172 1238 c 128,-1,61
 133 1163 133 1163 133 1071 c 0,62,63
 133 991 133 991 162.5 923 c 128,-1,64
 192 855 192 855 250 799 c 256,65,66
 308 743 308 743 399.5 696 c 128,-1,67
 491 649 491 649 612 616 c 0,68,69
 690 595 690 595 742.5 570.5 c 128,-1,70
 795 546 795 546 828 517 c 0,71,72
 860 487 860 487 873.5 453 c 128,-1,73
 887 419 887 419 887 380 c 256,0,1
EndSplineSet
Substitution2: "'smcp' Lowercase to Small Capitals lookup 0 subtable" S.smcp
EndChar

StartChar: T
Encoding: 84 84 55
Width: 1229
GlyphClass: 1
Flags: W
LayerCount: 2
Fore
SplineSet
1201 1227 m 1,0,-1
 1201 1456 l 1,1,-1
 27 1456 l 1,2,-1
 27 1227 l 1,3,-1
 470 1227 l 1,4,-1
 470 0 l 1,5,-1
 752 0 l 1,6,-1
 752 1227 l 1,7,-1
 1201 1227 l 1,0,-1
EndSplineSet
Substitution2: "'smcp' Lowercase to Small Capitals lookup 0 subtable" T.smcp
EndChar

StartChar: U
Encoding: 85 85 56
Width: 1229
GlyphClass: 1
Flags: W
LayerCount: 2
Fore
SplineSet
1101 1456 m 1,0,-1
 822 1456 l 1,1,-1
 821 491 l 2,2,3
 820 420 820 420 806 366 c 128,-1,4
 792 312 792 312 764 276 c 0,5,6
 738 241 738 241 698.5 223.5 c 128,-1,7
 659 206 659 206 608 206 c 0,8,9
 561 206 561 206 525 222.5 c 128,-1,10
 489 239 489 239 464 272 c 0,11,12
 437 308 437 308 423.5 363 c 128,-1,13
 410 418 410 418 409 491 c 2,14,-1
 408 1456 l 1,15,-1
 127 1456 l 1,16,-1
 126 491 l 2,17,18
 126 369 126 369 160.5 273.5 c 128,-1,19
 195 178 195 178 258 113 c 256,20,21
 321 48 321 48 409.5 14 c 128,-1,22
 498 -20 498 -20 608 -20 c 0,23,24
 725 -20 725 -20 816.5 14 c 128,-1,25
 908 48 908 48 972 114 c 0,26,27
 1035 179 1035 179 1068.5 274 c 128,-1,28
 1102 369 1102 369 1102 491 c 2,29,-1
 1101 1456 l 1,0,-1
EndSplineSet
Substitution2: "'smcp' Lowercase to Small Capitals lookup 0 subtable" U.smcp
EndChar

StartChar: V
Encoding: 86 86 57
Width: 1229
GlyphClass: 1
Flags: W
LayerCount: 2
Fore
SplineSet
471 0 m 1,0,-1
 757 0 l 1,1,-1
 1198 1456 l 1,2,-1
 888 1456 l 1,3,-1
 640 506 l 1,4,-1
 613 407 l 1,5,-1
 588 505 l 1,6,-1
 341 1456 l 1,7,-1
 31 1456 l 1,8,-1
 471 0 l 1,0,-1
EndSplineSet
Substitution2: "'smcp' Lowercase to Small Capitals lookup 0 subtable" V.smcp
EndChar

StartChar: W
Encoding: 87 87 58
Width: 1229
GlyphClass: 1
Flags: W
LayerCount: 2
Fore
SplineSet
226 0 m 1,0,-1
 480 0 l 1,1,-1
 602 786 l 1,2,-1
 613 860 l 1,3,-1
 624 786 l 1,4,-1
 751 0 l 1,5,-1
 1005 0 l 1,6,-1
 1207 1456 l 1,7,-1
 949 1456 l 1,8,-1
 850 640 l 1,9,-1
 843 579 l 1,10,-1
 834 639 l 1,11,-1
 712 1456 l 1,12,-1
 511 1456 l 1,13,-1
 396 645 l 1,14,-1
 387 585 l 1,15,-1
 380 642 l 1,16,-1
 283 1456 l 1,17,-1
 26 1456 l 1,18,-1
 226 0 l 1,0,-1
EndSplineSet
Substitution2: "'smcp' Lowercase to Small Capitals lookup 0 subtable" W.smcp
EndChar

StartChar: X
Encoding: 88 88 59
Width: 1229
GlyphClass: 1
Flags: W
LayerCount: 2
Fore
SplineSet
624 934 m 1,0,-1
 369 1456 l 1,1,-1
 41 1456 l 1,2,-1
 450 734 l 1,3,-1
 30 0 l 1,4,-1
 362 0 l 1,5,-1
 628 530 l 1,6,-1
 895 0 l 1,7,-1
 1223 0 l 1,8,-1
 803 734 l 1,9,-1
 1213 1456 l 1,10,-1
 883 1456 l 1,11,-1
 624 934 l 1,0,-1
EndSplineSet
Substitution2: "'smcp' Lowercase to Small Capitals lookup 0 subtable" X.smcp
EndChar

StartChar: Y
Encoding: 89 89 60
Width: 1229
GlyphClass: 1
Flags: W
LayerCount: 2
Fore
SplineSet
628 785 m 1,0,-1
 341 1456 l 1,1,-1
 33 1456 l 1,2,-1
 484 516 l 1,3,-1
 485 0 l 1,4,-1
 765 0 l 1,5,-1
 766 504 l 1,6,-1
 1224 1456 l 1,7,-1
 915 1456 l 1,8,-1
 628 785 l 1,0,-1
EndSplineSet
Substitution2: "'smcp' Lowercase to Small Capitals lookup 0 subtable" Y.smcp
EndChar

StartChar: Z
Encoding: 90 90 61
Width: 1229
GlyphClass: 1
Flags: W
LayerCount: 2
Fore
SplineSet
431 227 m 1,0,-1
 1136 1289 l 1,1,-1
 1135 1456 l 1,2,-1
 91 1456 l 1,3,-1
 91 1227 l 1,4,-1
 795 1227 l 1,5,-1
 89 172 l 1,6,-1
 89 0 l 1,7,-1
 1153 0 l 1,8,-1
 1153 227 l 1,9,-1
 431 227 l 1,0,-1
EndSplineSet
Substitution2: "'smcp' Lowercase to Small Capitals lookup 0 subtable" Z.smcp
EndChar

StartChar: bracketleft
Encoding: 91 91 62
Width: 1229
GlyphClass: 1
Flags: W
LayerCount: 2
Fore
SplineSet
847 1475 m 1,0,-1
 847 1690 l 1,1,-1
 400 1690 l 1,2,-1
 400 -335 l 1,3,-1
 847 -335 l 1,4,-1
 847 -120 l 1,5,-1
 677 -120 l 1,6,-1
 677 1475 l 1,7,-1
 847 1475 l 1,0,-1
EndSplineSet
EndChar

StartChar: backslash
Encoding: 92 92 63
Width: 1229
GlyphClass: 1
Flags: W
LayerCount: 2
Fore
SplineSet
240 1456 m 1,0,-1
 785 -125 l 1,1,-1
 1045 -125 l 1,2,-1
 500 1456 l 1,3,-1
 240 1456 l 1,0,-1
EndSplineSet
EndChar

StartChar: bracketright
Encoding: 93 93 64
Width: 1229
GlyphClass: 1
Flags: W
LayerCount: 2
Fore
SplineSet
400 1690 m 1,0,-1
 400 1475 l 1,1,-1
 571 1475 l 1,2,-1
 571 -120 l 1,3,-1
 400 -120 l 1,4,-1
 400 -335 l 1,5,-1
 848 -335 l 1,6,-1
 848 1690 l 1,7,-1
 400 1690 l 1,0,-1
EndSplineSet
EndChar

StartChar: asciicircum
Encoding: 94 94 65
Width: 1229
GlyphClass: 1
Flags: W
LayerCount: 2
Fore
SplineSet
213 687 m 1,0,-1
 437 687 l 1,1,-1
 610 1141 l 1,2,-1
 631 1225 l 1,3,-1
 652 1141 l 1,4,-1
 828 687 l 1,5,-1
 1051 687 l 1,6,-1
 733 1456 l 1,7,-1
 532 1456 l 1,8,-1
 213 687 l 1,0,-1
EndSplineSet
EndChar

StartChar: underscore
Encoding: 95 95 66
Width: 1229
GlyphClass: 1
Flags: W
LayerCount: 2
Fore
SplineSet
1060 -217 m 1,0,-1
 1060 0 l 1,1,-1
 148 0 l 1,2,-1
 148 -217 l 1,3,-1
 1060 -217 l 1,0,-1
EndSplineSet
EndChar

StartChar: grave
Encoding: 96 96 67
Width: 1229
GlyphClass: 1
Flags: W
LayerCount: 2
Fore
SplineSet
894 1199 m 1,0,-1
 717 1478 l 1,1,-1
 411 1478 l 1,2,-1
 675 1199 l 1,3,-1
 894 1199 l 1,0,-1
EndSplineSet
EndChar

StartChar: a
Encoding: 97 97 68
Width: 1229
GlyphClass: 1
Flags: W
LayerCount: 2
Fore
SplineSet
817 0 m 1,0,-1
 1099 0 l 1,1,-1
 1099 17 l 1,2,3
 1078 58 1078 58 1067 115 c 128,-1,4
 1056 172 1056 172 1056 259 c 2,5,-1
 1056 723 l 2,6,7
 1056 817 1056 817 1021 888.5 c 128,-1,8
 986 960 986 960 924 1007 c 256,9,10
 862 1054 862 1054 777.5 1078 c 128,-1,11
 693 1102 693 1102 595 1102 c 0,12,13
 486 1102 486 1102 401.5 1074.5 c 128,-1,14
 317 1047 317 1047 259 1000 c 0,15,16
 200 953 200 953 169.5 891 c 128,-1,17
 139 829 139 829 139 760 c 1,18,-1
 417 760 l 1,19,20
 417 789 417 789 425.5 813 c 128,-1,21
 434 837 434 837 452 854 c 0,22,23
 472 873 472 873 504 883.5 c 128,-1,24
 536 894 536 894 580 894 c 0,25,26
 630 894 630 894 667.5 881.5 c 128,-1,27
 705 869 705 869 730 846 c 0,28,29
 754 824 754 824 766 793.5 c 128,-1,30
 778 763 778 763 778 725 c 2,31,-1
 778 661 l 1,32,-1
 623 661 l 2,33,34
 503 661 503 661 410.5 639.5 c 128,-1,35
 318 618 318 618 255 577 c 0,36,37
 185 532 185 532 150 462.5 c 128,-1,38
 115 393 115 393 115 303 c 0,39,40
 115 233 115 233 143 173.5 c 128,-1,41
 171 114 171 114 221 71 c 256,42,43
 271 28 271 28 340.5 4 c 128,-1,44
 410 -20 410 -20 493 -20 c 0,45,46
 544 -20 544 -20 588 -10.5 c 128,-1,47
 632 -1 632 -1 669 16 c 0,48,49
 705 32 705 32 735 54 c 128,-1,50
 765 76 765 76 788 101 c 1,51,52
 793 72 793 72 800 46 c 128,-1,53
 807 20 807 20 817 0 c 1,0,-1
552 195 m 0,54,55
 513 195 513 195 483.5 204.5 c 128,-1,56
 454 214 454 214 434 230 c 0,57,58
 414 247 414 247 403.5 271.5 c 128,-1,59
 393 296 393 296 393 325 c 0,60,61
 393 362 393 362 407 393.5 c 128,-1,62
 421 425 421 425 450 448 c 0,63,64
 479 470 479 470 525 482.5 c 128,-1,65
 571 495 571 495 636 495 c 2,66,-1
 778 495 l 1,67,-1
 778 309 l 1,68,69
 766 288 766 288 745 267.5 c 128,-1,70
 724 247 724 247 695 231 c 256,71,72
 666 215 666 215 630 205 c 128,-1,73
 594 195 594 195 552 195 c 0,54,55
EndSplineSet
Substitution2: "'smcp' Lowercase to Small Capitals lookup 0 subtable" A.smcp
EndChar

StartChar: b
Encoding: 98 98 69
Width: 1229
GlyphClass: 1
Flags: W
LayerCount: 2
Fore
SplineSet
1116 530 m 2,0,-1
 1116 551 l 2,1,2
 1116 649 1116 649 1098.5 735 c 128,-1,3
 1081 821 1081 821 1045 890 c 0,4,5
 1022 933 1022 933 992 969.5 c 128,-1,6
 962 1006 962 1006 925 1032 c 0,7,8
 879 1066 879 1066 820.5 1084 c 128,-1,9
 762 1102 762 1102 692 1102 c 0,10,11
 641 1102 641 1102 597.5 1091.5 c 128,-1,12
 554 1081 554 1081 517 1060 c 0,13,14
 491 1046 491 1046 468 1026.5 c 128,-1,15
 445 1007 445 1007 425 984 c 1,16,-1
 425 1536 l 1,17,-1
 147 1536 l 1,18,-1
 147 0 l 1,19,-1
 397 0 l 1,20,-1
 410 115 l 1,21,22
 427 93 427 93 446 74.5 c 128,-1,23
 465 56 465 56 487 41 c 0,24,25
 528 11 528 11 579.5 -4.5 c 128,-1,26
 631 -20 631 -20 694 -20 c 0,27,28
 763 -20 763 -20 820.5 -2.5 c 128,-1,29
 878 15 878 15 924 48 c 0,30,31
 975 83 975 83 1012.5 136 c 128,-1,32
 1050 189 1050 189 1073 254 c 0,33,34
 1094 313 1094 313 1105 382.5 c 128,-1,35
 1116 452 1116 452 1116 530 c 2,0,-1
838 551 m 2,36,-1
 838 530 l 2,37,38
 838 488 838 488 834.5 449 c 128,-1,39
 831 410 831 410 823 377 c 0,40,41
 813 332 813 332 793.5 296.5 c 128,-1,42
 774 261 774 261 743 239 c 0,43,44
 721 223 721 223 691 214 c 128,-1,45
 661 205 661 205 624 205 c 0,46,47
 581 205 581 205 547.5 215 c 128,-1,48
 514 225 514 225 489 244 c 0,49,50
 468 259 468 259 452.5 279.5 c 128,-1,51
 437 300 437 300 425 325 c 1,52,-1
 425 756 l 1,53,54
 434 775 434 775 445 791.5 c 128,-1,55
 456 808 456 808 469 821 c 0,56,57
 496 848 496 848 534 862 c 128,-1,58
 572 876 572 876 622 876 c 0,59,60
 659 876 659 876 688 867.5 c 128,-1,61
 717 859 717 859 740 842 c 0,62,63
 775 815 775 815 792.5 782.5 c 128,-1,64
 810 750 810 750 821 709 c 0,65,66
 830 674 830 674 834 634 c 128,-1,67
 838 594 838 594 838 551 c 2,36,-1
EndSplineSet
Substitution2: "'smcp' Lowercase to Small Capitals lookup 0 subtable" B.smcp
EndChar

StartChar: c
Encoding: 99 99 70
Width: 1229
GlyphClass: 1
Flags: W
LayerCount: 2
Fore
SplineSet
620 202 m 0,0,1
 553 202 553 202 509.5 229 c 128,-1,2
 466 256 466 256 441 301 c 0,3,4
 415 345 415 345 405 403.5 c 128,-1,5
 395 462 395 462 395 525 c 2,6,-1
 395 555 l 2,7,8
 395 617 395 617 405.5 675 c 128,-1,9
 416 733 416 733 442 778 c 0,10,11
 467 823 467 823 510 850 c 128,-1,12
 553 877 553 877 619 877 c 0,13,14
 664 877 664 877 702 861.5 c 128,-1,15
 740 846 740 846 767 820 c 256,16,17
 794 794 794 794 808 758 c 128,-1,18
 822 722 822 722 820 682 c 1,19,-1
 1082 682 l 1,20,21
 1084 778 1084 778 1050 855.5 c 128,-1,22
 1016 933 1016 933 955 988 c 0,23,24
 893 1042 893 1042 808 1072 c 128,-1,25
 723 1102 723 1102 623 1102 c 0,26,27
 498 1102 498 1102 403.5 1059 c 128,-1,28
 309 1016 309 1016 245 942 c 256,29,30
 181 868 181 868 149 768.5 c 128,-1,31
 117 669 117 669 117 555 c 2,32,-1
 117 525 l 2,33,34
 117 411 117 411 149.5 311.5 c 128,-1,35
 182 212 182 212 246 138 c 0,36,37
 309 64 309 64 404 21.5 c 128,-1,38
 499 -21 499 -21 625 -21 c 0,39,40
 718 -21 718 -21 801.5 8.5 c 128,-1,41
 885 38 885 38 948 90 c 256,42,43
 1011 142 1011 142 1047.5 214 c 128,-1,44
 1084 286 1084 286 1082 370 c 1,45,-1
 820 370 l 1,46,47
 822 332 822 332 806.5 301 c 128,-1,48
 791 270 791 270 763 248 c 256,49,50
 735 226 735 226 698 214 c 128,-1,51
 661 202 661 202 620 202 c 0,0,1
EndSplineSet
Substitution2: "'smcp' Lowercase to Small Capitals lookup 0 subtable" C.smcp
EndChar

StartChar: d
Encoding: 100 100 71
Width: 1229
GlyphClass: 1
Flags: W
LayerCount: 2
Fore
SplineSet
112 549 m 2,0,-1
 112 528 l 2,1,2
 112 410 112 410 141 309.5 c 128,-1,3
 170 209 170 209 225 136 c 0,4,5
 279 63 279 63 357.5 21.5 c 128,-1,6
 436 -20 436 -20 535 -20 c 0,7,8
 626 -20 626 -20 695 15 c 128,-1,9
 764 50 764 50 815 113 c 1,10,-1
 829 0 l 1,11,-1
 1080 0 l 1,12,-1
 1080 1536 l 1,13,-1
 801 1536 l 1,14,-1
 801 985 l 1,15,16
 751 1041 751 1041 686.5 1071.5 c 128,-1,17
 622 1102 622 1102 537 1102 c 0,18,19
 436 1102 436 1102 357.5 1062 c 128,-1,20
 279 1022 279 1022 224 949 c 256,21,22
 169 876 169 876 140.5 774 c 128,-1,23
 112 672 112 672 112 549 c 2,0,-1
390 528 m 2,24,-1
 390 549 l 2,25,26
 390 617 390 617 402 676.5 c 128,-1,27
 414 736 414 736 440 781 c 0,28,29
 466 825 466 825 507.5 850.5 c 128,-1,30
 549 876 549 876 608 876 c 0,31,32
 679 876 679 876 726 845.5 c 128,-1,33
 773 815 773 815 801 760 c 1,34,-1
 801 322 l 1,35,36
 773 268 773 268 725.5 237 c 128,-1,37
 678 206 678 206 606 206 c 0,38,39
 547 206 547 206 506 231 c 128,-1,40
 465 256 465 256 439 300 c 0,41,42
 413 343 413 343 401.5 401.5 c 128,-1,43
 390 460 390 460 390 528 c 2,24,-1
EndSplineSet
Substitution2: "'smcp' Lowercase to Small Capitals lookup 0 subtable" D.smcp
EndChar

StartChar: e
Encoding: 101 101 72
Width: 1229
GlyphClass: 1
Flags: W
LayerCount: 2
Fore
SplineSet
666 -20 m 0,0,1
 823 -20 823 -20 938 41 c 128,-1,2
 1053 102 1053 102 1106 177 c 1,3,-1
 967 327 l 1,4,5
 919 265 919 265 842 234 c 128,-1,6
 765 203 765 203 683 203 c 0,7,8
 625 203 625 203 576 221 c 128,-1,9
 527 239 527 239 489 272 c 0,10,11
 452 304 452 304 430 343.5 c 128,-1,12
 408 383 408 383 394 448 c 1,13,-1
 394 451 l 1,14,-1
 1128 451 l 1,15,-1
 1128 569 l 2,16,17
 1128 688 1128 688 1095 786.5 c 128,-1,18
 1062 885 1062 885 999 955 c 0,19,20
 935 1025 935 1025 843.5 1063.5 c 128,-1,21
 752 1102 752 1102 635 1102 c 0,22,23
 522 1102 522 1102 426 1061 c 128,-1,24
 330 1020 330 1020 260 946 c 256,25,26
 190 872 190 872 151 769.5 c 128,-1,27
 112 667 112 667 112 543 c 2,28,-1
 112 503 l 2,29,30
 112 394 112 394 151.5 298.5 c 128,-1,31
 191 203 191 203 264 133 c 0,32,33
 337 62 337 62 439 21 c 128,-1,34
 541 -20 541 -20 666 -20 c 0,0,1
633 877 m 0,35,36
 686 877 686 877 726.5 860.5 c 128,-1,37
 767 844 767 844 795 816 c 0,38,39
 823 787 823 787 839 748 c 128,-1,40
 855 709 855 709 855 665 c 2,41,-1
 855 643 l 1,42,-1
 399 643 l 1,43,44
 409 696 409 696 429 739 c 128,-1,45
 449 782 449 782 479 813 c 0,46,47
 508 844 508 844 547 860.5 c 128,-1,48
 586 877 586 877 633 877 c 0,35,36
EndSplineSet
Substitution2: "'smcp' Lowercase to Small Capitals lookup 0 subtable" E.smcp
EndChar

StartChar: f
Encoding: 102 102 73
Width: 1229
GlyphClass: 1
Flags: W
LayerCount: 2
Fore
SplineSet
410 0 m 1,0,-1
 689 0 l 1,1,-1
 689 877 l 1,2,-1
 1079 877 l 1,3,-1
 1079 1082 l 1,4,-1
 689 1082 l 1,5,-1
 689 1141 l 2,6,7
 689 1189 689 1189 701.5 1227 c 128,-1,8
 714 1265 714 1265 740 1291 c 0,9,10
 769 1322 769 1322 818 1338 c 128,-1,11
 867 1354 867 1354 937 1354 c 0,12,13
 1002 1354 1002 1354 1050 1348 c 128,-1,14
 1098 1342 1098 1342 1136 1334 c 1,15,-1
 1154 1552 l 1,16,17
 1120 1558 1120 1558 1088.5 1563 c 128,-1,18
 1057 1568 1057 1568 1026 1572 c 256,19,20
 995 1576 995 1576 962.5 1578.5 c 128,-1,21
 930 1581 930 1581 895 1581 c 0,22,23
 784 1581 784 1581 694 1552.5 c 128,-1,24
 604 1524 604 1524 541 1468 c 256,25,26
 478 1412 478 1412 444 1330 c 128,-1,27
 410 1248 410 1248 410 1141 c 2,28,-1
 410 1082 l 1,29,-1
 126 1082 l 1,30,-1
 126 877 l 1,31,-1
 410 877 l 1,32,-1
 410 0 l 1,0,-1
EndSplineSet
Substitution2: "'smcp' Lowercase to Small Capitals lookup 0 subtable" F.smcp
EndChar

StartChar: g
Encoding: 103 103 74
Width: 1229
GlyphClass: 1
Flags: W
LayerCount: 2
Fore
SplineSet
113 549 m 2,0,-1
 113 528 l 2,1,2
 113 410 113 410 143.5 309.5 c 128,-1,3
 174 209 174 209 231 136 c 256,4,5
 288 63 288 63 368.5 21.5 c 128,-1,6
 449 -20 449 -20 550 -20 c 0,7,8
 601 -20 601 -20 645.5 -9 c 128,-1,9
 690 2 690 2 727 22 c 0,10,11
 752 36 752 36 774 54 c 128,-1,12
 796 72 796 72 816 94 c 1,13,-1
 816 32 l 2,14,15
 816 -23 816 -23 800.5 -67 c 128,-1,16
 785 -111 785 -111 756 -141 c 0,17,18
 724 -174 724 -174 676.5 -191 c 128,-1,19
 629 -208 629 -208 568 -208 c 0,20,21
 530 -208 530 -208 494.5 -200.5 c 128,-1,22
 459 -193 459 -193 426 -178 c 0,23,24
 392 -163 392 -163 361 -139.5 c 128,-1,25
 330 -116 330 -116 303 -85 c 1,26,-1
 178 -254 l 1,27,28
 213 -299 213 -299 262 -331.5 c 128,-1,29
 311 -364 311 -364 366 -385 c 256,30,31
 421 -406 421 -406 477 -416 c 128,-1,32
 533 -426 533 -426 582 -426 c 0,33,34
 696 -426 696 -426 790.5 -395.5 c 128,-1,35
 885 -365 885 -365 953 -306 c 0,36,37
 1020 -247 1020 -247 1057.5 -161 c 128,-1,38
 1095 -75 1095 -75 1095 35 c 2,39,-1
 1095 1082 l 1,40,-1
 842 1082 l 1,41,-1
 831 979 l 1,42,43
 811 1004 811 1004 787 1024.5 c 128,-1,44
 763 1045 763 1045 735 1060 c 0,45,46
 698 1081 698 1081 652.5 1091.5 c 128,-1,47
 607 1102 607 1102 552 1102 c 0,48,49
 450 1102 450 1102 369 1062 c 128,-1,50
 288 1022 288 1022 231 949 c 256,51,52
 174 876 174 876 143.5 774 c 128,-1,53
 113 672 113 672 113 549 c 2,0,-1
392 528 m 2,54,-1
 392 549 l 2,55,56
 392 617 392 617 406 676.5 c 128,-1,57
 420 736 420 736 449 781 c 0,58,59
 477 825 477 825 520 850.5 c 128,-1,60
 563 876 563 876 622 876 c 0,61,62
 654 876 654 876 681.5 870 c 128,-1,63
 709 864 709 864 732 853 c 0,64,65
 759 840 759 840 780 819 c 128,-1,66
 801 798 801 798 816 770 c 1,67,-1
 816 312 l 1,68,69
 802 287 802 287 783 267 c 128,-1,70
 764 247 764 247 739 233 c 0,71,72
 715 220 715 220 685.5 213 c 128,-1,73
 656 206 656 206 620 206 c 0,74,75
 561 206 561 206 518 231 c 128,-1,76
 475 256 475 256 447 300 c 0,77,78
 419 343 419 343 405.5 401.5 c 128,-1,79
 392 460 392 460 392 528 c 2,54,-1
EndSplineSet
Substitution2: "'smcp' Lowercase to Small Capitals lookup 0 subtable" G.smcp
EndChar

StartChar: h
Encoding: 104 104 75
Width: 1229
GlyphClass: 1
Flags: W
LayerCount: 2
Fore
SplineSet
419 933 m 1,0,-1
 419 1536 l 1,1,-1
 141 1536 l 1,2,-1
 141 0 l 1,3,-1
 419 0 l 1,4,-1
 419 781 l 1,5,6
 435 802 435 802 454.5 819 c 128,-1,7
 474 836 474 836 498 848 c 0,8,9
 524 862 524 862 556 869 c 128,-1,10
 588 876 588 876 625 876 c 0,11,12
 673 876 673 876 711 863.5 c 128,-1,13
 749 851 749 851 776 825 c 256,14,15
 803 799 803 799 817.5 757 c 128,-1,16
 832 715 832 715 832 657 c 2,17,-1
 832 0 l 1,18,-1
 1110 0 l 1,19,-1
 1110 655 l 2,20,21
 1110 774 1110 774 1081.5 858.5 c 128,-1,22
 1053 943 1053 943 1002 997 c 256,23,24
 951 1051 951 1051 880 1076.5 c 128,-1,25
 809 1102 809 1102 724 1102 c 0,26,27
 666 1102 666 1102 614 1085 c 128,-1,28
 562 1068 562 1068 519 1037 c 0,29,30
 491 1017 491 1017 465.5 990.5 c 128,-1,31
 440 964 440 964 419 933 c 1,0,-1
EndSplineSet
Substitution2: "'smcp' Lowercase to Small Capitals lookup 0 subtable" H.smcp
EndChar

StartChar: i
Encoding: 105 105 76
Width: 1229
GlyphClass: 1
Flags: W
LayerCount: 2
Fore
SplineSet
215 1082 m 1,0,-1
 215 855 l 1,1,-1
 523 855 l 1,2,-1
 523 226 l 1,3,-1
 215 226 l 1,4,-1
 215 0 l 1,5,-1
 1097 0 l 1,6,-1
 1097 226 l 1,7,-1
 804 226 l 1,8,-1
 804 1082 l 1,9,-1
 215 1082 l 1,0,-1
503 1359 m 256,10,11
 503 1327 503 1327 514.5 1299.5 c 128,-1,12
 526 1272 526 1272 547 1253 c 0,13,14
 568 1233 568 1233 597.5 1222 c 128,-1,15
 627 1211 627 1211 663 1211 c 0,16,17
 737 1211 737 1211 780.5 1252.5 c 128,-1,18
 824 1294 824 1294 824 1359 c 256,19,20
 824 1424 824 1424 780.5 1465.5 c 128,-1,21
 737 1507 737 1507 663 1507 c 0,22,23
 627 1507 627 1507 597.5 1496 c 128,-1,24
 568 1485 568 1485 547 1466 c 0,25,26
 526 1446 526 1446 514.5 1418.5 c 128,-1,27
 503 1391 503 1391 503 1359 c 256,10,11
EndSplineSet
Substitution2: "'smcp' Lowercase to Small Capitals lookup 0 subtable" I.smcp
EndChar

StartChar: j
Encoding: 106 106 77
Width: 1229
GlyphClass: 1
Flags: W
LayerCount: 2
Fore
SplineSet
307 1082 m 1,0,-1
 307 855 l 1,1,-1
 580 855 l 1,2,-1
 580 -25 l 2,3,4
 580 -77 580 -77 565 -111.5 c 128,-1,5
 550 -146 550 -146 525 -167 c 0,6,7
 499 -188 499 -188 463.5 -197 c 128,-1,8
 428 -206 428 -206 388 -206 c 0,9,10
 378 -206 378 -206 357.5 -205.5 c 128,-1,11
 337 -205 337 -205 315 -203 c 0,12,13
 292 -202 292 -202 270.5 -199.5 c 128,-1,14
 249 -197 249 -197 237 -194 c 1,15,-1
 223 -420 l 1,16,17
 241 -424 241 -424 259.5 -427 c 128,-1,18
 278 -430 278 -430 297 -432 c 0,19,20
 323 -435 323 -435 349.5 -436 c 128,-1,21
 376 -437 376 -437 402 -437 c 0,22,23
 511 -437 511 -437 596 -413 c 128,-1,24
 681 -389 681 -389 740 -338 c 0,25,26
 799 -288 799 -288 830 -210.5 c 128,-1,27
 861 -133 861 -133 861 -25 c 2,28,-1
 861 1082 l 1,29,-1
 307 1082 l 1,0,-1
561 1359 m 0,30,31
 561 1295 561 1295 604.5 1253 c 128,-1,32
 648 1211 648 1211 720 1211 c 0,33,34
 794 1211 794 1211 837.5 1252.5 c 128,-1,35
 881 1294 881 1294 881 1359 c 256,36,37
 881 1424 881 1424 837.5 1465.5 c 128,-1,38
 794 1507 794 1507 720 1507 c 256,39,40
 646 1507 646 1507 603.5 1464 c 128,-1,41
 561 1421 561 1421 561 1359 c 0,30,31
EndSplineSet
Substitution2: "'smcp' Lowercase to Small Capitals lookup 0 subtable" J.smcp
EndChar

StartChar: k
Encoding: 107 107 78
Width: 1229
GlyphClass: 1
Flags: W
LayerCount: 2
Fore
SplineSet
548 447 m 1,0,-1
 855 0 l 1,1,-1
 1196 0 l 1,2,-1
 731 631 l 1,3,-1
 1139 1082 l 1,4,-1
 805 1082 l 1,5,-1
 506 754 l 1,6,-1
 422 658 l 1,7,-1
 422 1536 l 1,8,-1
 144 1536 l 1,9,-1
 144 0 l 1,10,-1
 422 0 l 1,11,-1
 422 330 l 1,12,-1
 548 447 l 1,0,-1
EndSplineSet
Substitution2: "'smcp' Lowercase to Small Capitals lookup 0 subtable" K.smcp
EndChar

StartChar: l
Encoding: 108 108 79
Width: 1229
GlyphClass: 1
Flags: W
LayerCount: 2
Fore
SplineSet
199 1536 m 1,0,-1
 199 1309 l 1,1,-1
 523 1309 l 1,2,-1
 523 226 l 1,3,-1
 199 226 l 1,4,-1
 199 0 l 1,5,-1
 1114 0 l 1,6,-1
 1114 226 l 1,7,-1
 804 226 l 1,8,-1
 804 1536 l 1,9,-1
 199 1536 l 1,0,-1
EndSplineSet
Substitution2: "'smcp' Lowercase to Small Capitals lookup 0 subtable" L.smcp
EndChar

StartChar: m
Encoding: 109 109 80
Width: 1229
GlyphClass: 1
Flags: W
LayerCount: 2
Fore
SplineSet
314 1082 m 1,0,-1
 75 1082 l 1,1,-1
 75 0 l 1,2,-1
 328 0 l 1,3,-1
 328 810 l 1,4,5
 333 823 333 823 339 834 c 128,-1,6
 345 845 345 845 353 853 c 0,7,8
 364 864 364 864 378 870 c 128,-1,9
 392 876 392 876 410 876 c 0,10,11
 426 876 426 876 440 871.5 c 128,-1,12
 454 867 454 867 465 856 c 0,13,14
 475 845 475 845 481 825 c 128,-1,15
 487 805 487 805 487 774 c 2,16,-1
 487 0 l 1,17,-1
 732 0 l 1,18,-1
 732 798 l 2,19,20
 732 810 732 810 732 817 c 128,-1,21
 732 824 732 824 732 826 c 0,22,23
 737 837 737 837 744 845.5 c 128,-1,24
 751 854 751 854 760 861 c 0,25,26
 771 868 771 868 783.5 872 c 128,-1,27
 796 876 796 876 812 876 c 0,28,29
 827 876 827 876 841.5 871.5 c 128,-1,30
 856 867 856 867 867 856 c 0,31,32
 878 844 878 844 884.5 824 c 128,-1,33
 891 804 891 804 891 773 c 2,34,-1
 891 0 l 1,35,-1
 1144 0 l 1,36,-1
 1144 772 l 2,37,38
 1144 862 1144 862 1126.5 924.5 c 128,-1,39
 1109 987 1109 987 1078 1027 c 0,40,41
 1046 1066 1046 1066 1003.5 1084 c 128,-1,42
 961 1102 961 1102 912 1102 c 0,43,44
 873 1102 873 1102 840 1092 c 128,-1,45
 807 1082 807 1082 781 1064 c 0,46,47
 760 1050 760 1050 742.5 1030.5 c 128,-1,48
 725 1011 725 1011 711 987 c 1,49,50
 702 1012 702 1012 689.5 1031.5 c 128,-1,51
 677 1051 677 1051 660 1065 c 0,52,53
 638 1084 638 1084 608 1093 c 128,-1,54
 578 1102 578 1102 540 1102 c 0,55,56
 462 1102 462 1102 407.5 1061.5 c 128,-1,57
 353 1021 353 1021 322 951 c 1,58,-1
 314 1082 l 1,0,-1
EndSplineSet
Substitution2: "'smcp' Lowercase to Small Capitals lookup 0 subtable" M.smcp
EndChar

StartChar: n
Encoding: 110 110 81
Width: 1229
GlyphClass: 1
Flags: W
LayerCount: 2
Fore
SplineSet
141 0 m 1,0,-1
 420 0 l 1,1,-1
 420 769 l 1,2,3
 434 791 434 791 451 809 c 128,-1,4
 468 827 468 827 489 840 c 0,5,6
 515 858 515 858 548.5 867 c 128,-1,7
 582 876 582 876 622 876 c 0,8,9
 670 876 670 876 708 866.5 c 128,-1,10
 746 857 746 857 773 833 c 256,11,12
 800 809 800 809 814.5 767.5 c 128,-1,13
 829 726 829 726 829 662 c 2,14,-1
 829 0 l 1,15,-1
 1107 0 l 1,16,-1
 1107 666 l 2,17,18
 1107 784 1107 784 1079.5 866.5 c 128,-1,19
 1052 949 1052 949 1003 1002 c 0,20,21
 953 1054 953 1054 885 1078 c 128,-1,22
 817 1102 817 1102 735 1102 c 0,23,24
 671 1102 671 1102 614 1084 c 128,-1,25
 557 1066 557 1066 509 1032 c 0,26,27
 481 1012 481 1012 456 987 c 128,-1,28
 431 962 431 962 410 932 c 1,29,-1
 393 1082 l 1,30,-1
 141 1082 l 1,31,-1
 141 0 l 1,0,-1
EndSplineSet
Substitution2: "'smcp' Lowercase to Small Capitals lookup 0 subtable" N.smcp
EndChar

StartChar: o
Encoding: 111 111 82
Width: 1229
GlyphClass: 1
Flags: W
LayerCount: 2
Fore
SplineSet
103 551 m 2,0,-1
 103 530 l 2,1,2
 103 411 103 411 137 310.5 c 128,-1,3
 171 210 171 210 237 136 c 0,4,5
 302 62 302 62 397.5 20.5 c 128,-1,6
 493 -21 493 -21 615 -21 c 0,7,8
 736 -21 736 -21 831 20.5 c 128,-1,9
 926 62 926 62 991 136 c 256,10,11
 1056 210 1056 210 1090 310.5 c 128,-1,12
 1124 411 1124 411 1124 530 c 2,13,-1
 1124 551 l 2,14,15
 1124 669 1124 669 1090 769.5 c 128,-1,16
 1056 870 1056 870 991 944 c 0,17,18
 925 1018 925 1018 830 1060 c 128,-1,19
 735 1102 735 1102 613 1102 c 256,20,21
 491 1102 491 1102 396.5 1060 c 128,-1,22
 302 1018 302 1018 237 944 c 0,23,24
 171 870 171 870 137 769.5 c 128,-1,25
 103 669 103 669 103 551 c 2,0,-1
381 530 m 2,26,-1
 381 551 l 2,27,28
 381 617 381 617 394 676 c 128,-1,29
 407 735 407 735 435 780 c 256,30,31
 463 825 463 825 507 851 c 128,-1,32
 551 877 551 877 613 877 c 0,33,34
 676 877 676 877 720 851 c 128,-1,35
 764 825 764 825 792 780 c 0,36,37
 819 735 819 735 832 676 c 128,-1,38
 845 617 845 617 845 551 c 2,39,-1
 845 530 l 2,40,41
 845 462 845 462 832 402.5 c 128,-1,42
 819 343 819 343 792 299 c 0,43,44
 764 254 764 254 720 228 c 128,-1,45
 676 202 676 202 615 202 c 0,46,47
 552 202 552 202 507.5 228 c 128,-1,48
 463 254 463 254 435 299 c 0,49,50
 407 343 407 343 394 402.5 c 128,-1,51
 381 462 381 462 381 530 c 2,26,-1
EndSplineSet
Substitution2: "'smcp' Lowercase to Small Capitals lookup 0 subtable" O.smcp
EndChar

StartChar: p
Encoding: 112 112 83
Width: 1229
GlyphClass: 1
Flags: W
LayerCount: 2
Fore
SplineSet
145 -416 m 1,0,-1
 423 -416 l 1,1,-1
 423 94 l 1,2,3
 442 73 442 73 463 56 c 128,-1,4
 484 39 484 39 507 25 c 0,5,6
 546 3 546 3 591.5 -8.5 c 128,-1,7
 637 -20 637 -20 691 -20 c 0,8,9
 793 -20 793 -20 872 22 c 128,-1,10
 951 64 951 64 1005 138 c 0,11,12
 1058 211 1058 211 1085.5 312 c 128,-1,13
 1113 413 1113 413 1113 531 c 2,14,-1
 1113 552 l 2,15,16
 1113 675 1113 675 1085.5 776.5 c 128,-1,17
 1058 878 1058 878 1004 951 c 0,18,19
 950 1023 950 1023 871 1062.5 c 128,-1,20
 792 1102 792 1102 689 1102 c 0,21,22
 639 1102 639 1102 595.5 1091.5 c 128,-1,23
 552 1081 552 1081 516 1062 c 0,24,25
 486 1046 486 1046 460 1024.5 c 128,-1,26
 434 1003 434 1003 412 976 c 1,27,-1
 402 1082 l 1,28,-1
 145 1082 l 1,29,-1
 145 -416 l 1,0,-1
835 552 m 2,30,-1
 835 531 l 2,31,32
 835 464 835 464 823 404.5 c 128,-1,33
 811 345 811 345 785 300 c 256,34,35
 759 255 759 255 717.5 229 c 128,-1,36
 676 203 676 203 617 203 c 0,37,38
 580 203 580 203 550 210.5 c 128,-1,39
 520 218 520 218 497 232 c 0,40,41
 473 247 473 247 454.5 268 c 128,-1,42
 436 289 436 289 423 315 c 1,43,-1
 423 767 l 1,44,45
 437 795 437 795 456.5 816 c 128,-1,46
 476 837 476 837 502 851 c 0,47,48
 525 863 525 863 553 869.5 c 128,-1,49
 581 876 581 876 615 876 c 0,50,51
 674 876 674 876 715.5 851 c 128,-1,52
 757 826 757 826 784 783 c 0,53,54
 810 739 810 739 822.5 679.5 c 128,-1,55
 835 620 835 620 835 552 c 2,30,-1
EndSplineSet
Substitution2: "'smcp' Lowercase to Small Capitals lookup 0 subtable" P.smcp
EndChar

StartChar: q
Encoding: 113 113 84
Width: 1229
GlyphClass: 1
Flags: W
LayerCount: 2
Fore
SplineSet
113 550 m 2,0,-1
 113 529 l 2,1,2
 113 411 113 411 141.5 310.5 c 128,-1,3
 170 210 170 210 224 137 c 0,4,5
 278 63 278 63 357 21.5 c 128,-1,6
 436 -20 436 -20 538 -20 c 0,7,8
 586 -20 586 -20 627.5 -10.5 c 128,-1,9
 669 -1 669 -1 704 16 c 0,10,11
 731 30 731 30 756 49 c 128,-1,12
 781 68 781 68 802 92 c 1,13,-1
 802 -416 l 1,14,-1
 1081 -416 l 1,15,-1
 1081 1082 l 1,16,-1
 836 1082 l 1,17,-1
 819 972 l 1,18,19
 798 998 798 998 774 1019 c 128,-1,20
 750 1040 750 1040 723 1056 c 0,21,22
 685 1078 685 1078 639.5 1090 c 128,-1,23
 594 1102 594 1102 540 1102 c 0,24,25
 437 1102 437 1102 357.5 1062 c 128,-1,26
 278 1022 278 1022 224 950 c 0,27,28
 169 877 169 877 141 775 c 128,-1,29
 113 673 113 673 113 550 c 2,0,-1
391 529 m 2,30,-1
 391 550 l 2,31,32
 391 619 391 619 403.5 678.5 c 128,-1,33
 416 738 416 738 443 782 c 0,34,35
 469 826 469 826 510.5 851.5 c 128,-1,36
 552 877 552 877 611 877 c 0,37,38
 646 877 646 877 675.5 870 c 128,-1,39
 705 863 705 863 728 850 c 0,40,41
 752 836 752 836 770 816.5 c 128,-1,42
 788 797 788 797 802 772 c 1,43,-1
 802 312 l 1,44,45
 788 286 788 286 770 265.5 c 128,-1,46
 752 245 752 245 728 231 c 0,47,48
 704 218 704 218 674.5 210.5 c 128,-1,49
 645 203 645 203 609 203 c 0,50,51
 550 203 550 203 508.5 229 c 128,-1,52
 467 255 467 255 441 300 c 0,53,54
 415 344 415 344 403 403 c 128,-1,55
 391 462 391 462 391 529 c 2,30,-1
EndSplineSet
Substitution2: "'smcp' Lowercase to Small Capitals lookup 0 subtable" Q.smcp
EndChar

StartChar: r
Encoding: 114 114 85
Width: 1229
GlyphClass: 1
Flags: W
LayerCount: 2
Fore
SplineSet
918 1102 m 0,0,1
 809 1102 809 1102 717 1049.5 c 128,-1,2
 625 997 625 997 559 905 c 1,3,-1
 557 929 l 1,4,-1
 546 1082 l 1,5,-1
 287 1082 l 1,6,-1
 287 0 l 1,7,-1
 565 0 l 1,8,-1
 565 650 l 1,9,10
 584 696 584 696 613 730 c 128,-1,11
 642 764 642 764 683 786 c 0,12,13
 717 805 717 805 760.5 814.5 c 128,-1,14
 804 824 804 824 858 824 c 0,15,16
 910 824 910 824 967.5 817.5 c 128,-1,17
 1025 811 1025 811 1080 798 c 1,18,-1
 1121 1075 l 1,19,20
 1088 1085 1088 1085 1034.5 1093.5 c 128,-1,21
 981 1102 981 1102 918 1102 c 0,0,1
EndSplineSet
Substitution2: "'smcp' Lowercase to Small Capitals lookup 0 subtable" R.smcp
EndChar

StartChar: s
Encoding: 115 115 86
Width: 1229
GlyphClass: 1
Flags: W
LayerCount: 2
Fore
SplineSet
839 297 m 256,0,1
 839 272 839 272 826.5 251 c 128,-1,2
 814 230 814 230 789 214 c 0,3,4
 763 198 763 198 722.5 188.5 c 128,-1,5
 682 179 682 179 628 179 c 0,6,7
 583 179 583 179 540.5 188 c 128,-1,8
 498 197 498 197 465 217 c 0,9,10
 432 236 432 236 411 267.5 c 128,-1,11
 390 299 390 299 387 343 c 1,12,-1
 122 343 l 1,13,14
 122 277 122 277 154.5 211.5 c 128,-1,15
 187 146 187 146 250 95 c 0,16,17
 313 43 313 43 406.5 11 c 128,-1,18
 500 -21 500 -21 622 -21 c 0,19,20
 733 -21 733 -21 823 3.5 c 128,-1,21
 913 28 913 28 977 72 c 0,22,23
 1040 116 1040 116 1074.5 176.5 c 128,-1,24
 1109 237 1109 237 1109 309 c 0,25,26
 1109 387 1109 387 1074.5 443.5 c 128,-1,27
 1040 500 1040 500 979 540 c 0,28,29
 918 579 918 579 834 604 c 128,-1,30
 750 629 750 629 652 645 c 0,31,32
 584 655 584 655 540 668.5 c 128,-1,33
 496 682 496 682 471 699 c 0,34,35
 445 715 445 715 435 735.5 c 128,-1,36
 425 756 425 756 425 780 c 256,37,38
 425 804 425 804 436.5 825.5 c 128,-1,39
 448 847 448 847 470 863 c 0,40,41
 494 881 494 881 532 891 c 128,-1,42
 570 901 570 901 621 901 c 0,43,44
 681 901 681 901 723.5 886 c 128,-1,45
 766 871 766 871 791 846 c 0,46,47
 809 827 809 827 818 803.5 c 128,-1,48
 827 780 827 780 827 753 c 1,49,-1
 1105 753 l 1,50,51
 1105 828 1105 828 1072 892 c 128,-1,52
 1039 956 1039 956 977 1003 c 0,53,54
 914 1049 914 1049 824 1075.5 c 128,-1,55
 734 1102 734 1102 621 1102 c 0,56,57
 513 1102 513 1102 427 1075 c 128,-1,58
 341 1048 341 1048 281 1002 c 256,59,60
 221 956 221 956 189 895 c 128,-1,61
 157 834 157 834 157 767 c 0,62,63
 157 698 157 698 188.5 645 c 128,-1,64
 220 592 220 592 276 552 c 0,65,66
 332 511 332 511 410.5 482.5 c 128,-1,67
 489 454 489 454 584 435 c 0,68,69
 659 421 659 421 708 407 c 128,-1,70
 757 393 757 393 787 377 c 0,71,72
 816 360 816 360 827.5 341 c 128,-1,73
 839 322 839 322 839 297 c 256,0,1
EndSplineSet
Substitution2: "'smcp' Lowercase to Small Capitals lookup 0 subtable" S.smcp
EndChar

StartChar: t
Encoding: 116 116 87
Width: 1229
GlyphClass: 1
Flags: W
LayerCount: 2
Fore
SplineSet
651 1347 m 1,0,-1
 373 1347 l 1,1,-1
 373 1082 l 1,2,-1
 126 1082 l 1,3,-1
 126 877 l 1,4,-1
 373 877 l 1,5,-1
 373 385 l 2,6,7
 373 278 373 278 401 201.5 c 128,-1,8
 429 125 429 125 481 76 c 0,9,10
 532 26 532 26 604.5 2.5 c 128,-1,11
 677 -21 677 -21 766 -21 c 0,12,13
 812 -21 812 -21 859.5 -16.5 c 128,-1,14
 907 -12 907 -12 951 -4 c 256,15,16
 995 4 995 4 1034 16.5 c 128,-1,17
 1073 29 1073 29 1102 46 c 1,18,-1
 1075 237 l 1,19,20
 1056 232 1056 232 1029.5 227 c 128,-1,21
 1003 222 1003 222 973 218 c 0,22,23
 942 213 942 213 908.5 210 c 128,-1,24
 875 207 875 207 843 207 c 0,25,26
 799 207 799 207 763.5 217 c 128,-1,27
 728 227 728 227 703 251 c 0,28,29
 678 274 678 274 664.5 313.5 c 128,-1,30
 651 353 651 353 651 412 c 2,31,-1
 651 877 l 1,32,-1
 1055 877 l 1,33,-1
 1055 1082 l 1,34,-1
 651 1082 l 1,35,-1
 651 1347 l 1,0,-1
EndSplineSet
Substitution2: "'smcp' Lowercase to Small Capitals lookup 0 subtable" T.smcp
EndChar

StartChar: u
Encoding: 117 117 88
Width: 1229
GlyphClass: 1
Flags: W
LayerCount: 2
Fore
SplineSet
847 0 m 1,0,-1
 1099 0 l 1,1,-1
 1099 1082 l 1,2,-1
 820 1082 l 1,3,-1
 820 323 l 1,4,5
 807 297 807 297 789 276 c 128,-1,6
 771 255 771 255 748 240 c 0,7,8
 721 223 721 223 685.5 214 c 128,-1,9
 650 205 650 205 606 205 c 0,10,11
 557 205 557 205 523 217 c 128,-1,12
 489 229 489 229 468 257 c 0,13,14
 447 284 447 284 437.5 329 c 128,-1,15
 428 374 428 374 428 440 c 2,16,-1
 428 1082 l 1,17,-1
 150 1082 l 1,18,-1
 150 442 l 2,19,20
 150 319 150 319 177.5 231.5 c 128,-1,21
 205 144 205 144 255 88 c 0,22,23
 305 31 305 31 375 5 c 128,-1,24
 445 -21 445 -21 529 -21 c 0,25,26
 621 -21 621 -21 698.5 25 c 128,-1,27
 776 71 776 71 831 152 c 1,28,-1
 847 0 l 1,0,-1
EndSplineSet
Substitution2: "'smcp' Lowercase to Small Capitals lookup 0 subtable" U.smcp
EndChar

StartChar: v
Encoding: 118 118 89
Width: 1229
GlyphClass: 1
Flags: W
LayerCount: 2
Fore
SplineSet
485 0 m 1,0,-1
 746 0 l 1,1,-1
 1157 1082 l 1,2,-1
 867 1082 l 1,3,-1
 630 319 l 1,4,-1
 615 243 l 1,5,-1
 600 319 l 1,6,-1
 362 1082 l 1,7,-1
 72 1082 l 1,8,-1
 485 0 l 1,0,-1
EndSplineSet
Substitution2: "'smcp' Lowercase to Small Capitals lookup 0 subtable" V.smcp
EndChar

StartChar: w
Encoding: 119 119 90
Width: 1229
GlyphClass: 1
Flags: W
LayerCount: 2
Fore
SplineSet
221 0 m 1,0,-1
 465 0 l 1,1,-1
 580 578 l 1,2,-1
 602 688 l 1,3,-1
 625 578 l 1,4,-1
 744 0 l 1,5,-1
 988 0 l 1,6,-1
 1182 1082 l 1,7,-1
 927 1082 l 1,8,-1
 847 444 l 1,9,-1
 833 339 l 1,10,-1
 814 442 l 1,11,-1
 697 1082 l 1,12,-1
 511 1082 l 1,13,-1
 394 439 l 1,14,-1
 375 336 l 1,15,-1
 362 439 l 1,16,-1
 281 1082 l 1,17,-1
 27 1082 l 1,18,-1
 221 0 l 1,0,-1
EndSplineSet
Substitution2: "'smcp' Lowercase to Small Capitals lookup 0 subtable" W.smcp
EndChar

StartChar: x
Encoding: 120 120 91
Width: 1229
GlyphClass: 1
Flags: W
LayerCount: 2
Fore
SplineSet
636 744 m 1,0,-1
 402 1082 l 1,1,-1
 103 1082 l 1,2,-1
 465 551 l 1,3,-1
 89 0 l 1,4,-1
 390 0 l 1,5,-1
 637 354 l 1,6,-1
 886 0 l 1,7,-1
 1186 0 l 1,8,-1
 810 551 l 1,9,-1
 1173 1082 l 1,10,-1
 874 1082 l 1,11,-1
 636 744 l 1,0,-1
EndSplineSet
Substitution2: "'smcp' Lowercase to Small Capitals lookup 0 subtable" X.smcp
EndChar

StartChar: y
Encoding: 121 121 92
Width: 1229
GlyphClass: 1
Flags: W
LayerCount: 2
Fore
SplineSet
312 -437 m 0,0,1
 396 -437 396 -437 457.5 -409 c 128,-1,2
 519 -381 519 -381 562 -340 c 256,3,4
 605 -299 605 -299 633.5 -251 c 128,-1,5
 662 -203 662 -203 680 -162 c 2,6,-1
 1229 1082 l 1,7,-1
 922 1082 l 1,8,-1
 675 446 l 1,9,-1
 634 338 l 1,10,-1
 604 448 l 1,11,-1
 356 1082 l 1,12,-1
 52 1082 l 1,13,-1
 510 46 l 1,14,-1
 446 -73 l 2,15,16
 434 -95 434 -95 425.5 -107 c 128,-1,17
 417 -119 417 -119 399 -143 c 256,18,19
 381 -167 381 -167 355.5 -187.5 c 128,-1,20
 330 -208 330 -208 297 -208 c 0,21,22
 281 -208 281 -208 254.5 -206.5 c 128,-1,23
 228 -205 228 -205 211 -205 c 1,24,-1
 177 -417 l 1,25,26
 213 -427 213 -427 242.5 -432 c 128,-1,27
 272 -437 272 -437 312 -437 c 0,0,1
EndSplineSet
Substitution2: "'smcp' Lowercase to Small Capitals lookup 0 subtable" Y.smcp
EndChar

StartChar: z
Encoding: 122 122 93
Width: 1229
GlyphClass: 1
Flags: W
LayerCount: 2
Fore
SplineSet
498 223 m 1,0,-1
 1110 915 l 1,1,-1
 1110 1082 l 1,2,-1
 132 1082 l 1,3,-1
 132 856 l 1,4,-1
 724 856 l 1,5,-1
 118 172 l 1,6,-1
 118 0 l 1,7,-1
 1135 0 l 1,8,-1
 1135 223 l 1,9,-1
 498 223 l 1,0,-1
EndSplineSet
Substitution2: "'smcp' Lowercase to Small Capitals lookup 0 subtable" Z.smcp
EndChar

StartChar: braceleft
Encoding: 123 123 94
Width: 1229
GlyphClass: 1
Flags: W
LayerCount: 2
Fore
SplineSet
940 -360 m 1,0,-1
 974 -202 l 1,1,2
 924 -204 924 -204 892.5 -176.5 c 128,-1,3
 861 -149 861 -149 843 -104 c 256,4,5
 825 -59 825 -59 818.5 -3.5 c 128,-1,6
 812 52 812 52 812 106 c 2,7,-1
 812 269 l 2,8,9
 812 388 812 388 754 479 c 128,-1,10
 696 570 696 570 572 618 c 1,11,12
 695 666 695 666 753.5 758 c 128,-1,13
 812 850 812 850 812 969 c 2,14,-1
 812 1132 l 2,15,16
 812 1186 812 1186 814.5 1241.5 c 128,-1,17
 817 1297 817 1297 832 1342 c 256,18,19
 847 1387 847 1387 880 1414.5 c 128,-1,20
 913 1442 913 1442 974 1440 c 1,21,-1
 940 1597 l 1,22,23
 843 1597 843 1597 773 1560 c 128,-1,24
 703 1523 703 1523 660 1465 c 0,25,26
 608 1398 608 1398 584 1307.5 c 128,-1,27
 560 1217 560 1217 560 1132 c 2,28,-1
 560 969 l 2,29,30
 560 834 560 834 498 776 c 128,-1,31
 436 718 436 718 309 718 c 1,32,-1
 309 518 l 1,33,34
 436 518 436 518 498 460 c 128,-1,35
 560 402 560 402 560 269 c 2,36,-1
 560 106 l 2,37,38
 560 27 560 27 581.5 -55.5 c 128,-1,39
 603 -138 603 -138 651 -207 c 0,40,41
 696 -273 696 -273 768.5 -316.5 c 128,-1,42
 841 -360 841 -360 940 -360 c 1,0,-1
EndSplineSet
EndChar

StartChar: bar
Encoding: 124 124 95
Width: 1229
GlyphClass: 1
Flags: W
LayerCount: 2
Fore
SplineSet
707 -410 m 1,0,-1
 707 1456 l 1,1,-1
 533 1456 l 1,2,-1
 533 -410 l 1,3,-1
 707 -410 l 1,0,-1
EndSplineSet
EndChar

StartChar: braceright
Encoding: 125 125 96
Width: 1229
GlyphClass: 1
Flags: W
LayerCount: 2
Fore
SplineSet
332 -202 m 1,0,-1
 366 -360 l 1,1,2
 465 -360 465 -360 537.5 -317.5 c 128,-1,3
 610 -275 610 -275 655 -206 c 0,4,5
 700 -140 700 -140 723 -56 c 128,-1,6
 746 28 746 28 746 106 c 2,7,-1
 746 269 l 2,8,9
 746 316 746 316 753.5 353.5 c 128,-1,10
 761 391 761 391 776 419 c 0,11,12
 804 471 804 471 859 494.5 c 128,-1,13
 914 518 914 518 997 518 c 1,14,-1
 997 718 l 1,15,16
 923 718 923 718 870.5 737 c 128,-1,17
 818 756 818 756 789 797 c 0,18,19
 767 827 767 827 756.5 870 c 128,-1,20
 746 913 746 913 746 969 c 2,21,-1
 746 1132 l 2,22,23
 746 1208 746 1208 727.5 1289.5 c 128,-1,24
 709 1371 709 1371 665 1437 c 0,25,26
 619 1510 619 1510 546 1553.5 c 128,-1,27
 473 1597 473 1597 366 1597 c 1,28,-1
 332 1440 l 1,29,30
 393 1442 393 1442 426 1414.5 c 128,-1,31
 459 1387 459 1387 474 1342 c 256,32,33
 489 1297 489 1297 491.5 1241.5 c 128,-1,34
 494 1186 494 1186 494 1132 c 2,35,-1
 494 969 l 2,36,37
 494 900 494 900 513 838.5 c 128,-1,38
 532 777 532 777 572 727 c 0,39,40
 599 693 599 693 636 665 c 128,-1,41
 673 637 673 637 721 617 c 1,42,43
 662 592 662 592 619.5 556.5 c 128,-1,44
 577 521 577 521 549 476 c 256,45,46
 521 431 521 431 507.5 379 c 128,-1,47
 494 327 494 327 494 269 c 2,48,-1
 494 106 l 2,49,50
 494 52 494 52 487 -3.5 c 128,-1,51
 480 -59 480 -59 462 -104 c 256,52,53
 444 -149 444 -149 412.5 -176.5 c 128,-1,54
 381 -204 381 -204 332 -202 c 1,0,-1
EndSplineSet
EndChar

StartChar: asciitilde
Encoding: 126 126 97
Width: 1229
GlyphClass: 1
Flags: W
LayerCount: 2
Fore
SplineSet
1144 752 m 1,0,-1
 956 771 l 1,1,2
 956 740 956 740 945 710.5 c 128,-1,3
 934 681 934 681 916 658 c 256,4,5
 898 635 898 635 874 621 c 128,-1,6
 850 607 850 607 823 607 c 0,7,8
 801 607 801 607 779 612 c 128,-1,9
 757 617 757 617 735 627 c 0,10,11
 712 638 712 638 688.5 654 c 128,-1,12
 665 670 665 670 640 691 c 0,13,14
 604 723 604 723 568.5 747.5 c 128,-1,15
 533 772 533 772 496 788 c 0,16,17
 458 806 458 806 417.5 815 c 128,-1,18
 377 824 377 824 332 824 c 0,19,20
 264 824 264 824 207.5 797 c 128,-1,21
 151 770 151 770 111 722 c 0,22,23
 70 673 70 673 48 605.5 c 128,-1,24
 26 538 26 538 26 457 c 1,25,-1
 206 435 l 1,26,27
 206 466 206 466 217.5 495 c 128,-1,28
 229 524 229 524 249 547 c 0,29,30
 268 569 268 569 293 582.5 c 128,-1,31
 318 596 318 596 345 596 c 0,32,33
 370 596 370 596 393.5 590 c 128,-1,34
 417 584 417 584 441 572 c 0,35,36
 463 562 463 562 485.5 546.5 c 128,-1,37
 508 531 508 531 531 512 c 0,38,39
 569 477 569 477 605 452 c 128,-1,40
 641 427 641 427 678 411 c 0,41,42
 715 394 715 394 753.5 386 c 128,-1,43
 792 378 792 378 836 378 c 0,44,45
 904 378 904 378 961 406 c 128,-1,46
 1018 434 1018 434 1059 484 c 0,47,48
 1099 533 1099 533 1121.5 602 c 128,-1,49
 1144 671 1144 671 1144 752 c 1,0,-1
EndSplineSet
EndChar

StartChar: exclamdown
Encoding: 161 161 99
Width: 1229
GlyphClass: 1
Flags: W
LayerCount: 2
Fore
SplineSet
514 565 m 1,0,-1
 497 -380 l 1,1,-1
 783 -380 l 1,2,-1
 767 565 l 1,3,-1
 514 565 l 1,0,-1
807 947 m 0,4,5
 807 1014 807 1014 762 1058.5 c 128,-1,6
 717 1103 717 1103 644 1103 c 0,7,8
 568 1103 568 1103 525 1058 c 128,-1,9
 482 1013 482 1013 482 947 c 0,10,11
 482 883 482 883 525 839.5 c 128,-1,12
 568 796 568 796 644 796 c 0,13,14
 717 796 717 796 762 839 c 128,-1,15
 807 882 807 882 807 947 c 0,4,5
EndSplineSet
EndChar

StartChar: cent
Encoding: 162 162 100
Width: 1229
GlyphClass: 1
Flags: W
LayerCount: 2
Fore
SplineSet
645 202 m 0,0,1
 578 202 578 202 534.5 229 c 128,-1,2
 491 256 491 256 466 301 c 0,3,4
 440 345 440 345 430 403.5 c 128,-1,5
 420 462 420 462 420 525 c 2,6,-1
 420 555 l 2,7,8
 420 617 420 617 430.5 675 c 128,-1,9
 441 733 441 733 467 778 c 0,10,11
 492 823 492 823 535 850 c 128,-1,12
 578 877 578 877 644 877 c 0,13,14
 689 877 689 877 727 861.5 c 128,-1,15
 765 846 765 846 792 820 c 256,16,17
 819 794 819 794 833 758 c 128,-1,18
 847 722 847 722 845 682 c 1,19,-1
 1107 682 l 1,20,21
 1109 766 1109 766 1082.5 836 c 128,-1,22
 1056 906 1056 906 1008 960 c 0,23,24
 959 1013 959 1013 891 1047.5 c 128,-1,25
 823 1082 823 1082 742 1095 c 1,26,-1
 742 1318 l 1,27,-1
 542 1318 l 1,28,-1
 542 1093 l 1,29,30
 443 1075 443 1075 368 1026.5 c 128,-1,31
 293 978 293 978 243 907 c 256,32,33
 193 836 193 836 167.5 746 c 128,-1,34
 142 656 142 656 142 555 c 2,35,-1
 142 525 l 2,36,37
 142 424 142 424 167.5 334 c 128,-1,38
 193 244 193 244 243 173 c 256,39,40
 293 102 293 102 368 54 c 128,-1,41
 443 6 443 6 542 -12 c 1,42,-1
 542 -245 l 1,43,-1
 742 -245 l 1,44,-1
 742 -13 l 1,45,46
 819 0 819 0 886.5 33.5 c 128,-1,47
 954 67 954 67 1004 118 c 0,48,49
 1053 168 1053 168 1081 232 c 128,-1,50
 1109 296 1109 296 1107 370 c 1,51,-1
 845 370 l 1,52,53
 847 332 847 332 831.5 301 c 128,-1,54
 816 270 816 270 788 248 c 256,55,56
 760 226 760 226 723 214 c 128,-1,57
 686 202 686 202 645 202 c 0,0,1
EndSplineSet
EndChar

StartChar: sterling
Encoding: 163 163 101
Width: 1229
GlyphClass: 1
Flags: W
LayerCount: 2
Fore
SplineSet
560 585 m 1,0,-1
 862 585 l 1,1,-1
 862 806 l 1,2,-1
 552 806 l 1,3,-1
 543 1040 l 2,4,5
 543 1091 543 1091 556 1130.5 c 128,-1,6
 569 1170 569 1170 592 1196 c 0,7,8
 614 1222 614 1222 645 1235.5 c 128,-1,9
 676 1249 676 1249 712 1249 c 256,10,11
 748 1249 748 1249 780.5 1239.5 c 128,-1,12
 813 1230 813 1230 838 1208 c 256,13,14
 863 1186 863 1186 877.5 1150.5 c 128,-1,15
 892 1115 892 1115 892 1064 c 1,16,-1
 1161 1064 l 1,17,18
 1161 1157 1161 1157 1131.5 1233 c 128,-1,19
 1102 1309 1102 1309 1046 1363 c 0,20,21
 989 1417 989 1417 906 1446.5 c 128,-1,22
 823 1476 823 1476 716 1476 c 0,23,24
 616 1476 616 1476 532.5 1446.5 c 128,-1,25
 449 1417 449 1417 389 1362 c 0,26,27
 329 1306 329 1306 296 1224.5 c 128,-1,28
 263 1143 263 1143 263 1040 c 2,29,-1
 270 806 l 1,30,-1
 115 806 l 1,31,-1
 115 585 l 1,32,-1
 277 585 l 1,33,-1
 282 418 l 2,34,35
 282 388 282 388 279.5 356.5 c 128,-1,36
 277 325 277 325 269 298 c 0,37,38
 260 271 260 271 245.5 251.5 c 128,-1,39
 231 232 231 232 207 226 c 1,40,-1
 118 226 l 1,41,-1
 118 0 l 1,42,-1
 1173 0 l 1,43,-1
 1173 226 l 1,44,-1
 503 226 l 1,45,46
 517 243 517 243 527.5 261 c 128,-1,47
 538 279 538 279 545 299 c 0,48,49
 556 328 556 328 561 361 c 128,-1,50
 566 394 566 394 566 431 c 2,51,-1
 560 585 l 1,0,-1
EndSplineSet
EndChar

StartChar: currency
Encoding: 164 164 102
Width: 1229
GlyphClass: 1
Flags: W
LayerCount: 2
Fore
SplineSet
904 78 m 1,0,-1
 1007 -27 l 1,1,-1
 1149 118 l 1,2,-1
 1037 231 l 1,3,4
 1071 291 1071 291 1089.5 360.5 c 128,-1,5
 1108 430 1108 430 1108 508 c 0,6,7
 1108 589 1108 589 1087.5 662 c 128,-1,8
 1067 735 1067 735 1029 797 c 1,9,-1
 1149 920 l 1,10,-1
 1007 1065 l 1,11,-1
 891 946 l 1,12,13
 831 988 831 988 761 1011 c 128,-1,14
 691 1034 691 1034 614 1034 c 256,15,16
 537 1034 537 1034 467.5 1011.5 c 128,-1,17
 398 989 398 989 338 947 c 1,18,-1
 224 1064 l 1,19,-1
 83 920 l 1,20,-1
 199 801 l 1,21,22
 161 739 161 739 139.5 665 c 128,-1,23
 118 591 118 591 118 508 c 0,24,25
 118 430 118 430 137 359 c 128,-1,26
 156 288 156 288 191 228 c 1,27,-1
 83 118 l 1,28,-1
 224 -26 l 1,29,-1
 324 76 l 1,30,31
 386 30 386 30 459.5 5 c 128,-1,32
 533 -20 533 -20 614 -20 c 256,33,34
 695 -20 695 -20 769 5 c 128,-1,35
 843 30 843 30 904 78 c 1,0,-1
304 508 m 256,36,37
 304 580 304 580 328 641.5 c 128,-1,38
 352 703 352 703 394 748 c 256,39,40
 436 793 436 793 492.5 819 c 128,-1,41
 549 845 549 845 614 845 c 0,42,43
 678 845 678 845 734.5 819 c 128,-1,44
 791 793 791 793 833 748 c 256,45,46
 875 703 875 703 899 641.5 c 128,-1,47
 923 580 923 580 923 508 c 256,48,49
 923 436 923 436 899 374 c 128,-1,50
 875 312 875 312 833 267 c 0,51,52
 791 221 791 221 734.5 194.5 c 128,-1,53
 678 168 678 168 614 168 c 0,54,55
 549 168 549 168 492.5 194.5 c 128,-1,56
 436 221 436 221 394 267 c 0,57,58
 352 312 352 312 328 374 c 128,-1,59
 304 436 304 436 304 508 c 256,36,37
EndSplineSet
EndChar

StartChar: yen
Encoding: 165 165 103
Width: 1229
GlyphClass: 1
Flags: W
LayerCount: 2
Fore
SplineSet
479 0 m 1,0,-1
 760 0 l 1,1,-1
 760 287 l 1,2,-1
 1091 287 l 1,3,-1
 1091 452 l 1,4,-1
 760 452 l 1,5,-1
 760 576 l 1,6,-1
 1091 576 l 1,7,-1
 1091 742 l 1,8,-1
 841 742 l 1,9,-1
 1224 1456 l 1,10,-1
 915 1456 l 1,11,-1
 649 894 l 1,12,-1
 624 837 l 1,13,-1
 622 837 l 1,14,-1
 597 893 l 1,15,-1
 331 1456 l 1,16,-1
 21 1456 l 1,17,-1
 405 742 l 1,18,-1
 136 742 l 1,19,-1
 136 576 l 1,20,-1
 479 576 l 1,21,-1
 479 452 l 1,22,-1
 136 452 l 1,23,-1
 136 287 l 1,24,-1
 479 287 l 1,25,-1
 479 0 l 1,0,-1
EndSplineSet
EndChar

StartChar: brokenbar
Encoding: 166 166 104
Width: 1229
GlyphClass: 1
Flags: W
LayerCount: 2
Fore
SplineSet
488 -270 m 1,0,-1
 741 -270 l 1,1,-1
 741 525 l 1,2,-1
 488 525 l 1,3,-1
 488 -270 l 1,0,-1
741 698 m 1,4,-1
 741 1456 l 1,5,-1
 488 1456 l 1,6,-1
 488 698 l 1,7,-1
 741 698 l 1,4,-1
EndSplineSet
EndChar

StartChar: section
Encoding: 167 167 105
Width: 1229
GlyphClass: 1
Flags: W
LayerCount: 2
Fore
SplineSet
1169 475 m 0,0,1
 1169 566 1169 566 1137.5 632 c 128,-1,2
 1106 698 1106 698 1045 747 c 0,3,4
 1008 777 1008 777 960 801.5 c 128,-1,5
 912 826 912 826 854 847 c 0,6,7
 818 861 818 861 777 873 c 128,-1,8
 736 885 736 885 692 897 c 0,9,10
 639 911 639 911 598 923.5 c 128,-1,11
 557 936 557 936 525 948 c 0,12,13
 503 957 503 957 485.5 965.5 c 128,-1,14
 468 974 468 974 454 984 c 0,15,16
 421 1006 421 1006 408.5 1033 c 128,-1,17
 396 1060 396 1060 396 1098 c 0,18,19
 396 1129 396 1129 409.5 1157 c 128,-1,20
 423 1185 423 1185 452 1206 c 256,21,22
 481 1227 481 1227 526 1239.5 c 128,-1,23
 571 1252 571 1252 633 1252 c 0,24,25
 692 1252 692 1252 736.5 1236 c 128,-1,26
 781 1220 781 1220 811 1193 c 0,27,28
 841 1165 841 1165 856 1128 c 128,-1,29
 871 1091 871 1091 871 1048 c 1,30,-1
 1150 1048 l 1,31,32
 1150 1151 1150 1151 1114 1231 c 128,-1,33
 1078 1311 1078 1311 1012 1366 c 0,34,35
 945 1420 945 1420 849 1448 c 128,-1,36
 753 1476 753 1476 633 1476 c 0,37,38
 516 1476 516 1476 420.5 1449 c 128,-1,39
 325 1422 325 1422 258 1373 c 0,40,41
 190 1323 190 1323 153.5 1252.5 c 128,-1,42
 117 1182 117 1182 117 1096 c 0,43,44
 117 1030 117 1030 132 978.5 c 128,-1,45
 147 927 147 927 176 885 c 0,46,47
 191 864 191 864 210 844.5 c 128,-1,48
 229 825 229 825 252 808 c 1,49,50
 225 793 225 793 202 774.5 c 128,-1,51
 179 756 179 756 160 735 c 0,52,53
 126 695 126 695 107.5 645 c 128,-1,54
 89 595 89 595 89 535 c 0,55,56
 89 444 89 444 121.5 378 c 128,-1,57
 154 312 154 312 216 263 c 0,58,59
 255 231 255 231 306 205.5 c 128,-1,60
 357 180 357 180 418 158 c 0,61,62
 476 137 476 137 547.5 118 c 128,-1,63
 619 99 619 99 672 80 c 0,64,65
 715 65 715 65 747 51 c 128,-1,66
 779 37 779 37 802 23 c 0,67,68
 836 0 836 0 850 -26 c 128,-1,69
 864 -52 864 -52 864 -85 c 0,70,71
 864 -111 864 -111 854.5 -133.5 c 128,-1,72
 845 -156 845 -156 827 -174 c 0,73,74
 799 -201 799 -201 748.5 -216.5 c 128,-1,75
 698 -232 698 -232 628 -232 c 0,76,77
 580 -232 580 -232 532.5 -223.5 c 128,-1,78
 485 -215 485 -215 448 -193 c 0,79,80
 410 -171 410 -171 387 -133.5 c 128,-1,81
 364 -96 364 -96 364 -37 c 1,82,-1
 86 -38 l 1,83,84
 86 -158 86 -158 132.5 -238.5 c 128,-1,85
 179 -319 179 -319 256 -367 c 0,86,87
 332 -416 332 -416 429.5 -436.5 c 128,-1,88
 527 -457 527 -457 628 -457 c 0,89,90
 745 -457 745 -457 839.5 -432.5 c 128,-1,91
 934 -408 934 -408 1001 -360 c 0,92,93
 1068 -313 1068 -313 1104.5 -243.5 c 128,-1,94
 1141 -174 1141 -174 1141 -84 c 0,95,96
 1141 -22 1141 -22 1128 27.5 c 128,-1,97
 1115 77 1115 77 1089 117 c 0,98,99
 1073 141 1073 141 1052.5 162.5 c 128,-1,100
 1032 184 1032 184 1007 203 c 1,101,102
 1031 216 1031 216 1051.5 231.5 c 128,-1,103
 1072 247 1072 247 1089 265 c 0,104,105
 1128 305 1128 305 1148.5 357.5 c 128,-1,106
 1169 410 1169 410 1169 475 c 0,0,1
594 663 m 0,107,108
 637 650 637 650 673 638 c 128,-1,109
 709 626 709 626 738 615 c 0,110,111
 767 603 767 603 790.5 591 c 128,-1,112
 814 579 814 579 832 566 c 0,113,114
 867 541 867 541 881.5 513 c 128,-1,115
 896 485 896 485 896 449 c 0,116,117
 896 420 896 420 887.5 395 c 128,-1,118
 879 370 879 370 864 349 c 0,119,120
 853 335 853 335 838.5 323 c 128,-1,121
 824 311 824 311 807 302 c 1,122,123
 773 314 773 314 737 324.5 c 128,-1,124
 701 335 701 335 662 346 c 0,125,126
 572 373 572 373 514.5 394.5 c 128,-1,127
 457 416 457 416 424 440 c 256,128,129
 391 464 391 464 378.5 492.5 c 128,-1,130
 366 521 366 521 366 561 c 0,131,132
 366 588 366 588 372 612 c 128,-1,133
 378 636 378 636 390 656 c 0,134,135
 401 672 401 672 415.5 685.5 c 128,-1,136
 430 699 430 699 450 708 c 1,137,138
 483 696 483 696 519 685 c 128,-1,139
 555 674 555 674 594 663 c 0,107,108
EndSplineSet
EndChar

StartChar: dieresis
Encoding: 168 168 106
Width: 1229
GlyphClass: 1
Flags: W
LayerCount: 2
Fore
SplineSet
265 1365 m 0,0,1
 265 1312 265 1312 303.5 1276.5 c 128,-1,2
 342 1241 342 1241 401 1241 c 256,3,4
 460 1241 460 1241 498.5 1276.5 c 128,-1,5
 537 1312 537 1312 537 1365 c 0,6,7
 537 1417 537 1417 499 1453.5 c 128,-1,8
 461 1490 461 1490 401 1490 c 256,9,10
 341 1490 341 1490 303 1453.5 c 128,-1,11
 265 1417 265 1417 265 1365 c 0,0,1
745 1365 m 0,12,13
 745 1311 745 1311 783 1275 c 128,-1,14
 821 1239 821 1239 881 1239 c 256,15,16
 941 1239 941 1239 979 1275 c 128,-1,17
 1017 1311 1017 1311 1017 1365 c 0,18,19
 1017 1416 1017 1416 979.5 1452.5 c 128,-1,20
 942 1489 942 1489 881 1489 c 256,21,22
 820 1489 820 1489 782.5 1452.5 c 128,-1,23
 745 1416 745 1416 745 1365 c 0,12,13
EndSplineSet
EndChar

StartChar: copyright
Encoding: 169 169 107
Width: 1229
GlyphClass: 1
Flags: W
LayerCount: 2
Fore
SplineSet
862 442 m 1,0,-1
 745 442 l 1,1,2
 745 409 745 409 738 384.5 c 128,-1,3
 731 360 731 360 718 344 c 0,4,5
 701 325 701 325 674.5 316.5 c 128,-1,6
 648 308 648 308 611 308 c 0,7,8
 575 308 575 308 548 322 c 128,-1,9
 521 336 521 336 503 361 c 0,10,11
 484 385 484 385 475 419.5 c 128,-1,12
 466 454 466 454 466 496 c 2,13,-1
 466 587 l 2,14,15
 466 628 466 628 475 662.5 c 128,-1,16
 484 697 484 697 503 722 c 0,17,18
 521 747 521 747 548 761 c 128,-1,19
 575 775 575 775 611 775 c 0,20,21
 645 775 645 775 671 767 c 128,-1,22
 697 759 697 759 714 742 c 0,23,24
 730 726 730 726 738 700.5 c 128,-1,25
 746 675 746 675 746 640 c 1,26,-1
 863 640 l 1,27,28
 863 695 863 695 848 737.5 c 128,-1,29
 833 780 833 780 805 809 c 0,30,31
 772 843 772 843 723 860 c 128,-1,32
 674 877 674 877 611 877 c 0,33,34
 551 877 551 877 502.5 855.5 c 128,-1,35
 454 834 454 834 420 796 c 0,36,37
 386 757 386 757 368 703.5 c 128,-1,38
 350 650 350 650 350 586 c 2,39,-1
 350 496 l 2,40,41
 350 431 350 431 368 378 c 128,-1,42
 386 325 386 325 420 287 c 256,43,44
 454 249 454 249 502.5 228 c 128,-1,45
 551 207 551 207 611 207 c 0,46,47
 674 207 674 207 723 223.5 c 128,-1,48
 772 240 772 240 805 274 c 0,49,50
 832 303 832 303 847 345 c 128,-1,51
 862 387 862 387 862 442 c 1,0,-1
180 542 m 256,52,53
 180 641 180 641 214.5 726 c 128,-1,54
 249 811 249 811 309 874 c 256,55,56
 369 937 369 937 449.5 972.5 c 128,-1,57
 530 1008 530 1008 622 1008 c 0,58,59
 713 1008 713 1008 793 972.5 c 128,-1,60
 873 937 873 937 933 874 c 256,61,62
 993 811 993 811 1027.5 726 c 128,-1,63
 1062 641 1062 641 1062 542 c 256,64,65
 1062 443 1062 443 1027.5 357 c 128,-1,66
 993 271 993 271 933 208 c 0,67,68
 873 144 873 144 793 108 c 128,-1,69
 713 72 713 72 622 72 c 0,70,71
 530 72 530 72 449.5 108 c 128,-1,72
 369 144 369 144 309 208 c 0,73,74
 249 271 249 271 214.5 357 c 128,-1,75
 180 443 180 443 180 542 c 256,52,53
89 542 m 0,76,77
 89 423 89 423 131 320.5 c 128,-1,78
 173 218 173 218 246 142 c 0,79,80
 318 66 318 66 415 23 c 128,-1,81
 512 -20 512 -20 622 -20 c 256,82,83
 732 -20 732 -20 829 23 c 128,-1,84
 926 66 926 66 998 142 c 256,85,86
 1070 218 1070 218 1112 320.5 c 128,-1,87
 1154 423 1154 423 1154 542 c 0,88,89
 1154 660 1154 660 1112 762.5 c 128,-1,90
 1070 865 1070 865 998 941 c 0,91,92
 926 1016 926 1016 829 1059 c 128,-1,93
 732 1102 732 1102 622 1102 c 256,94,95
 512 1102 512 1102 415 1059 c 128,-1,96
 318 1016 318 1016 246 941 c 0,97,98
 173 865 173 865 131 762.5 c 128,-1,99
 89 660 89 660 89 542 c 0,76,77
EndSplineSet
EndChar

StartChar: ordfeminine
Encoding: 170 170 108
Width: 1229
GlyphClass: 1
Flags: W
LayerCount: 2
Fore
SplineSet
765 705 m 1,0,-1
 942 705 l 1,1,2
 928 749 928 749 922 793 c 128,-1,3
 916 837 916 837 916 886 c 2,4,-1
 916 1200 l 2,5,6
 916 1269 916 1269 895 1320.5 c 128,-1,7
 874 1372 874 1372 836 1407 c 0,8,9
 797 1441 797 1441 743.5 1458.5 c 128,-1,10
 690 1476 690 1476 625 1476 c 0,11,12
 554 1476 554 1476 497 1458.5 c 128,-1,13
 440 1441 440 1441 399 1410 c 256,14,15
 358 1379 358 1379 336 1336.5 c 128,-1,16
 314 1294 314 1294 314 1243 c 1,17,-1
 487 1229 l 1,18,19
 487 1249 487 1249 493.5 1265.5 c 128,-1,20
 500 1282 500 1282 513 1294 c 0,21,22
 530 1311 530 1311 558.5 1319.5 c 128,-1,23
 587 1328 587 1328 625 1328 c 0,24,25
 655 1328 655 1328 677 1319.5 c 128,-1,26
 699 1311 699 1311 713 1295 c 256,27,28
 727 1279 727 1279 734 1255.5 c 128,-1,29
 741 1232 741 1232 741 1201 c 2,30,-1
 741 1150 l 1,31,-1
 604 1150 l 2,32,33
 525 1150 525 1150 464 1135.5 c 128,-1,34
 403 1121 403 1121 361 1094 c 0,35,36
 318 1065 318 1065 295.5 1020.5 c 128,-1,37
 273 976 273 976 273 919 c 0,38,39
 273 867 273 867 289.5 825 c 128,-1,40
 306 783 306 783 338 753 c 0,41,42
 369 723 369 723 415.5 707 c 128,-1,43
 462 691 462 691 522 691 c 0,44,45
 564 691 564 691 599 700 c 128,-1,46
 634 709 634 709 662 724 c 0,47,48
 689 739 689 739 709.5 758.5 c 128,-1,49
 730 778 730 778 744 799 c 1,50,51
 747 774 747 774 752.5 750.5 c 128,-1,52
 758 727 758 727 765 705 c 1,0,-1
565 835 m 0,53,54
 533 835 533 835 510 841.5 c 128,-1,55
 487 848 487 848 473 861 c 0,56,57
 460 872 460 872 454 887.5 c 128,-1,58
 448 903 448 903 448 923 c 0,59,60
 448 945 448 945 458 965 c 128,-1,61
 468 985 468 985 488 1000 c 256,62,63
 508 1015 508 1015 537 1024 c 128,-1,64
 566 1033 566 1033 605 1033 c 2,65,-1
 741 1033 l 1,66,-1
 741 930 l 1,67,68
 733 913 733 913 714.5 896 c 128,-1,69
 696 879 696 879 672 866 c 0,70,71
 647 852 647 852 619 843.5 c 128,-1,72
 591 835 591 835 565 835 c 0,53,54
EndSplineSet
EndChar

StartChar: logicalnot
Encoding: 172 172 110
Width: 1229
GlyphClass: 1
Flags: W
LayerCount: 2
Fore
SplineSet
1020 374 m 1,0,-1
 1020 805 l 1,1,-1
 185 805 l 1,2,-1
 185 634 l 1,3,-1
 820 634 l 1,4,-1
 820 374 l 1,5,-1
 1020 374 l 1,0,-1
EndSplineSet
EndChar

StartChar: registered
Encoding: 174 174 112
Width: 1229
GlyphClass: 1
Flags: W
LayerCount: 2
Fore
SplineSet
88 541 m 256,0,1
 88 422 88 422 130 319.5 c 128,-1,2
 172 217 172 217 244 141 c 256,3,4
 316 65 316 65 413 22 c 128,-1,5
 510 -21 510 -21 620 -21 c 256,6,7
 730 -21 730 -21 827 22 c 128,-1,8
 924 65 924 65 996 141 c 256,9,10
 1068 217 1068 217 1110 319.5 c 128,-1,11
 1152 422 1152 422 1152 541 c 256,12,13
 1152 660 1152 660 1110 762.5 c 128,-1,14
 1068 865 1068 865 996 941 c 0,15,16
 924 1016 924 1016 827 1059 c 128,-1,17
 730 1102 730 1102 620 1102 c 256,18,19
 510 1102 510 1102 413 1059 c 128,-1,20
 316 1016 316 1016 244 941 c 0,21,22
 172 865 172 865 130 762.5 c 128,-1,23
 88 660 88 660 88 541 c 256,0,1
179 541 m 256,24,25
 179 640 179 640 213.5 725.5 c 128,-1,26
 248 811 248 811 308 874 c 256,27,28
 368 937 368 937 448.5 972.5 c 128,-1,29
 529 1008 529 1008 620 1008 c 256,30,31
 711 1008 711 1008 791.5 972.5 c 128,-1,32
 872 937 872 937 932 874 c 256,33,34
 992 811 992 811 1026.5 725.5 c 128,-1,35
 1061 640 1061 640 1061 541 c 256,36,37
 1061 442 1061 442 1026.5 356.5 c 128,-1,38
 992 271 992 271 932 208 c 256,39,40
 872 145 872 145 791.5 109 c 128,-1,41
 711 73 711 73 620 73 c 256,42,43
 529 73 529 73 448.5 109 c 128,-1,44
 368 145 368 145 308 208 c 256,45,46
 248 271 248 271 213.5 356.5 c 128,-1,47
 179 442 179 442 179 541 c 256,24,25
512 484 m 1,48,-1
 631 484 l 1,49,-1
 748 232 l 1,50,-1
 864 232 l 1,51,-1
 718 519 l 1,52,53
 784 542 784 542 819 581 c 128,-1,54
 854 620 854 620 854 676 c 0,55,56
 854 773 854 773 787.5 821 c 128,-1,57
 721 869 721 869 610 869 c 2,58,-1
 399 869 l 1,59,-1
 399 232 l 1,60,-1
 512 232 l 1,61,-1
 512 484 l 1,48,-1
512 585 m 1,62,-1
 512 769 l 1,63,-1
 610 769 l 2,64,65
 683 769 683 769 712 748 c 128,-1,66
 741 727 741 727 741 672 c 0,67,68
 741 651 741 651 731.5 635 c 128,-1,69
 722 619 722 619 706 608 c 256,70,71
 690 597 690 597 669 591 c 128,-1,72
 648 585 648 585 626 585 c 2,73,-1
 512 585 l 1,62,-1
EndSplineSet
EndChar

StartChar: macron
Encoding: 175 175 113
AltUni2: 0002c9.ffffffff.0 0002c9.ffffffff.0
Width: 1229
GlyphClass: 1
Flags: W
LayerCount: 2
Fore
SplineSet
1003 1292 m 1,0,-1
 1003 1456 l 1,1,-1
 273 1456 l 1,2,-1
 273 1292 l 1,3,-1
 1003 1292 l 1,0,-1
EndSplineSet
EndChar

StartChar: degree
Encoding: 176 176 114
Width: 1229
GlyphClass: 1
Flags: W
LayerCount: 2
Fore
SplineSet
357 1202 m 0,0,1
 357 1145 357 1145 378.5 1096 c 128,-1,2
 400 1047 400 1047 437 1010 c 256,3,4
 474 973 474 973 523 952 c 128,-1,5
 572 931 572 931 628 931 c 0,6,7
 682 931 682 931 730.5 952 c 128,-1,8
 779 973 779 973 815 1010 c 256,9,10
 851 1047 851 1047 872 1096 c 128,-1,11
 893 1145 893 1145 893 1202 c 0,12,13
 893 1258 893 1258 872 1307.5 c 128,-1,14
 851 1357 851 1357 815 1395 c 0,15,16
 779 1432 779 1432 730.5 1454 c 128,-1,17
 682 1476 682 1476 628 1476 c 0,18,19
 572 1476 572 1476 523 1454 c 128,-1,20
 474 1432 474 1432 437 1395 c 0,21,22
 400 1357 400 1357 378.5 1307.5 c 128,-1,23
 357 1258 357 1258 357 1202 c 0,0,1
502 1202 m 256,24,25
 502 1229 502 1229 512 1252.5 c 128,-1,26
 522 1276 522 1276 540 1294 c 0,27,28
 557 1311 557 1311 579.5 1320.5 c 128,-1,29
 602 1330 602 1330 628 1330 c 0,30,31
 653 1330 653 1330 675.5 1320.5 c 128,-1,32
 698 1311 698 1311 714 1294 c 0,33,34
 730 1276 730 1276 739.5 1252.5 c 128,-1,35
 749 1229 749 1229 749 1202 c 256,36,37
 749 1175 749 1175 739.5 1152 c 128,-1,38
 730 1129 730 1129 714 1113 c 0,39,40
 698 1096 698 1096 675.5 1087 c 128,-1,41
 653 1078 653 1078 628 1078 c 0,42,43
 602 1078 602 1078 579.5 1087.5 c 128,-1,44
 557 1097 557 1097 540 1114 c 0,45,46
 522 1130 522 1130 512 1152.5 c 128,-1,47
 502 1175 502 1175 502 1202 c 256,24,25
EndSplineSet
EndChar

StartChar: plusminus
Encoding: 177 177 115
Width: 1229
GlyphClass: 1
Flags: W
LayerCount: 2
Fore
SplineSet
732 933 m 1,0,-1
 732 1284 l 1,1,-1
 487 1284 l 1,2,-1
 487 933 l 1,3,-1
 147 933 l 1,4,-1
 147 701 l 1,5,-1
 487 701 l 1,6,-1
 487 331 l 1,7,-1
 732 331 l 1,8,-1
 732 701 l 1,9,-1
 1063 701 l 1,10,-1
 1063 933 l 1,11,-1
 732 933 l 1,0,-1
1031 0 m 1,12,-1
 1031 227 l 1,13,-1
 171 227 l 1,14,-1
 171 0 l 1,15,-1
 1031 0 l 1,12,-1
EndSplineSet
EndChar

StartChar: twosuperior
Encoding: 178 178 116
Width: 1229
GlyphClass: 1
Flags: W
LayerCount: 2
Fore
SplineSet
934 667 m 1,0,-1
 934 826 l 1,1,-1
 579 826 l 1,2,-1
 696 919 l 2,3,4
 750 962 750 962 790 998 c 128,-1,5
 830 1034 830 1034 857 1069 c 256,6,7
 884 1104 884 1104 897.5 1140 c 128,-1,8
 911 1176 911 1176 911 1220 c 0,9,10
 911 1272 911 1272 895 1314.5 c 128,-1,11
 879 1357 879 1357 848 1387 c 0,12,13
 809 1426 809 1426 747 1446.5 c 128,-1,14
 685 1467 685 1467 603 1467 c 0,15,16
 532 1467 532 1467 476 1445.5 c 128,-1,17
 420 1424 420 1424 380 1387 c 0,18,19
 340 1349 340 1349 319 1299.5 c 128,-1,20
 298 1250 298 1250 298 1194 c 1,21,-1
 499 1194 l 1,22,23
 499 1216 499 1216 505.5 1236 c 128,-1,24
 512 1256 512 1256 526 1271 c 0,25,26
 540 1287 540 1287 561.5 1296.5 c 128,-1,27
 583 1306 583 1306 612 1306 c 0,28,29
 636 1306 636 1306 654.5 1299.5 c 128,-1,30
 673 1293 673 1293 685 1282 c 256,31,32
 697 1271 697 1271 703 1254.5 c 128,-1,33
 709 1238 709 1238 709 1219 c 0,34,35
 709 1205 709 1205 701.5 1185 c 128,-1,36
 694 1165 694 1165 677 1141 c 0,37,38
 664 1123 664 1123 646 1102.5 c 128,-1,39
 628 1082 628 1082 603 1060 c 2,40,-1
 316 801 l 1,41,-1
 316 667 l 1,42,-1
 934 667 l 1,0,-1
EndSplineSet
EndChar

StartChar: threesuperior
Encoding: 179 179 117
Width: 1229
GlyphClass: 1
Flags: W
LayerCount: 2
Fore
SplineSet
515 1135 m 1,0,-1
 515 1000 l 1,1,-1
 603 1000 l 2,2,3
 633 1000 633 1000 657.5 995 c 128,-1,4
 682 990 682 990 698 979 c 0,5,6
 715 968 715 968 723.5 950 c 128,-1,7
 732 932 732 932 732 905 c 0,8,9
 732 888 732 888 726 872 c 128,-1,10
 720 856 720 856 708 844 c 0,11,12
 694 831 694 831 671.5 823 c 128,-1,13
 649 815 649 815 617 815 c 0,14,15
 587 815 587 815 563.5 822.5 c 128,-1,16
 540 830 540 830 524 843 c 0,17,18
 510 854 510 854 502.5 869 c 128,-1,19
 495 884 495 884 495 900 c 1,20,-1
 293 900 l 1,21,22
 293 833 293 833 321 786.5 c 128,-1,23
 349 740 349 740 394 711 c 0,24,25
 438 681 438 681 493.5 668 c 128,-1,26
 549 655 549 655 605 655 c 0,27,28
 675 655 675 655 735 670.5 c 128,-1,29
 795 686 795 686 840 716 c 0,30,31
 884 745 884 745 909 788 c 128,-1,32
 934 831 934 831 934 887 c 0,33,34
 934 928 934 928 922.5 959.5 c 128,-1,35
 911 991 911 991 890 1013 c 0,36,37
 871 1033 871 1033 844 1047 c 128,-1,38
 817 1061 817 1061 784 1070 c 1,39,40
 811 1080 811 1080 833 1093.5 c 128,-1,41
 855 1107 855 1107 872 1124 c 0,42,43
 895 1146 895 1146 907 1175.5 c 128,-1,44
 919 1205 919 1205 919 1240 c 0,45,46
 919 1295 919 1295 896 1337.5 c 128,-1,47
 873 1380 873 1380 832 1409 c 0,48,49
 791 1437 791 1437 733 1451.5 c 128,-1,50
 675 1466 675 1466 605 1466 c 0,51,52
 545 1466 545 1466 491 1451.5 c 128,-1,53
 437 1437 437 1437 396 1409 c 0,54,55
 355 1380 355 1380 330.5 1338 c 128,-1,56
 306 1296 306 1296 306 1241 c 1,57,-1
 507 1241 l 1,58,59
 507 1257 507 1257 515.5 1269 c 128,-1,60
 524 1281 524 1281 539 1289 c 0,61,62
 553 1297 553 1297 571.5 1301 c 128,-1,63
 590 1305 590 1305 611 1305 c 0,64,65
 641 1305 641 1305 661.5 1298 c 128,-1,66
 682 1291 682 1291 695 1280 c 0,67,68
 707 1268 707 1268 713 1254 c 128,-1,69
 719 1240 719 1240 719 1225 c 0,70,71
 719 1203 719 1203 711 1185 c 128,-1,72
 703 1167 703 1167 685 1155 c 0,73,74
 671 1145 671 1145 650.5 1140 c 128,-1,75
 630 1135 630 1135 603 1135 c 2,76,-1
 515 1135 l 1,0,-1
EndSplineSet
EndChar

StartChar: acute
Encoding: 180 180 118
Width: 1229
GlyphClass: 1
Flags: W
LayerCount: 2
Fore
SplineSet
569 1478 m 1,0,-1
 382 1199 l 1,1,-1
 598 1199 l 1,2,-1
 875 1478 l 1,3,-1
 569 1478 l 1,0,-1
EndSplineSet
EndChar

StartChar: mu
Encoding: 181 181 119
Width: 1229
GlyphClass: 1
Flags: W
LayerCount: 2
Fore
SplineSet
450 1082 m 1,0,-1
 172 1082 l 1,1,-1
 172 -416 l 1,2,-1
 450 -416 l 1,3,-1
 450 27 l 1,4,5
 487 3 487 3 532 -9 c 128,-1,6
 577 -21 577 -21 630 -21 c 0,7,8
 676 -21 676 -21 716 -11 c 128,-1,9
 756 -1 756 -1 790 18 c 0,10,11
 809 29 809 29 826 42.5 c 128,-1,12
 843 56 843 56 858 72 c 1,13,-1
 864 0 l 1,14,-1
 1123 0 l 1,15,-1
 1123 1082 l 1,16,-1
 844 1082 l 1,17,-1
 844 313 l 1,18,19
 833 293 833 293 819 276 c 128,-1,20
 805 259 805 259 786 246 c 0,21,22
 759 226 759 226 721.5 215.5 c 128,-1,23
 684 205 684 205 635 205 c 0,24,25
 594 205 594 205 560 215 c 128,-1,26
 526 225 526 225 502 254 c 0,27,28
 477 282 477 282 463.5 332 c 128,-1,29
 450 382 450 382 450 462 c 2,30,-1
 450 1082 l 1,0,-1
EndSplineSet
EndChar

StartChar: paragraph
Encoding: 182 182 120
Width: 1229
GlyphClass: 1
Flags: W
LayerCount: 2
Fore
SplineSet
791 0 m 1,0,-1
 1007 0 l 1,1,-1
 1007 1456 l 1,2,-1
 708 1456 l 2,3,4
 589 1456 589 1456 497 1420.5 c 128,-1,5
 405 1385 405 1385 343 1323 c 0,6,7
 280 1260 280 1260 248 1174 c 128,-1,8
 216 1088 216 1088 216 988 c 0,9,10
 216 887 216 887 248 801 c 128,-1,11
 280 715 280 715 343 653 c 0,12,13
 405 590 405 590 497 555 c 128,-1,14
 589 520 589 520 708 520 c 2,15,-1
 791 520 l 1,16,-1
 791 0 l 1,0,-1
EndSplineSet
EndChar

StartChar: periodcentered
Encoding: 183 183 121
Width: 1229
GlyphClass: 1
Flags: W
LayerCount: 2
Fore
SplineSet
494 701 m 256,0,1
 494 638 494 638 536.5 595 c 128,-1,2
 579 552 579 552 652 552 c 0,3,4
 723 552 723 552 766.5 594 c 128,-1,5
 810 636 810 636 810 701 c 256,6,7
 810 766 810 766 766.5 808.5 c 128,-1,8
 723 851 723 851 652 851 c 0,9,10
 579 851 579 851 536.5 807.5 c 128,-1,11
 494 764 494 764 494 701 c 256,0,1
EndSplineSet
EndChar

StartChar: cedilla
Encoding: 184 184 122
Width: 1229
GlyphClass: 1
Flags: W
LayerCount: 2
Fore
SplineSet
676 5 m 1,0,-1
 469 5 l 1,1,-1
 438 -136 l 1,2,3
 477 -139 477 -139 505 -143.5 c 128,-1,4
 533 -148 533 -148 550 -158 c 0,5,6
 567 -167 567 -167 575 -181 c 128,-1,7
 583 -195 583 -195 583 -215 c 0,8,9
 583 -238 583 -238 573.5 -254 c 128,-1,10
 564 -270 564 -270 548 -280 c 0,11,12
 532 -289 532 -289 510.5 -293.5 c 128,-1,13
 489 -298 489 -298 464 -298 c 1,14,-1
 471 -458 l 1,15,16
 556 -458 556 -458 620 -441 c 128,-1,17
 684 -424 684 -424 728 -393 c 0,18,19
 771 -363 771 -363 793 -320 c 128,-1,20
 815 -277 815 -277 815 -224 c 0,21,22
 815 -181 815 -181 802 -150.5 c 128,-1,23
 789 -120 789 -120 768 -99 c 0,24,25
 747 -79 747 -79 720 -67.5 c 128,-1,26
 693 -56 693 -56 665 -51 c 1,27,-1
 676 5 l 1,0,-1
EndSplineSet
EndChar

StartChar: onesuperior
Encoding: 185 185 123
Width: 1229
GlyphClass: 1
Flags: W
LayerCount: 2
Fore
SplineSet
784 659 m 1,0,-1
 784 1445 l 1,1,-1
 765 1445 l 1,2,-1
 394 1325 l 1,3,-1
 394 1169 l 1,4,-1
 585 1212 l 1,5,-1
 585 659 l 1,6,-1
 784 659 l 1,0,-1
EndSplineSet
EndChar

StartChar: ordmasculine
Encoding: 186 186 124
Width: 1229
GlyphClass: 1
Flags: W
LayerCount: 2
Fore
SplineSet
266 1141 m 2,0,-1
 266 1024 l 2,1,2
 266 951 266 951 290.5 889.5 c 128,-1,3
 315 828 315 828 360 784 c 256,4,5
 405 740 405 740 469.5 715 c 128,-1,6
 534 690 534 690 614 690 c 256,7,8
 694 690 694 690 758 715 c 128,-1,9
 822 740 822 740 867 784 c 0,10,11
 911 828 911 828 935 889.5 c 128,-1,12
 959 951 959 951 959 1024 c 2,13,-1
 959 1141 l 2,14,15
 959 1214 959 1214 935 1275.5 c 128,-1,16
 911 1337 911 1337 866 1382 c 0,17,18
 821 1426 821 1426 757 1451 c 128,-1,19
 693 1476 693 1476 613 1476 c 0,20,21
 532 1476 532 1476 468 1451 c 128,-1,22
 404 1426 404 1426 359 1382 c 0,23,24
 314 1337 314 1337 290 1275.5 c 128,-1,25
 266 1214 266 1214 266 1141 c 2,0,-1
441 1024 m 2,26,-1
 441 1141 l 2,27,28
 441 1181 441 1181 451.5 1215 c 128,-1,29
 462 1249 462 1249 484 1274 c 0,30,31
 505 1299 505 1299 537 1313.5 c 128,-1,32
 569 1328 569 1328 612 1328 c 256,33,34
 655 1328 655 1328 687.5 1313.5 c 128,-1,35
 720 1299 720 1299 742 1274 c 0,36,37
 763 1249 763 1249 773.5 1215 c 128,-1,38
 784 1181 784 1181 784 1141 c 2,39,-1
 784 1024 l 2,40,41
 784 983 784 983 773.5 949 c 128,-1,42
 763 915 763 915 742 890 c 0,43,44
 721 864 721 864 689 850 c 128,-1,45
 657 836 657 836 614 836 c 0,46,47
 570 836 570 836 537.5 850 c 128,-1,48
 505 864 505 864 484 890 c 0,49,50
 462 915 462 915 451.5 949 c 128,-1,51
 441 983 441 983 441 1024 c 2,26,-1
EndSplineSet
EndChar

StartChar: onequarter
Encoding: 188 188 126
Width: 1229
GlyphClass: 1
Flags: W
LayerCount: 2
Fore
SplineSet
416 751 m 1,0,-1
 416 1458 l 1,1,-1
 399 1458 l 1,2,-1
 65 1350 l 1,3,-1
 65 1210 l 1,4,-1
 237 1249 l 1,5,-1
 237 751 l 1,6,-1
 416 751 l 1,0,-1
1088 291 m 1,7,-1
 1088 710 l 1,8,-1
 907 710 l 1,9,-1
 585 262 l 1,10,-1
 595 144 l 1,11,-1
 906 144 l 1,12,-1
 906 0 l 1,13,-1
 1088 0 l 1,14,-1
 1088 144 l 1,15,-1
 1170 144 l 1,16,-1
 1170 291 l 1,17,-1
 1088 291 l 1,7,-1
758 291 m 1,18,-1
 895 467 l 1,19,-1
 906 484 l 1,20,-1
 906 291 l 1,21,-1
 758 291 l 1,18,-1
425 235 m 1,22,-1
 936 1173 l 1,23,-1
 805 1240 l 1,24,-1
 294 302 l 1,25,-1
 425 235 l 1,22,-1
EndSplineSet
EndChar

StartChar: onehalf
Encoding: 189 189 127
Width: 1229
GlyphClass: 1
Flags: W
LayerCount: 2
Fore
SplineSet
375 752 m 1,0,-1
 375 1459 l 1,1,-1
 358 1459 l 1,2,-1
 24 1351 l 1,3,-1
 24 1211 l 1,4,-1
 196 1250 l 1,5,-1
 196 752 l 1,6,-1
 375 752 l 1,0,-1
1207 0 m 1,7,-1
 1207 143 l 1,8,-1
 887 143 l 1,9,-1
 993 227 l 2,10,11
 1041 266 1041 266 1077 298 c 128,-1,12
 1113 330 1113 330 1137 362 c 0,13,14
 1162 393 1162 393 1174 425.5 c 128,-1,15
 1186 458 1186 458 1186 498 c 0,16,17
 1186 548 1186 548 1169.5 588 c 128,-1,18
 1153 628 1153 628 1121 656 c 0,19,20
 1086 688 1086 688 1032 704 c 128,-1,21
 978 720 978 720 909 720 c 0,22,23
 845 720 845 720 794.5 700.5 c 128,-1,24
 744 681 744 681 708 648 c 0,25,26
 672 614 672 614 653 569.5 c 128,-1,27
 634 525 634 525 634 474 c 1,28,-1
 815 474 l 1,29,30
 815 492 815 492 820 509.5 c 128,-1,31
 825 527 825 527 836 540 c 0,32,33
 849 556 849 556 869 565.5 c 128,-1,34
 889 575 889 575 917 575 c 0,35,36
 941 575 941 575 958.5 568.5 c 128,-1,37
 976 562 976 562 987 549 c 0,38,39
 995 539 995 539 999.5 525.5 c 128,-1,40
 1004 512 1004 512 1004 497 c 0,41,42
 1004 484 1004 484 997.5 466.5 c 128,-1,43
 991 449 991 449 976 428 c 0,44,45
 965 410 965 410 948 392 c 128,-1,46
 931 374 931 374 909 354 c 2,47,-1
 651 121 l 1,48,-1
 651 0 l 1,49,-1
 1207 0 l 1,7,-1
356 235 m 1,50,-1
 867 1173 l 1,51,-1
 736 1240 l 1,52,-1
 225 302 l 1,53,-1
 356 235 l 1,50,-1
EndSplineSet
EndChar

StartChar: threequarters
Encoding: 190 190 128
Width: 1229
GlyphClass: 1
Flags: W
LayerCount: 2
Fore
SplineSet
1136 291 m 1,0,-1
 1136 710 l 1,1,-1
 955 710 l 1,2,-1
 633 262 l 1,3,-1
 643 144 l 1,4,-1
 954 144 l 1,5,-1
 954 0 l 1,6,-1
 1136 0 l 1,7,-1
 1136 144 l 1,8,-1
 1218 144 l 1,9,-1
 1218 291 l 1,10,-1
 1136 291 l 1,0,-1
806 291 m 1,11,-1
 943 467 l 1,12,-1
 954 484 l 1,13,-1
 954 291 l 1,14,-1
 806 291 l 1,11,-1
233 1166 m 1,15,-1
 233 1045 l 1,16,-1
 312 1045 l 2,17,18
 346 1045 346 1045 371.5 1037.5 c 128,-1,19
 397 1030 397 1030 411 1014 c 0,20,21
 419 1004 419 1004 423.5 990.5 c 128,-1,22
 428 977 428 977 428 959 c 0,23,24
 428 944 428 944 423 929.5 c 128,-1,25
 418 915 418 915 406 904 c 0,26,27
 393 893 393 893 373.5 885.5 c 128,-1,28
 354 878 354 878 325 878 c 0,29,30
 298 878 298 878 277 885 c 128,-1,31
 256 892 256 892 242 902 c 0,32,33
 229 913 229 913 222 926.5 c 128,-1,34
 215 940 215 940 215 955 c 1,35,-1
 33 955 l 1,36,37
 33 894 33 894 58.5 852.5 c 128,-1,38
 84 811 84 811 124 785 c 0,39,40
 164 758 164 758 214 746 c 128,-1,41
 264 734 264 734 314 734 c 0,42,43
 377 734 377 734 431 748 c 128,-1,44
 485 762 485 762 526 789 c 0,45,46
 565 815 565 815 587.5 854 c 128,-1,47
 610 893 610 893 610 943 c 0,48,49
 610 983 610 983 598 1013 c 128,-1,50
 586 1043 586 1043 563 1064 c 0,51,52
 546 1079 546 1079 524 1089.5 c 128,-1,53
 502 1100 502 1100 475 1108 c 1,54,55
 498 1116 498 1116 516.5 1127 c 128,-1,56
 535 1138 535 1138 551 1152 c 0,57,58
 572 1173 572 1173 584.5 1200 c 128,-1,59
 597 1227 597 1227 597 1261 c 0,60,61
 597 1310 597 1310 576 1348.5 c 128,-1,62
 555 1387 555 1387 518 1413 c 0,63,64
 481 1438 481 1438 429 1451 c 128,-1,65
 377 1464 377 1464 314 1464 c 0,66,67
 260 1464 260 1464 211.5 1451 c 128,-1,68
 163 1438 163 1438 126 1413 c 0,69,70
 89 1387 89 1387 67 1349 c 128,-1,71
 45 1311 45 1311 45 1262 c 1,72,-1
 226 1262 l 1,73,74
 226 1274 226 1274 232 1284.5 c 128,-1,75
 238 1295 238 1295 250 1302 c 0,76,77
 263 1310 263 1310 281 1314.5 c 128,-1,78
 299 1319 299 1319 319 1319 c 0,79,80
 346 1319 346 1319 364.5 1313 c 128,-1,81
 383 1307 383 1307 395 1297 c 0,82,83
 406 1286 406 1286 411.5 1273.5 c 128,-1,84
 417 1261 417 1261 417 1247 c 0,85,86
 417 1228 417 1228 410.5 1213 c 128,-1,87
 404 1198 404 1198 391 1187 c 0,88,89
 378 1177 378 1177 358 1171.5 c 128,-1,90
 338 1166 338 1166 312 1166 c 2,91,-1
 233 1166 l 1,15,-1
509 235 m 1,92,-1
 1020 1173 l 1,93,-1
 889 1240 l 1,94,-1
 378 302 l 1,95,-1
 509 235 l 1,92,-1
EndSplineSet
EndChar

StartChar: questiondown
Encoding: 191 191 129
Width: 1229
GlyphClass: 1
Flags: W
LayerCount: 2
Fore
SplineSet
791 639 m 1,0,-1
 542 639 l 1,1,2
 541 599 541 599 540.5 571.5 c 128,-1,3
 540 544 540 544 533 521 c 256,4,5
 526 498 526 498 510.5 476 c 128,-1,6
 495 454 495 454 464 425 c 0,7,8
 417 381 417 381 370 335 c 128,-1,9
 323 289 323 289 286 238 c 0,10,11
 248 186 248 186 225 127 c 128,-1,12
 202 68 202 68 202 -2 c 0,13,14
 202 -97 202 -97 232.5 -170 c 128,-1,15
 263 -243 263 -243 320 -292 c 0,16,17
 377 -342 377 -342 459.5 -367.5 c 128,-1,18
 542 -393 542 -393 647 -393 c 0,19,20
 741 -393 741 -393 823 -369 c 128,-1,21
 905 -345 905 -345 965 -296 c 256,22,23
 1025 -247 1025 -247 1060 -172.5 c 128,-1,24
 1095 -98 1095 -98 1097 3 c 1,25,-1
 818 3 l 1,26,27
 817 -42 817 -42 802.5 -74 c 128,-1,28
 788 -106 788 -106 764 -126 c 256,29,30
 740 -146 740 -146 708.5 -155.5 c 128,-1,31
 677 -165 677 -165 642 -165 c 0,32,33
 604 -165 604 -165 573 -154.5 c 128,-1,34
 542 -144 542 -144 522 -123 c 256,35,36
 502 -102 502 -102 491.5 -71.5 c 128,-1,37
 481 -41 481 -41 481 -1 c 0,38,39
 481 41 481 41 497.5 80.5 c 128,-1,40
 514 120 514 120 540 158 c 0,41,42
 566 195 566 195 598.5 230.5 c 128,-1,43
 631 266 631 266 663 299 c 1,44,45
 711 335 711 335 736.5 367 c 128,-1,46
 762 399 762 399 774 437 c 0,47,48
 786 474 786 474 788.5 522.5 c 128,-1,49
 791 571 791 571 791 639 c 1,0,-1
538 942 m 0,50,51
 538 890 538 890 566 853.5 c 128,-1,52
 594 817 594 817 670 817 c 0,53,54
 745 817 745 817 775 853 c 128,-1,55
 805 889 805 889 805 942 c 0,56,57
 805 999 805 999 775 1037.5 c 128,-1,58
 745 1076 745 1076 670 1076 c 0,59,60
 594 1076 594 1076 566 1037 c 128,-1,61
 538 998 538 998 538 942 c 0,50,51
EndSplineSet
EndChar

StartChar: AE
Encoding: 198 198 136
Width: 1229
GlyphClass: 1
Flags: W
LayerCount: 2
Fore
SplineSet
1177 0 m 1,0,-1
 1177 226 l 1,1,-1
 908 226 l 1,2,-1
 908 635 l 1,3,-1
 1125 635 l 1,4,-1
 1125 862 l 1,5,-1
 908 862 l 1,6,-1
 908 1228 l 1,7,-1
 1156 1228 l 1,8,-1
 1156 1456 l 1,9,-1
 527 1456 l 1,10,-1
 48 0 l 1,11,-1
 330 0 l 1,12,-1
 424 334 l 1,13,-1
 641 334 l 1,14,-1
 641 0 l 1,15,-1
 1177 0 l 1,0,-1
491 574 m 1,16,-1
 641 1106 l 1,17,-1
 641 574 l 1,18,-1
 491 574 l 1,16,-1
EndSplineSet
EndChar

StartChar: Eth
Encoding: 208 208 146
Width: 1229
GlyphClass: 1
Flags: W
LayerCount: 2
Fore
SplineSet
140 0 m 1,0,-1
 531 0 l 2,1,2
 670 0 670 0 785 49 c 128,-1,3
 900 98 900 98 982 187 c 0,4,5
 1064 275 1064 275 1109.5 397.5 c 128,-1,6
 1155 520 1155 520 1155 667 c 2,7,-1
 1155 787 l 2,8,9
 1155 934 1155 934 1109.5 1057 c 128,-1,10
 1064 1180 1064 1180 981 1269 c 0,11,12
 897 1357 897 1357 779.5 1406.5 c 128,-1,13
 662 1456 662 1456 517 1456 c 2,14,-1
 140 1456 l 1,15,-1
 140 823 l 1,16,-1
 -42 823 l 1,17,-1
 -42 643 l 1,18,-1
 140 643 l 1,19,-1
 140 0 l 1,0,-1
650 643 m 1,20,-1
 650 823 l 1,21,-1
 423 823 l 1,22,-1
 423 1228 l 1,23,-1
 517 1228 l 2,24,25
 603 1228 603 1228 668.5 1196 c 128,-1,26
 734 1164 734 1164 779 1106 c 0,27,28
 823 1048 823 1048 845.5 967.5 c 128,-1,29
 868 887 868 887 868 789 c 2,30,-1
 868 667 l 2,31,32
 868 563 868 563 845 481.5 c 128,-1,33
 822 400 822 400 779 343 c 0,34,35
 735 286 735 286 672.5 256 c 128,-1,36
 610 226 610 226 531 226 c 2,37,-1
 423 226 l 1,38,-1
 423 643 l 1,39,-1
 650 643 l 1,20,-1
EndSplineSet
Substitution2: "'smcp' Lowercase to Small Capitals lookup 0 subtable" Eth.smcp
EndChar

StartChar: multiply
Encoding: 215 215 153
Width: 1229
GlyphClass: 1
Flags: W
LayerCount: 2
Fore
SplineSet
157 371 m 1,0,-1
 322 207 l 1,1,-1
 629 520 l 1,2,-1
 936 207 l 1,3,-1
 1101 371 l 1,4,-1
 792 686 l 1,5,-1
 1101 1001 l 1,6,-1
 936 1165 l 1,7,-1
 629 852 l 1,8,-1
 322 1165 l 1,9,-1
 157 1001 l 1,10,-1
 466 686 l 1,11,-1
 157 371 l 1,0,-1
EndSplineSet
EndChar

StartChar: Oslash
Encoding: 216 216 154
Width: 1229
GlyphClass: 1
Flags: W
LayerCount: 2
Fore
SplineSet
1152 621 m 2,0,-1
 1152 833 l 2,1,2
 1152 971 1152 971 1116.5 1086.5 c 128,-1,3
 1081 1202 1081 1202 1013 1288 c 1,4,-1
 1143 1518 l 1,5,-1
 959 1518 l 1,6,-1
 891 1398 l 1,7,8
 865 1415 865 1415 836 1428.5 c 128,-1,9
 807 1442 807 1442 777 1452 c 0,10,11
 739 1464 739 1464 697 1470 c 128,-1,12
 655 1476 655 1476 610 1476 c 0,13,14
 484 1476 484 1476 386.5 1428 c 128,-1,15
 289 1380 289 1380 222 1295 c 0,16,17
 155 1209 155 1209 120 1091 c 128,-1,18
 85 973 85 973 85 833 c 2,19,-1
 85 621 l 2,20,21
 85 555 85 555 92.5 493.5 c 128,-1,22
 100 432 100 432 115 377 c 0,23,24
 130 323 130 323 152.5 274 c 128,-1,25
 175 225 175 225 205 183 c 1,26,-1
 48 -95 l 1,27,-1
 231 -95 l 1,28,-1
 322 65 l 1,29,30
 381 23 381 23 453 1.5 c 128,-1,31
 525 -20 525 -20 611 -20 c 0,32,33
 737 -20 737 -20 837.5 27.5 c 128,-1,34
 938 75 938 75 1008 160 c 256,35,36
 1078 245 1078 245 1115 363 c 128,-1,37
 1152 481 1152 481 1152 621 c 2,0,-1
370 621 m 2,38,-1
 370 835 l 2,39,40
 370 924 370 924 382 999 c 128,-1,41
 394 1074 394 1074 422 1128 c 256,42,43
 450 1182 450 1182 496 1212.5 c 128,-1,44
 542 1243 542 1243 610 1243 c 0,45,46
 635 1243 635 1243 658 1238.5 c 128,-1,47
 681 1234 681 1234 701 1226 c 0,48,49
 720 1218 720 1218 736.5 1206.5 c 128,-1,50
 753 1195 753 1195 768 1180 c 1,51,-1
 378 489 l 1,52,53
 376 502 376 502 375 515 c 128,-1,54
 374 528 374 528 373 541 c 0,55,56
 371 560 371 560 370.5 580 c 128,-1,57
 370 600 370 600 370 621 c 2,38,-1
867 835 m 2,58,-1
 867 621 l 2,59,60
 867 532 867 532 852 457 c 128,-1,61
 837 382 837 382 807 328 c 0,62,63
 776 273 776 273 727.5 242 c 128,-1,64
 679 211 679 211 611 211 c 0,65,66
 556 211 556 211 516 231 c 128,-1,67
 476 251 476 251 447 287 c 1,68,-1
 851 1002 l 1,69,70
 859 964 859 964 863 922 c 128,-1,71
 867 880 867 880 867 835 c 2,58,-1
EndSplineSet
EndChar

StartChar: Thorn
Encoding: 222 222 160
Width: 1229
GlyphClass: 1
Flags: W
LayerCount: 2
Fore
SplineSet
415 1456 m 1,0,-1
 136 1456 l 1,1,-1
 136 0 l 1,2,-1
 415 0 l 1,3,-1
 415 289 l 1,4,-1
 642 289 l 2,5,6
 771 289 771 289 870 322.5 c 128,-1,7
 969 356 969 356 1037 416 c 0,8,9
 1104 475 1104 475 1139 557.5 c 128,-1,10
 1174 640 1174 640 1174 738 c 0,11,12
 1174 835 1174 835 1139 917.5 c 128,-1,13
 1104 1000 1104 1000 1037 1059 c 0,14,15
 969 1118 969 1118 870 1151.5 c 128,-1,16
 771 1185 771 1185 642 1185 c 2,17,-1
 415 1185 l 1,18,-1
 415 1456 l 1,0,-1
415 961 m 1,19,-1
 642 961 l 2,20,21
 710 961 710 961 758 942 c 128,-1,22
 806 923 806 923 837 892 c 0,23,24
 867 861 867 861 881 820 c 128,-1,25
 895 779 895 779 895 736 c 256,26,27
 895 693 895 693 881 652.5 c 128,-1,28
 867 612 867 612 837 581 c 0,29,30
 806 550 806 550 758 531.5 c 128,-1,31
 710 513 710 513 642 513 c 2,32,-1
 415 513 l 1,33,-1
 415 961 l 1,19,-1
EndSplineSet
EndChar

StartChar: germandbls
Encoding: 223 223 161
Width: 1229
GlyphClass: 1
Flags: W
LayerCount: 2
Fore
SplineSet
439 0 m 1,0,-1
 439 1072 l 2,1,2
 439 1142 439 1142 452.5 1192.5 c 128,-1,3
 466 1243 466 1243 489 1276 c 0,4,5
 512 1308 512 1308 543.5 1323.5 c 128,-1,6
 575 1339 575 1339 610 1339 c 0,7,8
 635 1339 635 1339 660 1328 c 128,-1,9
 685 1317 685 1317 705 1297 c 0,10,11
 725 1276 725 1276 737.5 1246.5 c 128,-1,12
 750 1217 750 1217 750 1180 c 0,13,14
 750 1129 750 1129 736 1092.5 c 128,-1,15
 722 1056 722 1056 703 1025 c 0,16,17
 678 985 678 985 657 937.5 c 128,-1,18
 636 890 636 890 636 821 c 0,19,20
 636 756 636 756 656 707 c 128,-1,21
 676 658 676 658 706 619 c 0,22,23
 735 580 735 580 769.5 547.5 c 128,-1,24
 804 515 804 515 834 484 c 0,25,26
 863 452 863 452 883 418.5 c 128,-1,27
 903 385 903 385 903 344 c 0,28,29
 903 310 903 310 893.5 282.5 c 128,-1,30
 884 255 884 255 866 237 c 0,31,32
 849 220 849 220 826 211 c 128,-1,33
 803 202 803 202 774 202 c 0,34,35
 739 202 739 202 706 207.5 c 128,-1,36
 673 213 673 213 645 221 c 0,37,38
 616 229 616 229 593 239 c 128,-1,39
 570 249 570 249 554 258 c 1,40,-1
 500 37 l 1,41,42
 521 23 521 23 553 12.5 c 128,-1,43
 585 2 585 2 623 -5 c 0,44,45
 661 -13 661 -13 702 -17 c 128,-1,46
 743 -21 743 -21 782 -21 c 0,47,48
 877 -21 877 -21 951.5 3.5 c 128,-1,49
 1026 28 1026 28 1077 75 c 256,50,51
 1128 122 1128 122 1154.5 191.5 c 128,-1,52
 1181 261 1181 261 1181 350 c 0,53,54
 1181 413 1181 413 1161 463.5 c 128,-1,55
 1141 514 1141 514 1112 556 c 0,56,57
 1082 597 1082 597 1047.5 632.5 c 128,-1,58
 1013 668 1013 668 984 701 c 0,59,60
 954 733 954 733 934 765 c 128,-1,61
 914 797 914 797 914 832 c 0,62,63
 914 889 914 889 930.5 925.5 c 128,-1,64
 947 962 947 962 968 995 c 0,65,66
 987 1028 987 1028 1005.5 1073 c 128,-1,67
 1024 1118 1024 1118 1024 1196 c 0,68,69
 1024 1288 1024 1288 991.5 1356.5 c 128,-1,70
 959 1425 959 1425 905 1471 c 0,71,72
 850 1517 850 1517 778 1539.5 c 128,-1,73
 706 1562 706 1562 627 1562 c 0,74,75
 525 1562 525 1562 439.5 1530.5 c 128,-1,76
 354 1499 354 1499 293 1438 c 0,77,78
 231 1376 231 1376 196.5 1285 c 128,-1,79
 162 1194 162 1194 162 1076 c 2,80,-1
 162 0 l 1,81,-1
 439 0 l 1,0,-1
EndSplineSet
Substitution2: "'smcp' Lowercase to Small Capitals lookup 0 subtable" Germandbls.smcp
EndChar

StartChar: ae
Encoding: 230 230 168
Width: 1229
GlyphClass: 1
Flags: W
LayerCount: 2
Fore
SplineSet
868 -20 m 0,0,1
 918 -20 918 -20 963 -13.5 c 128,-1,2
 1008 -7 1008 -7 1047 4 c 0,3,4
 1085 15 1085 15 1115.5 29.5 c 128,-1,5
 1146 44 1146 44 1166 60 c 1,6,-1
 1111 252 l 1,7,8
 1090 243 1090 243 1070 234 c 128,-1,9
 1050 225 1050 225 1028 219 c 0,10,11
 1005 212 1005 212 978 207.5 c 128,-1,12
 951 203 951 203 917 203 c 0,13,14
 885 203 885 203 859.5 208 c 128,-1,15
 834 213 834 213 815 223 c 0,16,17
 794 234 794 234 780 249.5 c 128,-1,18
 766 265 766 265 757 284 c 0,19,20
 750 301 750 301 746.5 321 c 128,-1,21
 743 341 743 341 743 363 c 2,22,-1
 743 454 l 1,23,-1
 1194 454 l 1,24,-1
 1194 699 l 2,25,26
 1194 792 1194 792 1170.5 867 c 128,-1,27
 1147 942 1147 942 1105 994 c 0,28,29
 1062 1046 1062 1046 1001.5 1074 c 128,-1,30
 941 1102 941 1102 867 1102 c 0,31,32
 825 1103 825 1103 788 1096 c 128,-1,33
 751 1089 751 1089 720 1076 c 0,34,35
 697 1067 697 1067 677 1054.5 c 128,-1,36
 657 1042 657 1042 640 1027 c 1,37,38
 623 1042 623 1042 604.5 1053.5 c 128,-1,39
 586 1065 586 1065 565 1074 c 0,40,41
 532 1088 532 1088 492.5 1095 c 128,-1,42
 453 1102 453 1102 408 1102 c 0,43,44
 329 1102 329 1102 266.5 1079.5 c 128,-1,45
 204 1057 204 1057 160 1016 c 256,46,47
 116 975 116 975 92.5 916 c 128,-1,48
 69 857 69 857 69 785 c 1,49,-1
 330 776 l 1,50,51
 330 800 330 800 334 817.5 c 128,-1,52
 338 835 338 835 347 847 c 0,53,54
 358 863 358 863 377 870 c 128,-1,55
 396 877 396 877 422 877 c 0,56,57
 439 877 439 877 451.5 872.5 c 128,-1,58
 464 868 464 868 474 858 c 0,59,60
 487 845 487 845 493.5 822 c 128,-1,61
 500 799 500 799 500 767 c 2,62,-1
 500 648 l 1,63,-1
 497 648 l 2,64,65
 371 648 371 648 279 618.5 c 128,-1,66
 187 589 187 589 131 532 c 0,67,68
 89 489 89 489 67.5 429.5 c 128,-1,69
 46 370 46 370 46 297 c 0,70,71
 46 225 46 225 67 166 c 128,-1,72
 88 107 88 107 129 66 c 0,73,74
 169 25 169 25 228 2.5 c 128,-1,75
 287 -20 287 -20 364 -20 c 0,76,77
 405 -20 405 -20 439.5 -10.5 c 128,-1,78
 474 -1 474 -1 504 15 c 0,79,80
 533 31 533 31 556.5 53 c 128,-1,81
 580 75 580 75 598 99 c 1,82,83
 616 76 616 76 638 57 c 128,-1,84
 660 38 660 38 685 24 c 0,85,86
 723 2 723 2 768.5 -9 c 128,-1,87
 814 -20 814 -20 868 -20 c 0,0,1
434 185 m 0,88,89
 405 185 405 185 383.5 193 c 128,-1,90
 362 201 362 201 349 216 c 0,91,92
 336 230 336 230 329.5 249.5 c 128,-1,93
 323 269 323 269 323 293 c 0,94,95
 323 327 323 327 334.5 358 c 128,-1,96
 346 389 346 389 369 413 c 0,97,98
 391 436 391 436 423.5 450 c 128,-1,99
 456 464 456 464 499 464 c 2,100,-1
 500 464 l 1,101,102
 500 429 500 429 500 404 c 128,-1,103
 500 379 500 379 500 352 c 0,104,105
 500 316 500 316 500 289 c 128,-1,106
 500 262 500 262 500 214 c 1,107,108
 496 209 496 209 490 204 c 128,-1,109
 484 199 484 199 477 196 c 0,110,111
 467 191 467 191 455.5 188 c 128,-1,112
 444 185 444 185 434 185 c 0,88,89
938 643 m 1,113,-1
 743 643 l 1,114,-1
 743 704 l 2,115,116
 743 725 743 725 744 744.5 c 128,-1,117
 745 764 745 764 748 781 c 0,118,119
 752 807 752 807 761 827.5 c 128,-1,120
 770 848 770 848 786 860 c 0,121,122
 797 868 797 868 812 872.5 c 128,-1,123
 827 877 827 877 847 877 c 0,124,125
 871 877 871 877 888 869 c 128,-1,126
 905 861 905 861 916 846 c 0,127,128
 927 830 927 830 932.5 807 c 128,-1,129
 938 784 938 784 938 755 c 2,130,-1
 938 643 l 1,113,-1
EndSplineSet
EndChar

StartChar: eth
Encoding: 240 240 178
Width: 1229
GlyphClass: 1
Flags: W
LayerCount: 2
Fore
SplineSet
899 1264 m 1,0,-1
 1076 1362 l 1,1,-1
 998 1475 l 1,2,-1
 799 1365 l 1,3,4
 734 1419 734 1419 660 1456.5 c 128,-1,5
 586 1494 586 1494 502 1515 c 1,6,-1
 414 1298 l 1,7,8
 449 1285 449 1285 484 1268 c 128,-1,9
 519 1251 519 1251 552 1229 c 1,10,-1
 341 1112 l 1,11,-1
 419 1000 l 1,12,-1
 661 1133 l 1,13,14
 705 1084 705 1084 739 1021 c 128,-1,15
 773 958 773 958 794 879 c 1,16,17
 740 921 740 921 672.5 944 c 128,-1,18
 605 967 605 967 530 967 c 0,19,20
 416 967 416 967 325 931 c 128,-1,21
 234 895 234 895 171 830 c 0,22,23
 107 764 107 764 72.5 672 c 128,-1,24
 38 580 38 580 38 468 c 0,25,26
 38 366 38 366 75.5 277 c 128,-1,27
 113 188 113 188 182 122 c 0,28,29
 250 55 250 55 346 17 c 128,-1,30
 442 -21 442 -21 558 -21 c 0,31,32
 631 -21 631 -21 698.5 -3.5 c 128,-1,33
 766 14 766 14 824 48 c 0,34,35
 896 88 896 88 953 152 c 128,-1,36
 1010 216 1010 216 1046 299 c 0,37,38
 1072 359 1072 359 1086.5 430 c 128,-1,39
 1101 501 1101 501 1101 579 c 2,40,-1
 1101 647 l 2,41,42
 1101 839 1101 839 1047.5 994 c 128,-1,43
 994 1149 994 1149 899 1264 c 1,0,-1
562 202 m 0,44,45
 503 202 503 202 457.5 223.5 c 128,-1,46
 412 245 412 245 381 282 c 0,47,48
 349 318 349 318 332.5 366 c 128,-1,49
 316 414 316 414 316 468 c 0,50,51
 316 524 316 524 331.5 576 c 128,-1,52
 347 628 347 628 377 668 c 0,53,54
 406 707 406 707 448 731 c 128,-1,55
 490 755 490 755 544 755 c 0,56,57
 651 755 651 755 720.5 727 c 128,-1,58
 790 699 790 699 822 661 c 1,59,60
 822 641 822 641 822 633.5 c 128,-1,61
 822 626 822 626 822 619 c 2,62,-1
 822 554 l 2,63,64
 822 507 822 507 815.5 464.5 c 128,-1,65
 809 422 809 422 796 386 c 0,66,67
 781 340 781 340 755 304.5 c 128,-1,68
 729 269 729 269 696 244 c 0,69,70
 668 224 668 224 634 213 c 128,-1,71
 600 202 600 202 562 202 c 0,44,45
EndSplineSet
Substitution2: "'smcp' Lowercase to Small Capitals lookup 0 subtable" Eth.smcp
EndChar

StartChar: divide
Encoding: 247 247 185
Width: 1229
GlyphClass: 1
Flags: W
LayerCount: 2
Fore
SplineSet
1132 573 m 1,0,-1
 1132 800 l 1,1,-1
 108 800 l 1,2,-1
 108 573 l 1,3,-1
 1132 573 l 1,0,-1
465 1089 m 256,4,5
 465 1028 465 1028 506 988 c 128,-1,6
 547 948 547 948 617 948 c 0,7,8
 688 948 688 948 729 988 c 128,-1,9
 770 1028 770 1028 770 1089 c 256,10,11
 770 1150 770 1150 729 1190 c 128,-1,12
 688 1230 688 1230 617 1230 c 0,13,14
 547 1230 547 1230 506 1190 c 128,-1,15
 465 1150 465 1150 465 1089 c 256,4,5
463 278 m 0,16,17
 463 217 463 217 504 177 c 128,-1,18
 545 137 545 137 615 137 c 0,19,20
 686 137 686 137 727 177 c 128,-1,21
 768 217 768 217 768 278 c 256,22,23
 768 339 768 339 727 379.5 c 128,-1,24
 686 420 686 420 615 420 c 0,25,26
 545 420 545 420 504 379 c 128,-1,27
 463 338 463 338 463 278 c 0,16,17
EndSplineSet
EndChar

StartChar: oslash
Encoding: 248 248 186
Width: 1229
GlyphClass: 1
Flags: W
LayerCount: 2
Fore
SplineSet
103 551 m 2,0,-1
 103 530 l 2,1,2
 103 380 103 380 157 259.5 c 128,-1,3
 211 139 211 139 314 67 c 1,4,-1
 212 -141 l 1,5,-1
 369 -141 l 1,6,-1
 440 5 l 1,7,8
 481 -8 481 -8 524.5 -14.5 c 128,-1,9
 568 -21 568 -21 615 -21 c 0,10,11
 736 -21 736 -21 831 20.5 c 128,-1,12
 926 62 926 62 991 136 c 256,13,14
 1056 210 1056 210 1090 310.5 c 128,-1,15
 1124 411 1124 411 1124 530 c 2,16,-1
 1124 551 l 2,17,18
 1124 633 1124 633 1108 706.5 c 128,-1,19
 1092 780 1092 780 1060 842 c 0,20,21
 1036 889 1036 889 1003 929.5 c 128,-1,22
 970 970 970 970 928 1002 c 1,23,-1
 1032 1215 l 1,24,-1
 875 1215 l 1,25,-1
 804 1070 l 1,26,27
 761 1086 761 1086 713 1094 c 128,-1,28
 665 1102 665 1102 613 1102 c 0,29,30
 491 1102 491 1102 396.5 1060 c 128,-1,31
 302 1018 302 1018 237 944 c 0,32,33
 171 870 171 870 137 769.5 c 128,-1,34
 103 669 103 669 103 551 c 2,0,-1
381 530 m 2,35,-1
 381 551 l 2,36,37
 381 617 381 617 394 676 c 128,-1,38
 407 735 407 735 435 780 c 256,39,40
 463 825 463 825 507 851 c 128,-1,41
 551 877 551 877 613 877 c 0,42,43
 638 877 638 877 660 873 c 128,-1,44
 682 869 682 869 701 860 c 1,45,-1
 430 305 l 1,46,47
 404 349 404 349 392.5 406.5 c 128,-1,48
 381 464 381 464 381 530 c 2,35,-1
845 551 m 2,49,-1
 845 530 l 2,50,51
 845 462 845 462 832 402.5 c 128,-1,52
 819 343 819 343 792 299 c 0,53,54
 764 254 764 254 720 228 c 128,-1,55
 676 202 676 202 615 202 c 0,56,57
 596 202 596 202 578 205 c 128,-1,58
 560 208 560 208 542 213 c 1,59,-1
 806 753 l 1,60,61
 815 734 815 734 822 712 c 128,-1,62
 829 690 829 690 834 667 c 0,63,64
 840 640 840 640 842.5 611 c 128,-1,65
 845 582 845 582 845 551 c 2,49,-1
EndSplineSet
EndChar

StartChar: thorn
Encoding: 254 254 192
Width: 1229
GlyphClass: 1
Flags: W
LayerCount: 2
Fore
SplineSet
1113 531 m 2,0,-1
 1113 552 l 2,1,2
 1113 675 1113 675 1085.5 776.5 c 128,-1,3
 1058 878 1058 878 1005 951 c 0,4,5
 951 1023 951 1023 872 1062.5 c 128,-1,6
 793 1102 793 1102 690 1102 c 0,7,8
 642 1102 642 1102 601 1093 c 128,-1,9
 560 1084 560 1084 525 1066 c 0,10,11
 496 1052 496 1052 470.5 1032 c 128,-1,12
 445 1012 445 1012 423 987 c 1,13,-1
 423 1543 l 1,14,-1
 145 1543 l 1,15,-1
 145 -416 l 1,16,-1
 423 -416 l 1,17,-1
 423 95 l 1,18,19
 440 76 440 76 458.5 60 c 128,-1,20
 477 44 477 44 497 31 c 0,21,22
 537 6 537 6 585.5 -7 c 128,-1,23
 634 -20 634 -20 692 -20 c 0,24,25
 794 -20 794 -20 872.5 22 c 128,-1,26
 951 64 951 64 1005 138 c 0,27,28
 1058 211 1058 211 1085.5 312 c 128,-1,29
 1113 413 1113 413 1113 531 c 2,0,-1
835 552 m 2,30,-1
 835 531 l 2,31,32
 835 464 835 464 823.5 404.5 c 128,-1,33
 812 345 812 345 786 300 c 256,34,35
 760 255 760 255 718.5 229 c 128,-1,36
 677 203 677 203 618 203 c 0,37,38
 581 203 581 203 550.5 211 c 128,-1,39
 520 219 520 219 496 233 c 0,40,41
 472 248 472 248 454 269 c 128,-1,42
 436 290 436 290 423 316 c 1,43,-1
 423 766 l 1,44,45
 438 796 438 796 459.5 818.5 c 128,-1,46
 481 841 481 841 510 855 c 0,47,48
 531 865 531 865 558 870.5 c 128,-1,49
 585 876 585 876 616 876 c 0,50,51
 674 876 674 876 716 851 c 128,-1,52
 758 826 758 826 784 783 c 0,53,54
 810 739 810 739 822.5 679.5 c 128,-1,55
 835 620 835 620 835 552 c 2,30,-1
EndSplineSet
EndChar

StartChar: Aogonek
Encoding: 260 260 198
Width: 1229
GlyphClass: 1
Flags: W
LayerCount: 2
Fore
SplineSet
760 1456 m 1,0,-1
 505 1456 l 1,1,-1
 28 0 l 1,2,-1
 324 0 l 1,3,-1
 410 304 l 1,4,-1
 847 304 l 1,5,-1
 928 14 l 1,6,7
 897 -8 897 -8 872.5 -33.5 c 128,-1,8
 848 -59 848 -59 832 -86 c 0,9,10
 812 -117 812 -117 802 -150.5 c 128,-1,11
 792 -184 792 -184 792 -217 c 0,12,13
 792 -268 792 -268 809.5 -306.5 c 128,-1,14
 827 -345 827 -345 857 -371 c 256,15,16
 887 -397 887 -397 927.5 -410.5 c 128,-1,17
 968 -424 968 -424 1014 -424 c 0,18,19
 1083 -424 1083 -424 1127.5 -409.5 c 128,-1,20
 1172 -395 1172 -395 1200 -380 c 1,21,-1
 1153 -226 l 1,22,23
 1139 -232 1139 -232 1119 -239 c 128,-1,24
 1099 -246 1099 -246 1070 -246 c 0,25,26
 1033 -246 1033 -246 1018 -226.5 c 128,-1,27
 1003 -207 1003 -207 1003 -178 c 0,28,29
 1003 -151 1003 -151 1010.5 -126.5 c 128,-1,30
 1018 -102 1018 -102 1036 -80 c 256,31,32
 1054 -58 1054 -58 1084 -38 c 128,-1,33
 1114 -18 1114 -18 1159 0 c 1,34,-1
 1228 0 l 1,35,-1
 760 1456 l 1,0,-1
479 543 m 1,36,-1
 632 1079 l 1,37,-1
 781 543 l 1,38,-1
 479 543 l 1,36,-1
EndSplineSet
Substitution2: "'smcp' Lowercase to Small Capitals lookup 0 subtable" Aogonek.smcp
EndChar

StartChar: aogonek
Encoding: 261 261 199
Width: 1229
GlyphClass: 1
Flags: W
LayerCount: 2
Fore
SplineSet
812 10 m 1,0,1
 783 -11 783 -11 760.5 -35 c 128,-1,2
 738 -59 738 -59 722 -84 c 0,3,4
 702 -116 702 -116 691.5 -149.5 c 128,-1,5
 681 -183 681 -183 681 -217 c 0,6,7
 681 -268 681 -268 698.5 -306.5 c 128,-1,8
 716 -345 716 -345 746 -371 c 256,9,10
 776 -397 776 -397 816.5 -410.5 c 128,-1,11
 857 -424 857 -424 903 -424 c 0,12,13
 972 -424 972 -424 1016.5 -409.5 c 128,-1,14
 1061 -395 1061 -395 1089 -380 c 1,15,-1
 1042 -226 l 1,16,17
 1028 -232 1028 -232 1008 -239 c 128,-1,18
 988 -246 988 -246 959 -246 c 0,19,20
 922 -246 922 -246 907 -226.5 c 128,-1,21
 892 -207 892 -207 892 -178 c 0,22,23
 892 -151 892 -151 899.5 -126.5 c 128,-1,24
 907 -102 907 -102 925 -80 c 256,25,26
 943 -58 943 -58 973 -38 c 128,-1,27
 1003 -18 1003 -18 1048 0 c 1,28,-1
 1099 0 l 1,29,-1
 1099 17 l 1,30,31
 1078 58 1078 58 1067 115 c 128,-1,32
 1056 172 1056 172 1056 259 c 2,33,-1
 1056 723 l 2,34,35
 1056 817 1056 817 1021 888.5 c 128,-1,36
 986 960 986 960 924 1007 c 256,37,38
 862 1054 862 1054 777.5 1078 c 128,-1,39
 693 1102 693 1102 595 1102 c 0,40,41
 486 1102 486 1102 401.5 1074.5 c 128,-1,42
 317 1047 317 1047 259 1000 c 0,43,44
 200 953 200 953 169.5 891 c 128,-1,45
 139 829 139 829 139 760 c 1,46,-1
 417 760 l 1,47,48
 417 793 417 793 428.5 819.5 c 128,-1,49
 440 846 440 846 463 864 c 0,50,51
 483 878 483 878 512 886 c 128,-1,52
 541 894 541 894 580 894 c 0,53,54
 633 894 633 894 672.5 879.5 c 128,-1,55
 712 865 712 865 737 839 c 0,56,57
 757 818 757 818 767.5 789 c 128,-1,58
 778 760 778 760 778 725 c 2,59,-1
 778 661 l 1,60,-1
 623 661 l 2,61,62
 510 661 510 661 421 642 c 128,-1,63
 332 623 332 623 269 586 c 0,64,65
 193 541 193 541 154 469 c 128,-1,66
 115 397 115 397 115 303 c 0,67,68
 115 233 115 233 143 173.5 c 128,-1,69
 171 114 171 114 221 71 c 256,70,71
 271 28 271 28 340.5 4 c 128,-1,72
 410 -20 410 -20 493 -20 c 0,73,74
 544 -20 544 -20 588 -10.5 c 128,-1,75
 632 -1 632 -1 669 16 c 0,76,77
 705 32 705 32 735 54 c 128,-1,78
 765 76 765 76 788 101 c 1,79,80
 793 75 793 75 798.5 52 c 128,-1,81
 804 29 804 29 812 10 c 1,0,1
552 195 m 0,82,83
 508 195 508 195 476.5 206.5 c 128,-1,84
 445 218 445 218 425 238 c 0,85,86
 409 255 409 255 401 277.5 c 128,-1,87
 393 300 393 300 393 325 c 0,88,89
 393 362 393 362 407 393.5 c 128,-1,90
 421 425 421 425 450 448 c 0,91,92
 479 470 479 470 525 482.5 c 128,-1,93
 571 495 571 495 636 495 c 2,94,-1
 778 495 l 1,95,-1
 778 309 l 1,96,97
 766 288 766 288 745 267.5 c 128,-1,98
 724 247 724 247 695 231 c 256,99,100
 666 215 666 215 630 205 c 128,-1,101
 594 195 594 195 552 195 c 0,82,83
EndSplineSet
Substitution2: "'smcp' Lowercase to Small Capitals lookup 0 subtable" Aogonek.smcp
EndChar

StartChar: Dcroat
Encoding: 272 272 210
Width: 1229
GlyphClass: 1
Flags: W
LayerCount: 2
Fore
SplineSet
140 0 m 1,0,-1
 531 0 l 2,1,2
 670 0 670 0 785 49 c 128,-1,3
 900 98 900 98 982 187 c 0,4,5
 1064 275 1064 275 1109.5 397.5 c 128,-1,6
 1155 520 1155 520 1155 667 c 2,7,-1
 1155 787 l 2,8,9
 1155 934 1155 934 1109.5 1057 c 128,-1,10
 1064 1180 1064 1180 981 1269 c 0,11,12
 897 1357 897 1357 779.5 1406.5 c 128,-1,13
 662 1456 662 1456 517 1456 c 2,14,-1
 140 1456 l 1,15,-1
 140 823 l 1,16,-1
 -42 823 l 1,17,-1
 -42 643 l 1,18,-1
 140 643 l 1,19,-1
 140 0 l 1,0,-1
650 643 m 1,20,-1
 650 823 l 1,21,-1
 423 823 l 1,22,-1
 423 1228 l 1,23,-1
 517 1228 l 2,24,25
 603 1228 603 1228 668.5 1196 c 128,-1,26
 734 1164 734 1164 779 1106 c 0,27,28
 823 1048 823 1048 845.5 967.5 c 128,-1,29
 868 887 868 887 868 789 c 2,30,-1
 868 667 l 2,31,32
 868 563 868 563 845 481.5 c 128,-1,33
 822 400 822 400 779 343 c 0,34,35
 735 286 735 286 672.5 256 c 128,-1,36
 610 226 610 226 531 226 c 2,37,-1
 423 226 l 1,38,-1
 423 643 l 1,39,-1
 650 643 l 1,20,-1
EndSplineSet
Substitution2: "'smcp' Lowercase to Small Capitals lookup 0 subtable" Dcroat.smcp
EndChar

StartChar: dcroat
Encoding: 273 273 211
Width: 1229
GlyphClass: 1
Flags: W
LayerCount: 2
Fore
SplineSet
1234 1220 m 1,0,-1
 1234 1400 l 1,1,-1
 1065 1400 l 1,2,-1
 1065 1536 l 1,3,-1
 786 1536 l 1,4,-1
 786 1400 l 1,5,-1
 542 1400 l 1,6,-1
 542 1220 l 1,7,-1
 786 1220 l 1,8,-1
 786 985 l 1,9,10
 769 1004 769 1004 750.5 1020 c 128,-1,11
 732 1036 732 1036 713 1049 c 0,12,13
 673 1075 673 1075 625.5 1088.5 c 128,-1,14
 578 1102 578 1102 522 1102 c 0,15,16
 421 1102 421 1102 342.5 1062 c 128,-1,17
 264 1022 264 1022 209 949 c 256,18,19
 154 876 154 876 125.5 774 c 128,-1,20
 97 672 97 672 97 549 c 2,21,-1
 97 528 l 2,22,23
 97 410 97 410 126 309.5 c 128,-1,24
 155 209 155 209 210 136 c 0,25,26
 264 63 264 63 342.5 21.5 c 128,-1,27
 421 -20 421 -20 520 -20 c 0,28,29
 575 -20 575 -20 621.5 -7 c 128,-1,30
 668 6 668 6 707 30 c 0,31,32
 733 46 733 46 756.5 67 c 128,-1,33
 780 88 780 88 800 113 c 1,34,-1
 814 0 l 1,35,-1
 1065 0 l 1,36,-1
 1065 1220 l 1,37,-1
 1234 1220 l 1,0,-1
375 528 m 2,38,-1
 375 549 l 2,39,40
 375 617 375 617 387 676.5 c 128,-1,41
 399 736 399 736 425 781 c 0,42,43
 451 825 451 825 492.5 850.5 c 128,-1,44
 534 876 534 876 593 876 c 0,45,46
 626 876 626 876 654 869 c 128,-1,47
 682 862 682 862 704 850 c 0,48,49
 731 835 731 835 751 812 c 128,-1,50
 771 789 771 789 786 760 c 1,51,-1
 786 322 l 1,52,53
 772 296 772 296 754 274.5 c 128,-1,54
 736 253 736 253 713 238 c 0,55,56
 689 223 689 223 658.5 214.5 c 128,-1,57
 628 206 628 206 591 206 c 0,58,59
 532 206 532 206 491 231 c 128,-1,60
 450 256 450 256 424 300 c 0,61,62
 398 343 398 343 386.5 401.5 c 128,-1,63
 375 460 375 460 375 528 c 2,38,-1
EndSplineSet
Substitution2: "'smcp' Lowercase to Small Capitals lookup 0 subtable" Dcroat.smcp
EndChar

StartChar: Eogonek
Encoding: 280 280 218
Width: 1229
GlyphClass: 1
Flags: W
LayerCount: 2
Fore
SplineSet
1027 638 m 1,0,-1
 1027 860 l 1,1,-1
 429 860 l 1,2,-1
 429 1227 l 1,3,-1
 1125 1227 l 1,4,-1
 1125 1456 l 1,5,-1
 147 1456 l 1,6,-1
 147 0 l 1,7,-1
 753 0 l 1,8,9
 729 -20 729 -20 709.5 -42 c 128,-1,10
 690 -64 690 -64 675 -87 c 0,11,12
 656 -118 656 -118 646 -151 c 128,-1,13
 636 -184 636 -184 636 -217 c 0,14,15
 636 -268 636 -268 653.5 -306.5 c 128,-1,16
 671 -345 671 -345 701 -371 c 256,17,18
 731 -397 731 -397 771.5 -410.5 c 128,-1,19
 812 -424 812 -424 858 -424 c 0,20,21
 927 -424 927 -424 971.5 -409.5 c 128,-1,22
 1016 -395 1016 -395 1044 -380 c 1,23,-1
 997 -226 l 1,24,25
 983 -232 983 -232 963 -239 c 128,-1,26
 943 -246 943 -246 914 -246 c 0,27,28
 877 -246 877 -246 862 -226.5 c 128,-1,29
 847 -207 847 -207 847 -178 c 0,30,31
 847 -151 847 -151 854.5 -126.5 c 128,-1,32
 862 -102 862 -102 880 -80 c 256,33,34
 898 -58 898 -58 928 -38 c 128,-1,35
 958 -18 958 -18 1003 0 c 1,36,-1
 1128 0 l 1,37,-1
 1128 227 l 1,38,-1
 429 227 l 1,39,-1
 429 638 l 1,40,-1
 1027 638 l 1,0,-1
EndSplineSet
Substitution2: "'smcp' Lowercase to Small Capitals lookup 0 subtable" Eogonek.smcp
EndChar

StartChar: eogonek
Encoding: 281 281 219
Width: 1229
GlyphClass: 1
Flags: W
LayerCount: 2
Fore
SplineSet
112 503 m 2,0,1
 112 401 112 401 147 310.5 c 128,-1,2
 182 220 182 220 247 151 c 0,3,4
 311 81 311 81 402.5 37 c 128,-1,5
 494 -7 494 -7 600 -17 c 0,6,7
 605 -18 605 -18 607 -18.5 c 128,-1,8
 609 -19 609 -19 612 -19 c 1,9,10
 569 -57 569 -57 550 -104 c 128,-1,11
 531 -151 531 -151 531 -194 c 0,12,13
 531 -245 531 -245 548.5 -283.5 c 128,-1,14
 566 -322 566 -322 596 -348 c 256,15,16
 626 -374 626 -374 666.5 -387.5 c 128,-1,17
 707 -401 707 -401 753 -401 c 0,18,19
 822 -401 822 -401 866.5 -386.5 c 128,-1,20
 911 -372 911 -372 939 -357 c 1,21,-1
 892 -203 l 1,22,23
 878 -209 878 -209 858 -216 c 128,-1,24
 838 -223 838 -223 809 -223 c 0,25,26
 772 -223 772 -223 757 -203.5 c 128,-1,27
 742 -184 742 -184 742 -155 c 0,28,29
 742 -128 742 -128 749.5 -103.5 c 128,-1,30
 757 -79 757 -79 775 -57 c 256,31,32
 793 -35 793 -35 821.5 -14.5 c 128,-1,33
 850 6 850 6 895 22 c 0,34,35
 968 49 968 49 1021.5 91 c 128,-1,36
 1075 133 1075 133 1106 177 c 1,37,-1
 967 327 l 1,38,39
 919 265 919 265 842 234 c 128,-1,40
 765 203 765 203 683 203 c 0,41,42
 625 203 625 203 576 221 c 128,-1,43
 527 239 527 239 489 272 c 256,44,45
 451 305 451 305 426.5 350 c 128,-1,46
 402 395 402 395 394 446 c 2,47,-1
 393 451 l 1,48,-1
 1128 451 l 1,49,-1
 1128 569 l 2,50,51
 1128 688 1128 688 1095 786.5 c 128,-1,52
 1062 885 1062 885 999 955 c 0,53,54
 935 1025 935 1025 843.5 1063.5 c 128,-1,55
 752 1102 752 1102 635 1102 c 0,56,57
 522 1102 522 1102 426 1061 c 128,-1,58
 330 1020 330 1020 260 946 c 256,59,60
 190 872 190 872 151 769.5 c 128,-1,61
 112 667 112 667 112 543 c 2,62,-1
 112 503 l 2,0,1
633 877 m 0,63,64
 686 877 686 877 726.5 860.5 c 128,-1,65
 767 844 767 844 795 816 c 0,66,67
 823 787 823 787 838 748 c 128,-1,68
 853 709 853 709 855 665 c 2,69,-1
 855 643 l 1,70,-1
 399 643 l 1,71,72
 409 696 409 696 429 739 c 128,-1,73
 449 782 449 782 479 813 c 0,74,75
 508 844 508 844 547 860.5 c 128,-1,76
 586 877 586 877 633 877 c 0,63,64
EndSplineSet
Substitution2: "'smcp' Lowercase to Small Capitals lookup 0 subtable" Eogonek.smcp
EndChar

StartChar: Hbar
Encoding: 294 294 232
Width: 1229
GlyphClass: 1
Flags: W
LayerCount: 2
Fore
SplineSet
1041 1218 m 1,0,-1
 1041 1456 l 1,1,-1
 763 1456 l 1,2,-1
 763 1218 l 1,3,-1
 351 1218 l 1,4,-1
 351 1456 l 1,5,-1
 72 1456 l 1,6,-1
 72 1218 l 1,7,-1
 23 1218 l 1,8,-1
 23 1047 l 1,9,-1
 72 1047 l 1,10,-1
 72 0 l 1,11,-1
 351 0 l 1,12,-1
 351 631 l 1,13,-1
 763 631 l 1,14,-1
 763 0 l 1,15,-1
 1041 0 l 1,16,-1
 1041 1047 l 1,17,-1
 1240 1047 l 1,18,-1
 1240 1218 l 1,19,-1
 1041 1218 l 1,0,-1
351 859 m 1,20,-1
 351 1047 l 1,21,-1
 763 1047 l 1,22,-1
 763 859 l 1,23,-1
 351 859 l 1,20,-1
EndSplineSet
EndChar

StartChar: hbar
Encoding: 295 295 233
Width: 1229
GlyphClass: 1
Flags: W
LayerCount: 2
Fore
SplineSet
688 1216 m 1,0,-1
 688 1396 l 1,1,-1
 434 1396 l 1,2,-1
 434 1536 l 1,3,-1
 156 1536 l 1,4,-1
 156 1396 l 1,5,-1
 -4 1396 l 1,6,-1
 -4 1216 l 1,7,-1
 156 1216 l 1,8,-1
 156 0 l 1,9,-1
 434 0 l 1,10,-1
 434 781 l 1,11,12
 453 806 453 806 477.5 825.5 c 128,-1,13
 502 845 502 845 532 857 c 0,14,15
 555 866 555 866 582 871 c 128,-1,16
 609 876 609 876 640 876 c 0,17,18
 688 876 688 876 726 863.5 c 128,-1,19
 764 851 764 851 791 825 c 256,20,21
 818 799 818 799 832.5 757 c 128,-1,22
 847 715 847 715 847 657 c 2,23,-1
 847 0 l 1,24,-1
 1125 0 l 1,25,-1
 1125 655 l 2,26,27
 1125 774 1125 774 1096.5 858.5 c 128,-1,28
 1068 943 1068 943 1017 997 c 256,29,30
 966 1051 966 1051 895 1076.5 c 128,-1,31
 824 1102 824 1102 739 1102 c 0,32,33
 683 1102 683 1102 633 1086 c 128,-1,34
 583 1070 583 1070 540 1041 c 0,35,36
 510 1021 510 1021 483 993.5 c 128,-1,37
 456 966 456 966 434 933 c 1,38,-1
 434 1216 l 1,39,-1
 688 1216 l 1,0,-1
EndSplineSet
EndChar

StartChar: Iogonek
Encoding: 302 302 240
Width: 1229
GlyphClass: 1
Flags: W
LayerCount: 2
Fore
SplineSet
193 1456 m 1,0,-1
 193 1229 l 1,1,-1
 470 1229 l 1,2,-1
 470 226 l 1,3,-1
 193 226 l 1,4,-1
 193 0 l 1,5,-1
 527 0 l 1,6,7
 503 -20 503 -20 484 -41.5 c 128,-1,8
 465 -63 465 -63 450 -85 c 0,9,10
 430 -117 430 -117 420 -150.5 c 128,-1,11
 410 -184 410 -184 410 -217 c 0,12,13
 410 -268 410 -268 427.5 -306.5 c 128,-1,14
 445 -345 445 -345 475 -371 c 256,15,16
 505 -397 505 -397 545.5 -410.5 c 128,-1,17
 586 -424 586 -424 632 -424 c 0,18,19
 701 -424 701 -424 745.5 -409.5 c 128,-1,20
 790 -395 790 -395 818 -380 c 1,21,-1
 771 -226 l 1,22,23
 757 -232 757 -232 737 -239 c 128,-1,24
 717 -246 717 -246 688 -246 c 0,25,26
 651 -246 651 -246 636 -226.5 c 128,-1,27
 621 -207 621 -207 621 -178 c 0,28,29
 621 -151 621 -151 628.5 -126.5 c 128,-1,30
 636 -102 636 -102 654 -80 c 256,31,32
 672 -58 672 -58 702 -38 c 128,-1,33
 732 -18 732 -18 777 0 c 1,34,-1
 1035 0 l 1,35,-1
 1035 226 l 1,36,-1
 751 226 l 1,37,-1
 751 1229 l 1,38,-1
 1035 1229 l 1,39,-1
 1035 1456 l 1,40,-1
 193 1456 l 1,0,-1
EndSplineSet
Substitution2: "'smcp' Lowercase to Small Capitals lookup 0 subtable" Iogonek.smcp
EndChar

StartChar: iogonek
Encoding: 303 303 241
Width: 1229
GlyphClass: 1
Flags: W
LayerCount: 2
Fore
SplineSet
215 1082 m 1,0,-1
 215 855 l 1,1,-1
 523 855 l 1,2,-1
 523 226 l 1,3,-1
 215 226 l 1,4,-1
 215 0 l 1,5,-1
 514 0 l 1,6,7
 491 -19 491 -19 472.5 -39.5 c 128,-1,8
 454 -60 454 -60 440 -82 c 0,9,10
 418 -114 418 -114 407.5 -148.5 c 128,-1,11
 397 -183 397 -183 397 -217 c 0,12,13
 397 -268 397 -268 414.5 -306.5 c 128,-1,14
 432 -345 432 -345 462 -371 c 256,15,16
 492 -397 492 -397 532.5 -410.5 c 128,-1,17
 573 -424 573 -424 619 -424 c 0,18,19
 688 -424 688 -424 732.5 -409.5 c 128,-1,20
 777 -395 777 -395 805 -380 c 1,21,-1
 758 -226 l 1,22,23
 744 -232 744 -232 724 -239 c 128,-1,24
 704 -246 704 -246 675 -246 c 0,25,26
 638 -246 638 -246 623 -226.5 c 128,-1,27
 608 -207 608 -207 608 -178 c 0,28,29
 608 -151 608 -151 615.5 -126.5 c 128,-1,30
 623 -102 623 -102 641 -80 c 256,31,32
 659 -58 659 -58 689 -38 c 128,-1,33
 719 -18 719 -18 764 0 c 1,34,-1
 1097 0 l 1,35,-1
 1097 226 l 1,36,-1
 804 226 l 1,37,-1
 804 1082 l 1,38,-1
 215 1082 l 1,0,-1
503 1359 m 0,39,40
 503 1294 503 1294 547.5 1252.5 c 128,-1,41
 592 1211 592 1211 663 1211 c 0,42,43
 737 1211 737 1211 780.5 1252.5 c 128,-1,44
 824 1294 824 1294 824 1359 c 256,45,46
 824 1424 824 1424 780.5 1465.5 c 128,-1,47
 737 1507 737 1507 663 1507 c 0,48,49
 590 1507 590 1507 546.5 1464.5 c 128,-1,50
 503 1422 503 1422 503 1359 c 0,39,40
EndSplineSet
Substitution2: "'smcp' Lowercase to Small Capitals lookup 0 subtable" Iogonek.smcp
EndChar

StartChar: dotlessi
Encoding: 305 305 243
Width: 1229
GlyphClass: 1
Flags: W
LayerCount: 2
Fore
SplineSet
199 1082 m 1,0,-1
 199 855 l 1,1,-1
 523 855 l 1,2,-1
 523 226 l 1,3,-1
 199 226 l 1,4,-1
 199 0 l 1,5,-1
 1114 0 l 1,6,-1
 1114 226 l 1,7,-1
 804 226 l 1,8,-1
 804 1082 l 1,9,-1
 199 1082 l 1,0,-1
EndSplineSet
EndChar

StartChar: IJ
Encoding: 306 306 244
Width: 1229
GlyphClass: 1
Flags: W
LayerCount: 2
Fore
SplineSet
326 0 m 1,0,-1
 326 1456 l 1,1,-1
 126 1456 l 1,2,-1
 126 0 l 1,3,-1
 326 0 l 1,0,-1
902 1456 m 1,4,-1
 902 322 l 2,5,6
 902 280 902 280 895.5 246.5 c 128,-1,7
 889 213 889 213 873 190 c 0,8,9
 856 166 856 166 828.5 153.5 c 128,-1,10
 801 141 801 141 760 141 c 0,11,12
 700 141 700 141 664 184 c 128,-1,13
 628 227 628 227 628 321 c 1,14,-1
 428 321 l 1,15,16
 428 234 428 234 452.5 170 c 128,-1,17
 477 106 477 106 522 64 c 0,18,19
 566 22 566 22 627 1.5 c 128,-1,20
 688 -19 688 -19 760 -19 c 0,21,22
 847 -19 847 -19 911.5 4 c 128,-1,23
 976 27 976 27 1019 71 c 0,24,25
 1061 115 1061 115 1081.5 178.5 c 128,-1,26
 1102 242 1102 242 1102 322 c 2,27,-1
 1102 1456 l 1,28,-1
 902 1456 l 1,4,-1
EndSplineSet
EndChar

StartChar: ij
Encoding: 307 307 245
Width: 1229
GlyphClass: 1
Flags: W
LayerCount: 2
Fore
SplineSet
688 1082 m 1,0,-1
 688 912 l 1,1,-1
 904 912 l 1,2,-1
 904 -6 l 2,3,4
 904 -81 904 -81 885.5 -130 c 128,-1,5
 867 -179 867 -179 835 -208 c 0,6,7
 802 -238 802 -238 758 -250 c 128,-1,8
 714 -262 714 -262 664 -262 c 0,9,10
 650 -262 650 -262 626 -261.5 c 128,-1,11
 602 -261 602 -261 575 -259 c 0,12,13
 548 -258 548 -258 522.5 -255.5 c 128,-1,14
 497 -253 497 -253 480 -250 c 1,15,-1
 466 -417 l 1,16,17
 490 -421 490 -421 512.5 -424 c 128,-1,18
 535 -427 535 -427 557 -429 c 0,19,20
 586 -432 586 -432 616 -433 c 128,-1,21
 646 -434 646 -434 678 -434 c 0,22,23
 779 -434 779 -434 858 -406 c 128,-1,24
 937 -378 937 -378 992 -324 c 256,25,26
 1047 -270 1047 -270 1075.5 -190 c 128,-1,27
 1104 -110 1104 -110 1104 -6 c 2,28,-1
 1104 1082 l 1,29,-1
 688 1082 l 1,0,-1
81 1082 m 1,30,-1
 81 912 l 1,31,-1
 310 912 l 1,32,-1
 310 170 l 1,33,-1
 75 170 l 1,34,-1
 75 0 l 1,35,-1
 735 0 l 1,36,-1
 735 170 l 1,37,-1
 510 170 l 1,38,-1
 510 1082 l 1,39,-1
 81 1082 l 1,30,-1
297 1361 m 0,40,41
 297 1314 297 1314 326 1282.5 c 128,-1,42
 355 1251 355 1251 412 1251 c 256,43,44
 469 1251 469 1251 498.5 1282.5 c 128,-1,45
 528 1314 528 1314 528 1360 c 0,46,47
 528 1407 528 1407 498.5 1439 c 128,-1,48
 469 1471 469 1471 412 1471 c 256,49,50
 355 1471 355 1471 326 1439 c 128,-1,51
 297 1407 297 1407 297 1361 c 0,40,41
880 1362 m 0,52,53
 880 1315 880 1315 909 1283.5 c 128,-1,54
 938 1252 938 1252 995 1252 c 256,55,56
 1052 1252 1052 1252 1081.5 1283.5 c 128,-1,57
 1111 1315 1111 1315 1111 1361 c 0,58,59
 1111 1408 1111 1408 1081.5 1440 c 128,-1,60
 1052 1472 1052 1472 995 1472 c 256,61,62
 938 1472 938 1472 909 1440 c 128,-1,63
 880 1408 880 1408 880 1362 c 0,52,53
EndSplineSet
EndChar

StartChar: kgreenlandic
Encoding: 312 312 250
Width: 1229
GlyphClass: 1
Flags: W
LayerCount: 2
Fore
SplineSet
604 427 m 1,0,-1
 851 0 l 1,1,-1
 1207 0 l 1,2,-1
 802 634 l 1,3,-1
 1188 1082 l 1,4,-1
 839 1082 l 1,5,-1
 544 735 l 1,6,-1
 437 608 l 1,7,-1
 437 1082 l 1,8,-1
 159 1082 l 1,9,-1
 159 0 l 1,10,-1
 437 0 l 1,11,-1
 437 286 l 1,12,-1
 604 427 l 1,0,-1
EndSplineSet
EndChar

StartChar: Lslash
Encoding: 321 321 259
Width: 1229
GlyphClass: 1
Flags: W
LayerCount: 2
Fore
SplineSet
461 886 m 1,0,-1
 461 1456 l 1,1,-1
 179 1456 l 1,2,-1
 179 804 l 1,3,-1
 51 767 l 1,4,-1
 51 572 l 1,5,-1
 179 609 l 1,6,-1
 179 0 l 1,7,-1
 1143 0 l 1,8,-1
 1143 227 l 1,9,-1
 461 227 l 1,10,-1
 461 691 l 1,11,-1
 693 759 l 1,12,-1
 693 954 l 1,13,-1
 461 886 l 1,0,-1
EndSplineSet
EndChar

StartChar: lslash
Encoding: 322 322 260
Width: 1229
GlyphClass: 1
Flags: W
LayerCount: 2
Fore
SplineSet
818 1019 m 1,0,-1
 818 1536 l 1,1,-1
 213 1536 l 1,2,-1
 213 1309 l 1,3,-1
 537 1309 l 1,4,-1
 537 895 l 1,5,-1
 225 757 l 1,6,-1
 225 562 l 1,7,-1
 537 700 l 1,8,-1
 537 226 l 1,9,-1
 213 226 l 1,10,-1
 213 0 l 1,11,-1
 1128 0 l 1,12,-1
 1128 226 l 1,13,-1
 818 226 l 1,14,-1
 818 824 l 1,15,-1
 1099 949 l 1,16,-1
 1099 1144 l 1,17,-1
 818 1019 l 1,0,-1
EndSplineSet
EndChar

StartChar: Eng
Encoding: 330 330 268
Width: 1229
GlyphClass: 1
Flags: W
LayerCount: 2
Fore
SplineSet
1095 1456 m 1,0,-1
 814 1456 l 1,1,-1
 814 574 l 1,2,-1
 430 1453 l 1,3,-1
 429 1456 l 1,4,-1
 148 1456 l 1,5,-1
 148 0 l 1,6,-1
 429 0 l 1,7,-1
 429 881 l 1,8,-1
 814 0 l 1,9,-1
 814 -39 l 2,10,11
 814 -87 814 -87 803.5 -121.5 c 128,-1,12
 793 -156 793 -156 772 -177 c 0,13,14
 757 -193 757 -193 737 -201 c 128,-1,15
 717 -209 717 -209 692 -209 c 0,16,17
 666 -209 666 -209 640.5 -206.5 c 128,-1,18
 615 -204 615 -204 593 -198 c 1,19,-1
 579 -420 l 1,20,21
 617 -430 617 -430 649 -433.5 c 128,-1,22
 681 -437 681 -437 719 -437 c 0,23,24
 807 -437 807 -437 876.5 -411 c 128,-1,25
 946 -385 946 -385 995 -334 c 0,26,27
 1043 -284 1043 -284 1069 -209.5 c 128,-1,28
 1095 -135 1095 -135 1095 -39 c 2,29,-1
 1095 1456 l 1,0,-1
EndSplineSet
EndChar

StartChar: eng
Encoding: 331 331 269
Width: 1229
GlyphClass: 1
Flags: W
LayerCount: 2
Fore
SplineSet
149 0 m 1,0,-1
 427 0 l 1,1,-1
 427 784 l 1,2,3
 440 802 440 802 457 817 c 128,-1,4
 474 832 474 832 494 844 c 0,5,6
 521 859 521 859 554.5 867.5 c 128,-1,7
 588 876 588 876 628 876 c 0,8,9
 670 876 670 876 702 865 c 128,-1,10
 734 854 734 854 756 829 c 0,11,12
 777 804 777 804 788.5 763 c 128,-1,13
 800 722 800 722 800 662 c 2,14,-1
 800 -40 l 2,15,16
 800 -85 800 -85 790.5 -118.5 c 128,-1,17
 781 -152 781 -152 764 -173 c 0,18,19
 748 -190 748 -190 727 -199 c 128,-1,20
 706 -208 706 -208 680 -208 c 256,21,22
 654 -208 654 -208 628 -205 c 128,-1,23
 602 -202 602 -202 580 -196 c 1,24,-1
 566 -420 l 1,25,26
 603 -430 603 -430 635.5 -433.5 c 128,-1,27
 668 -437 668 -437 705 -437 c 0,28,29
 792 -437 792 -437 861.5 -411 c 128,-1,30
 931 -385 931 -385 980 -335 c 0,31,32
 1028 -285 1028 -285 1054 -210.5 c 128,-1,33
 1080 -136 1080 -136 1080 -40 c 2,34,-1
 1080 663 l 2,35,36
 1080 782 1080 782 1054.5 865.5 c 128,-1,37
 1029 949 1029 949 983 1002 c 0,38,39
 937 1054 937 1054 872.5 1078 c 128,-1,40
 808 1102 808 1102 729 1102 c 0,41,42
 672 1102 672 1102 621.5 1087 c 128,-1,43
 571 1072 571 1072 529 1043 c 0,44,45
 498 1022 498 1022 470.5 993.5 c 128,-1,46
 443 965 443 965 420 930 c 1,47,-1
 419 942 l 1,48,-1
 407 1082 l 1,49,-1
 149 1082 l 1,50,-1
 149 0 l 1,0,-1
EndSplineSet
EndChar

StartChar: OE
Encoding: 338 338 276
Width: 1229
GlyphClass: 1
Flags: W
LayerCount: 2
Fore
SplineSet
1190 0 m 1,0,-1
 1190 232 l 1,1,-1
 832 232 l 1,2,-1
 832 648 l 1,3,-1
 1128 648 l 1,4,-1
 1128 865 l 1,5,-1
 832 865 l 1,6,-1
 832 1239 l 1,7,-1
 1179 1239 l 1,8,-1
 1179 1456 l 1,9,-1
 769 1456 l 1,10,11
 706 1464 706 1464 638 1470.5 c 128,-1,12
 570 1477 570 1477 499 1477 c 0,13,14
 406 1477 406 1477 327.5 1446 c 128,-1,15
 249 1415 249 1415 192 1351 c 256,16,17
 135 1287 135 1287 103 1189.5 c 128,-1,18
 71 1092 71 1092 71 960 c 2,19,-1
 71 496 l 2,20,21
 71 364 71 364 103 266.5 c 128,-1,22
 135 169 135 169 193 105 c 0,23,24
 250 41 250 41 329 10 c 128,-1,25
 408 -21 408 -21 501 -21 c 0,26,27
 572 -21 572 -21 639 -14.5 c 128,-1,28
 706 -8 706 -8 769 0 c 1,29,-1
 1190 0 l 1,0,-1
501 211 m 0,30,31
 457 211 457 211 422 224 c 128,-1,32
 387 237 387 237 363 269 c 0,33,34
 338 301 338 301 325 356.5 c 128,-1,35
 312 412 312 412 312 496 c 2,36,-1
 312 962 l 2,37,38
 312 1050 312 1050 325 1107.5 c 128,-1,39
 338 1165 338 1165 362 1199 c 256,40,41
 386 1233 386 1233 420.5 1246.5 c 128,-1,42
 455 1260 455 1260 499 1260 c 0,43,44
 522 1260 522 1260 545.5 1259 c 128,-1,45
 569 1258 569 1258 592 1256 c 1,46,-1
 592 214 l 1,47,48
 570 213 570 213 547 212 c 128,-1,49
 524 211 524 211 501 211 c 0,30,31
EndSplineSet
EndChar

StartChar: oe
Encoding: 339 339 277
Width: 1229
GlyphClass: 1
Flags: W
LayerCount: 2
Fore
SplineSet
38 640 m 2,0,-1
 38 440 l 2,1,2
 38 331 38 331 62.5 245.5 c 128,-1,3
 87 160 87 160 134 101 c 0,4,5
 180 42 180 42 248 11 c 128,-1,6
 316 -20 316 -20 404 -20 c 0,7,8
 451 -20 451 -20 491.5 -10.5 c 128,-1,9
 532 -1 532 -1 566 17 c 0,10,11
 587 28 587 28 605.5 42.5 c 128,-1,12
 624 57 624 57 641 75 c 1,13,14
 658 59 658 59 677.5 45.5 c 128,-1,15
 697 32 697 32 718 21 c 0,16,17
 758 1 758 1 805 -9.5 c 128,-1,18
 852 -20 852 -20 906 -20 c 0,19,20
 949 -20 949 -20 986.5 -12.5 c 128,-1,21
 1024 -5 1024 -5 1055 8 c 0,22,23
 1081 19 1081 19 1102.5 33.5 c 128,-1,24
 1124 48 1124 48 1141 64 c 1,25,-1
 1081 244 l 1,26,27
 1064 235 1064 235 1048.5 227.5 c 128,-1,28
 1033 220 1033 220 1016 215 c 0,29,30
 999 209 999 209 979 206 c 128,-1,31
 959 203 959 203 933 203 c 0,32,33
 894 203 894 203 864 214.5 c 128,-1,34
 834 226 834 226 814 248 c 0,35,36
 801 262 801 262 791.5 281 c 128,-1,37
 782 300 782 300 776 323 c 0,38,39
 770 344 770 344 767.5 368 c 128,-1,40
 765 392 765 392 765 420 c 2,41,-1
 765 454 l 1,42,-1
 1185 454 l 1,43,-1
 1185 672 l 2,44,45
 1185 769 1185 769 1162.5 848.5 c 128,-1,46
 1140 928 1140 928 1097 984 c 0,47,48
 1053 1040 1053 1040 990 1071 c 128,-1,49
 927 1102 927 1102 847 1102 c 0,50,51
 806 1103 806 1103 769.5 1094.5 c 128,-1,52
 733 1086 733 1086 702 1069 c 0,53,54
 682 1059 682 1059 664.5 1045.5 c 128,-1,55
 647 1032 647 1032 631 1015 c 1,56,57
 616 1029 616 1029 600 1041 c 128,-1,58
 584 1053 584 1053 566 1063 c 0,59,60
 531 1082 531 1082 490 1092 c 128,-1,61
 449 1102 449 1102 402 1102 c 0,62,63
 315 1102 315 1102 247 1070 c 128,-1,64
 179 1038 179 1038 133 979 c 0,65,66
 86 919 86 919 62 833.5 c 128,-1,67
 38 748 38 748 38 640 c 2,0,-1
299 440 m 2,68,-1
 299 641 l 2,69,70
 299 697 299 697 304 741 c 128,-1,71
 309 785 309 785 321 815 c 256,72,73
 333 845 333 845 352.5 861 c 128,-1,74
 372 877 372 877 402 877 c 0,75,76
 433 877 433 877 453.5 861 c 128,-1,77
 474 845 474 845 486 815 c 0,78,79
 491 803 491 803 494.5 788 c 128,-1,80
 498 773 498 773 501 756 c 0,81,82
 505 732 505 732 506.5 703 c 128,-1,83
 508 674 508 674 508 641 c 2,84,-1
 508 440 l 2,85,86
 508 406 508 406 506.5 377 c 128,-1,87
 505 348 505 348 501 324 c 0,88,89
 498 300 498 300 492.5 281 c 128,-1,90
 487 262 487 262 480 248 c 0,91,92
 468 226 468 226 449 214.5 c 128,-1,93
 430 203 430 203 404 203 c 0,94,95
 377 203 377 203 358.5 214.5 c 128,-1,96
 340 226 340 226 328 248 c 0,97,98
 312 277 312 277 305.5 325.5 c 128,-1,99
 299 374 299 374 299 440 c 2,68,-1
847 877 m 0,100,101
 867 877 867 877 882 868.5 c 128,-1,102
 897 860 897 860 907 844 c 0,103,104
 918 825 918 825 923 796.5 c 128,-1,105
 928 768 928 768 928 732 c 2,106,-1
 928 647 l 1,107,-1
 765 647 l 1,108,-1
 765 673 l 2,109,110
 765 704 765 704 766 730.5 c 128,-1,111
 767 757 767 757 770 779 c 0,112,113
 774 808 774 808 779.5 824 c 128,-1,114
 785 840 785 840 794 852 c 0,115,116
 802 864 802 864 815.5 870.5 c 128,-1,117
 829 877 829 877 847 877 c 0,100,101
EndSplineSet
EndChar

StartChar: Tbar
Encoding: 358 358 296
Width: 1229
GlyphClass: 1
Flags: W
LayerCount: 2
Fore
SplineSet
982 757 m 1,0,-1
 982 937 l 1,1,-1
 752 937 l 1,2,-1
 752 1227 l 1,3,-1
 1201 1227 l 1,4,-1
 1201 1456 l 1,5,-1
 27 1456 l 1,6,-1
 27 1227 l 1,7,-1
 470 1227 l 1,8,-1
 470 937 l 1,9,-1
 241 937 l 1,10,-1
 241 757 l 1,11,-1
 470 757 l 1,12,-1
 470 0 l 1,13,-1
 752 0 l 1,14,-1
 752 757 l 1,15,-1
 982 757 l 1,0,-1
EndSplineSet
Substitution2: "'smcp' Lowercase to Small Capitals lookup 0 subtable" Tbar.smcp
EndChar

StartChar: tbar
Encoding: 359 359 297
Width: 1229
GlyphClass: 1
Flags: W
LayerCount: 2
Fore
SplineSet
651 1347 m 1,0,-1
 373 1347 l 1,1,-1
 373 1082 l 1,2,-1
 126 1082 l 1,3,-1
 126 877 l 1,4,-1
 373 877 l 1,5,-1
 373 719 l 1,6,-1
 178 719 l 1,7,-1
 178 539 l 1,8,-1
 373 539 l 1,9,-1
 373 385 l 2,10,11
 373 278 373 278 401 201.5 c 128,-1,12
 429 125 429 125 481 76 c 0,13,14
 532 26 532 26 604.5 2.5 c 128,-1,15
 677 -21 677 -21 766 -21 c 0,16,17
 812 -21 812 -21 859.5 -16.5 c 128,-1,18
 907 -12 907 -12 951 -4 c 256,19,20
 995 4 995 4 1034 16.5 c 128,-1,21
 1073 29 1073 29 1102 46 c 1,22,-1
 1075 237 l 1,23,24
 1056 232 1056 232 1029.5 227 c 128,-1,25
 1003 222 1003 222 973 218 c 0,26,27
 942 213 942 213 908.5 210 c 128,-1,28
 875 207 875 207 843 207 c 0,29,30
 799 207 799 207 763.5 217 c 128,-1,31
 728 227 728 227 703 251 c 0,32,33
 678 274 678 274 664.5 313.5 c 128,-1,34
 651 353 651 353 651 412 c 2,35,-1
 651 539 l 1,36,-1
 870 539 l 1,37,-1
 870 719 l 1,38,-1
 651 719 l 1,39,-1
 651 877 l 1,40,-1
 1055 877 l 1,41,-1
 1055 1082 l 1,42,-1
 651 1082 l 1,43,-1
 651 1347 l 1,0,-1
EndSplineSet
Substitution2: "'smcp' Lowercase to Small Capitals lookup 0 subtable" Tbar.smcp
EndChar

StartChar: Uogonek
Encoding: 370 370 308
Width: 1229
GlyphClass: 1
Flags: W
LayerCount: 2
Fore
SplineSet
1101 1456 m 1,0,-1
 822 1456 l 1,1,-1
 821 491 l 2,2,3
 821 421 821 421 807 368 c 128,-1,4
 793 315 793 315 767 279 c 0,5,6
 740 243 740 243 700 224.5 c 128,-1,7
 660 206 660 206 608 206 c 0,8,9
 559 206 559 206 521.5 224.5 c 128,-1,10
 484 243 484 243 459 280 c 0,11,12
 435 315 435 315 422 368.5 c 128,-1,13
 409 422 409 422 409 491 c 2,14,-1
 408 1456 l 1,15,-1
 127 1456 l 1,16,-1
 126 491 l 2,17,18
 126 372 126 372 159 278.5 c 128,-1,19
 192 185 192 185 252 120 c 0,20,21
 310 57 310 57 392.5 21.5 c 128,-1,22
 475 -14 475 -14 576 -19 c 0,23,24
 578 -19 578 -19 581 -19 c 128,-1,25
 584 -19 584 -19 587 -19 c 1,26,27
 578 -33 578 -33 571 -48 c 128,-1,28
 564 -63 564 -63 559 -77 c 0,29,30
 553 -96 553 -96 549.5 -114.5 c 128,-1,31
 546 -133 546 -133 546 -152 c 0,32,33
 546 -203 546 -203 563.5 -241.5 c 128,-1,34
 581 -280 581 -280 611 -306 c 256,35,36
 641 -332 641 -332 681.5 -345.5 c 128,-1,37
 722 -359 722 -359 768 -359 c 0,38,39
 837 -359 837 -359 881.5 -344.5 c 128,-1,40
 926 -330 926 -330 954 -315 c 1,41,-1
 907 -161 l 1,42,43
 893 -167 893 -167 873 -174 c 128,-1,44
 853 -181 853 -181 824 -181 c 0,45,46
 787 -181 787 -181 772 -161.5 c 128,-1,47
 757 -142 757 -142 757 -113 c 0,48,49
 757 -93 757 -93 761 -75 c 128,-1,50
 765 -57 765 -57 773 -40 c 0,51,52
 781 -25 781 -25 794 -10.5 c 128,-1,53
 807 4 807 4 825 17 c 1,54,55
 886 41 886 41 935 79.5 c 128,-1,56
 984 118 984 118 1018 170 c 0,57,58
 1059 231 1059 231 1080.5 312 c 128,-1,59
 1102 393 1102 393 1102 491 c 2,60,-1
 1101 1456 l 1,0,-1
EndSplineSet
Substitution2: "'smcp' Lowercase to Small Capitals lookup 0 subtable" Uogonek.smcp
EndChar

StartChar: uogonek
Encoding: 371 371 309
Width: 1229
GlyphClass: 1
Flags: W
LayerCount: 2
Fore
SplineSet
1080 0 m 1,0,-1
 1099 0 l 1,1,-1
 1099 1082 l 1,2,-1
 820 1082 l 1,3,-1
 820 323 l 1,4,5
 808 299 808 299 792 279.5 c 128,-1,6
 776 260 776 260 755 245 c 0,7,8
 727 226 727 226 690 215.5 c 128,-1,9
 653 205 653 205 606 205 c 0,10,11
 557 205 557 205 523 217 c 128,-1,12
 489 229 489 229 468 257 c 0,13,14
 447 284 447 284 437.5 329 c 128,-1,15
 428 374 428 374 428 440 c 2,16,-1
 428 1082 l 1,17,-1
 150 1082 l 1,18,-1
 150 442 l 2,19,20
 150 319 150 319 177.5 231.5 c 128,-1,21
 205 144 205 144 255 88 c 0,22,23
 305 31 305 31 375 5 c 128,-1,24
 445 -21 445 -21 529 -21 c 0,25,26
 621 -21 621 -21 698.5 25 c 128,-1,27
 776 71 776 71 831 152 c 1,28,-1
 846 12 l 1,29,30
 819 -7 819 -7 797.5 -29 c 128,-1,31
 776 -51 776 -51 760 -74 c 0,32,33
 737 -108 737 -108 725 -144.5 c 128,-1,34
 713 -181 713 -181 713 -217 c 0,35,36
 713 -268 713 -268 730.5 -306.5 c 128,-1,37
 748 -345 748 -345 778 -371 c 256,38,39
 808 -397 808 -397 848.5 -410.5 c 128,-1,40
 889 -424 889 -424 935 -424 c 0,41,42
 1004 -424 1004 -424 1048.5 -409.5 c 128,-1,43
 1093 -395 1093 -395 1121 -380 c 1,44,-1
 1074 -226 l 1,45,46
 1060 -232 1060 -232 1040 -239 c 128,-1,47
 1020 -246 1020 -246 991 -246 c 0,48,49
 954 -246 954 -246 939 -226.5 c 128,-1,50
 924 -207 924 -207 924 -178 c 0,51,52
 924 -151 924 -151 931.5 -126.5 c 128,-1,53
 939 -102 939 -102 957 -80 c 256,54,55
 975 -58 975 -58 1005 -38 c 128,-1,56
 1035 -18 1035 -18 1080 0 c 1,0,-1
EndSplineSet
Substitution2: "'smcp' Lowercase to Small Capitals lookup 0 subtable" Uogonek.smcp
EndChar

StartChar: longs
Encoding: 383 383 321
Width: 1229
GlyphClass: 1
Flags: W
LayerCount: 2
Fore
SplineSet
412 0 m 1,0,-1
 689 0 l 1,1,-1
 689 1101 l 2,2,3
 689 1162 689 1162 706 1210 c 128,-1,4
 723 1258 723 1258 756 1291 c 0,5,6
 788 1322 788 1322 834.5 1339 c 128,-1,7
 881 1356 881 1356 941 1356 c 0,8,9
 973 1356 973 1356 994.5 1353 c 128,-1,10
 1016 1350 1016 1350 1037 1345 c 1,11,-1
 1061 1560 l 1,12,13
 1021 1569 1021 1569 982.5 1575 c 128,-1,14
 944 1581 944 1581 903 1581 c 0,15,16
 789 1581 789 1581 698 1549.5 c 128,-1,17
 607 1518 607 1518 544 1458 c 0,18,19
 480 1397 480 1397 446 1307.5 c 128,-1,20
 412 1218 412 1218 412 1101 c 2,21,-1
 412 0 l 1,0,-1
EndSplineSet
EndChar

StartChar: florin
Encoding: 402 402 322
Width: 1229
GlyphClass: 1
Flags: W
LayerCount: 2
Fore
SplineSet
945 877 m 1,0,-1
 945 1082 l 1,1,-1
 739 1082 l 1,2,-1
 739 1161 l 2,3,4
 739 1206 739 1206 751.5 1241 c 128,-1,5
 764 1276 764 1276 790 1300 c 0,6,7
 818 1327 818 1327 862.5 1340.5 c 128,-1,8
 907 1354 907 1354 967 1354 c 0,9,10
 1011 1354 1011 1354 1044.5 1346 c 128,-1,11
 1078 1338 1078 1338 1106 1324 c 1,12,-1
 1130 1540 l 1,13,14
 1079 1557 1079 1557 1031.5 1569 c 128,-1,15
 984 1581 984 1581 933 1581 c 0,16,17
 822 1581 822 1581 734.5 1553.5 c 128,-1,18
 647 1526 647 1526 586 1473 c 256,19,20
 525 1420 525 1420 492.5 1341.5 c 128,-1,21
 460 1263 460 1263 460 1161 c 2,22,-1
 460 1082 l 1,23,-1
 299 1082 l 1,24,-1
 299 877 l 1,25,-1
 460 877 l 1,26,-1
 460 -13 l 2,27,28
 460 -69 460 -69 448 -111 c 128,-1,29
 436 -153 436 -153 410 -177 c 0,30,31
 392 -194 392 -194 366 -203 c 128,-1,32
 340 -212 340 -212 306 -212 c 0,33,34
 282 -212 282 -212 232.5 -203.5 c 128,-1,35
 183 -195 183 -195 163 -179 c 1,36,-1
 148 -400 l 1,37,38
 196 -421 196 -421 243 -429 c 128,-1,39
 290 -437 290 -437 338 -437 c 0,40,41
 432 -437 432 -437 506.5 -409.5 c 128,-1,42
 581 -382 581 -382 633 -328 c 0,43,44
 684 -274 684 -274 711.5 -195 c 128,-1,45
 739 -116 739 -116 739 -13 c 2,46,-1
 739 877 l 1,47,-1
 945 877 l 1,0,-1
EndSplineSet
EndChar

StartChar: Ohorn
Encoding: 416 416 323
Width: 1229
GlyphClass: 1
Flags: W
LayerCount: 2
Fore
SplineSet
1160 621 m 2,0,-1
 1160 833 l 2,1,2
 1160 927 1160 927 1144 1009.5 c 128,-1,3
 1128 1092 1128 1092 1095 1164 c 1,4,5
 1134 1186 1134 1186 1163 1219.5 c 128,-1,6
 1192 1253 1192 1253 1211 1297 c 0,7,8
 1229 1339 1229 1339 1238.5 1390.5 c 128,-1,9
 1248 1442 1248 1442 1248 1503 c 1,10,-1
 1054 1503 l 1,11,12
 1054 1468 1054 1468 1051 1438 c 128,-1,13
 1048 1408 1048 1408 1042 1383 c 0,14,15
 1036 1359 1036 1359 1026.5 1340 c 128,-1,16
 1017 1321 1017 1321 1004 1308 c 1,17,18
 973 1343 973 1343 936.5 1372 c 128,-1,19
 900 1401 900 1401 859 1422 c 0,20,21
 807 1448 807 1448 746.5 1462 c 128,-1,22
 686 1476 686 1476 618 1476 c 0,23,24
 492 1476 492 1476 394.5 1428 c 128,-1,25
 297 1380 297 1380 230 1295 c 0,26,27
 163 1209 163 1209 128 1091 c 128,-1,28
 93 973 93 973 93 833 c 2,29,-1
 93 621 l 2,30,31
 93 481 93 481 128 363.5 c 128,-1,32
 163 246 163 246 230 161 c 0,33,34
 297 75 297 75 395 27.5 c 128,-1,35
 493 -20 493 -20 619 -20 c 256,36,37
 745 -20 745 -20 845.5 27.5 c 128,-1,38
 946 75 946 75 1016 160 c 256,39,40
 1086 245 1086 245 1123 363 c 128,-1,41
 1160 481 1160 481 1160 621 c 2,0,-1
875 835 m 2,42,-1
 875 621 l 2,43,44
 875 532 875 532 860 457 c 128,-1,45
 845 382 845 382 815 328 c 0,46,47
 784 273 784 273 735.5 242 c 128,-1,48
 687 211 687 211 619 211 c 0,49,50
 550 211 550 211 504 242 c 128,-1,51
 458 273 458 273 430 328 c 256,52,53
 402 383 402 383 390 458 c 128,-1,54
 378 533 378 533 378 621 c 2,55,-1
 378 835 l 2,56,57
 378 924 378 924 390 999 c 128,-1,58
 402 1074 402 1074 430 1128 c 256,59,60
 458 1182 458 1182 504 1212.5 c 128,-1,61
 550 1243 550 1243 618 1243 c 0,62,63
 687 1243 687 1243 735.5 1212.5 c 128,-1,64
 784 1182 784 1182 815 1128 c 256,65,66
 846 1074 846 1074 860.5 999 c 128,-1,67
 875 924 875 924 875 835 c 2,42,-1
EndSplineSet
EndChar

StartChar: ohorn
Encoding: 417 417 324
Width: 1229
GlyphClass: 1
Flags: W
LayerCount: 2
Fore
SplineSet
95 551 m 2,0,-1
 95 530 l 2,1,2
 95 411 95 411 129 310.5 c 128,-1,3
 163 210 163 210 229 136 c 0,4,5
 294 62 294 62 389.5 20.5 c 128,-1,6
 485 -21 485 -21 607 -21 c 0,7,8
 728 -21 728 -21 823 20.5 c 128,-1,9
 918 62 918 62 983 136 c 256,10,11
 1048 210 1048 210 1082 310.5 c 128,-1,12
 1116 411 1116 411 1116 530 c 2,13,-1
 1116 551 l 2,14,15
 1116 639 1116 639 1097 717 c 128,-1,16
 1078 795 1078 795 1041 861 c 1,17,18
 1076 883 1076 883 1104 914.5 c 128,-1,19
 1132 946 1132 946 1151 985 c 0,20,21
 1170 1025 1170 1025 1180 1073.5 c 128,-1,22
 1190 1122 1190 1122 1190 1179 c 1,23,-1
 997 1179 l 1,24,25
 997 1142 997 1142 992.5 1111 c 128,-1,26
 988 1080 988 1080 979 1055 c 0,27,28
 971 1035 971 1035 960.5 1018.5 c 128,-1,29
 950 1002 950 1002 937 989 c 1,30,31
 874 1043 874 1043 791 1072.5 c 128,-1,32
 708 1102 708 1102 605 1102 c 0,33,34
 483 1102 483 1102 388.5 1060 c 128,-1,35
 294 1018 294 1018 229 944 c 0,36,37
 163 870 163 870 129 769.5 c 128,-1,38
 95 669 95 669 95 551 c 2,0,-1
373 530 m 2,39,-1
 373 551 l 2,40,41
 373 617 373 617 386 676 c 128,-1,42
 399 735 399 735 427 780 c 256,43,44
 455 825 455 825 499 851 c 128,-1,45
 543 877 543 877 605 877 c 0,46,47
 668 877 668 877 712 851 c 128,-1,48
 756 825 756 825 784 780 c 0,49,50
 811 735 811 735 824 676 c 128,-1,51
 837 617 837 617 837 551 c 2,52,-1
 837 530 l 2,53,54
 837 462 837 462 824 402.5 c 128,-1,55
 811 343 811 343 784 299 c 0,56,57
 756 254 756 254 712 228 c 128,-1,58
 668 202 668 202 607 202 c 0,59,60
 544 202 544 202 499.5 228 c 128,-1,61
 455 254 455 254 427 299 c 0,62,63
 399 343 399 343 386 402.5 c 128,-1,64
 373 462 373 462 373 530 c 2,39,-1
EndSplineSet
EndChar

StartChar: Uhorn
Encoding: 431 431 325
Width: 1229
GlyphClass: 1
Flags: W
LayerCount: 2
Fore
SplineSet
1108 1456 m 1,0,-1
 829 1456 l 1,1,-1
 828 491 l 2,2,3
 827 418 827 418 812.5 363 c 128,-1,4
 798 308 798 308 769 273 c 0,5,6
 742 240 742 240 703.5 223 c 128,-1,7
 665 206 665 206 615 206 c 0,8,9
 563 206 563 206 524 227 c 128,-1,10
 485 248 485 248 460 289 c 0,11,12
 439 324 439 324 427.5 375 c 128,-1,13
 416 426 416 426 416 491 c 2,14,-1
 415 1456 l 1,15,-1
 134 1456 l 1,16,-1
 133 491 l 2,17,18
 133 369 133 369 167.5 273.5 c 128,-1,19
 202 178 202 178 265 113 c 256,20,21
 328 48 328 48 416.5 14 c 128,-1,22
 505 -20 505 -20 615 -20 c 0,23,24
 732 -20 732 -20 823.5 14 c 128,-1,25
 915 48 915 48 979 114 c 0,26,27
 1042 179 1042 179 1075 274 c 128,-1,28
 1108 369 1108 369 1108 491 c 2,29,-1
 1108 1103 l 1,30,31
 1204 1106 1204 1106 1271.5 1133 c 128,-1,32
 1339 1160 1339 1160 1382 1211 c 0,33,34
 1424 1261 1424 1261 1443.5 1335.5 c 128,-1,35
 1463 1410 1463 1410 1463 1509 c 1,36,-1
 1263 1509 l 1,37,38
 1263 1449 1263 1449 1258.5 1403.5 c 128,-1,39
 1254 1358 1254 1358 1238 1328 c 0,40,41
 1222 1297 1222 1297 1191 1280 c 128,-1,42
 1160 1263 1160 1263 1108 1260 c 1,43,-1
 1108 1456 l 1,0,-1
EndSplineSet
EndChar

StartChar: uhorn
Encoding: 432 432 326
Width: 1229
GlyphClass: 1
Flags: W
LayerCount: 2
Fore
SplineSet
1375 1178 m 1,0,-1
 1177 1178 l 1,1,2
 1177 1120 1177 1120 1168.5 1076 c 128,-1,3
 1160 1032 1160 1032 1141 1000 c 0,4,5
 1128 979 1128 979 1109.5 963.5 c 128,-1,6
 1091 948 1091 948 1067 937 c 1,7,-1
 1067 1082 l 1,8,-1
 788 1082 l 1,9,-1
 788 323 l 1,10,11
 776 299 776 299 759.5 279 c 128,-1,12
 743 259 743 259 721 244 c 0,13,14
 694 225 694 225 657 215 c 128,-1,15
 620 205 620 205 574 205 c 0,16,17
 525 205 525 205 491 217 c 128,-1,18
 457 229 457 229 436 257 c 0,19,20
 415 284 415 284 405.5 329 c 128,-1,21
 396 374 396 374 396 440 c 2,22,-1
 396 1082 l 1,23,-1
 118 1082 l 1,24,-1
 118 442 l 2,25,26
 118 319 118 319 145.5 231.5 c 128,-1,27
 173 144 173 144 223 88 c 0,28,29
 273 31 273 31 343 5 c 128,-1,30
 413 -21 413 -21 497 -21 c 0,31,32
 589 -21 589 -21 666.5 25 c 128,-1,33
 744 71 744 71 799 152 c 1,34,-1
 815 0 l 1,35,-1
 1067 0 l 1,36,-1
 1067 768 l 1,37,38
 1223 794 1223 794 1299 894 c 128,-1,39
 1375 994 1375 994 1375 1178 c 1,0,-1
EndSplineSet
EndChar

StartChar: uni0237
Encoding: 567 567 338
Width: 1229
GlyphClass: 1
Flags: W
LayerCount: 2
Fore
SplineSet
310 1082 m 1,0,-1
 310 855 l 1,1,-1
 584 855 l 1,2,-1
 584 -25 l 2,3,4
 584 -77 584 -77 569 -111.5 c 128,-1,5
 554 -146 554 -146 528 -167 c 256,6,7
 502 -188 502 -188 467 -197 c 128,-1,8
 432 -206 432 -206 392 -206 c 0,9,10
 381 -206 381 -206 361 -205.5 c 128,-1,11
 341 -205 341 -205 318 -203 c 0,12,13
 295 -202 295 -202 273.5 -199.5 c 128,-1,14
 252 -197 252 -197 240 -194 c 1,15,-1
 226 -420 l 1,16,17
 246 -425 246 -425 266 -428 c 128,-1,18
 286 -431 286 -431 307 -433 c 0,19,20
 332 -435 332 -435 357 -436 c 128,-1,21
 382 -437 382 -437 406 -437 c 0,22,23
 515 -437 515 -437 600 -413 c 128,-1,24
 685 -389 685 -389 744 -338 c 0,25,26
 802 -288 802 -288 833 -210.5 c 128,-1,27
 864 -133 864 -133 864 -25 c 2,28,-1
 864 1082 l 1,29,-1
 310 1082 l 1,0,-1
EndSplineSet
EndChar

StartChar: schwa
Encoding: 601 601 339
Width: 1229
GlyphClass: 1
Flags: W
LayerCount: 2
Fore
SplineSet
608 1103 m 0,0,1
 533 1103 533 1103 468 1092 c 128,-1,2
 403 1081 403 1081 349 1064 c 0,3,4
 295 1046 295 1046 253 1023.5 c 128,-1,5
 211 1001 211 1001 181 977 c 1,6,-1
 260 797 l 1,7,8
 291 814 291 814 324 829 c 128,-1,9
 357 844 357 844 395 855 c 256,10,11
 433 866 433 866 478.5 872.5 c 128,-1,12
 524 879 524 879 581 879 c 0,13,14
 644 879 644 879 692.5 859.5 c 128,-1,15
 741 840 741 840 776 806 c 0,16,17
 808 773 808 773 828 728.5 c 128,-1,18
 848 684 848 684 857 633 c 0,19,20
 857 630 857 630 857 629 c 128,-1,21
 857 628 857 628 857 627 c 1,22,-1
 156 627 l 1,23,-1
 156 469 l 2,24,25
 156 358 156 358 187 268 c 128,-1,26
 218 178 218 178 279 115 c 0,27,28
 339 51 339 51 428.5 16 c 128,-1,29
 518 -19 518 -19 635 -19 c 0,30,31
 749 -20 749 -20 842 21.5 c 128,-1,32
 935 63 935 63 1001 137 c 0,33,34
 1067 210 1067 210 1103 311 c 128,-1,35
 1139 412 1139 412 1139 531 c 2,36,-1
 1139 571 l 2,37,38
 1139 684 1139 684 1102 781 c 128,-1,39
 1065 878 1065 878 997 950 c 0,40,41
 928 1021 928 1021 829.5 1062 c 128,-1,42
 731 1103 731 1103 608 1103 c 0,0,1
635 204 m 0,43,44
 581 204 581 204 542 219.5 c 128,-1,45
 503 235 503 235 478 262 c 256,46,47
 453 289 453 289 441 326.5 c 128,-1,48
 429 364 429 364 429 409 c 2,49,-1
 429 434 l 1,50,-1
 853 434 l 1,51,52
 844 384 844 384 826.5 342 c 128,-1,53
 809 300 809 300 782 270 c 0,54,55
 755 239 755 239 718 221.5 c 128,-1,56
 681 204 681 204 635 204 c 0,43,44
EndSplineSet
EndChar

StartChar: circumflex
Encoding: 710 710 341
Width: 1229
GlyphClass: 1
Flags: W
LayerCount: 2
Fore
SplineSet
874 1273 m 1,0,-1
 580 1516 l 1,1,-1
 419 1516 l 1,2,-1
 129 1275 l 1,3,-1
 129 1245 l 1,4,-1
 346 1245 l 1,5,-1
 499 1372 l 1,6,-1
 653 1245 l 1,7,-1
 874 1245 l 1,8,-1
 874 1273 l 1,0,-1
EndSplineSet
EndChar

StartChar: caron
Encoding: 711 711 342
Width: 1229
GlyphClass: 1
Flags: W
LayerCount: 2
Fore
SplineSet
632 1391 m 1,0,-1
 486 1517 l 1,1,-1
 249 1517 l 1,2,-1
 249 1497 l 1,3,-1
 545 1245 l 1,4,-1
 720 1245 l 1,5,-1
 1016 1498 l 1,6,-1
 1016 1517 l 1,7,-1
 779 1517 l 1,8,-1
 632 1391 l 1,0,-1
EndSplineSet
EndChar

StartChar: breve
Encoding: 728 728 343
Width: 1229
GlyphClass: 1
Flags: W
LayerCount: 2
Fore
SplineSet
974 1442 m 1,0,-1
 773 1442 l 1,1,2
 773 1416 773 1416 765.5 1391.5 c 128,-1,3
 758 1367 758 1367 742 1349 c 0,4,5
 725 1330 725 1330 698.5 1319 c 128,-1,6
 672 1308 672 1308 634 1308 c 0,7,8
 595 1308 595 1308 568.5 1319 c 128,-1,9
 542 1330 542 1330 525 1349 c 0,10,11
 508 1367 508 1367 500.5 1391.5 c 128,-1,12
 493 1416 493 1416 493 1442 c 1,13,-1
 293 1442 l 1,14,15
 293 1377 293 1377 316.5 1323 c 128,-1,16
 340 1269 340 1269 385 1231 c 0,17,18
 429 1192 429 1192 492 1170.5 c 128,-1,19
 555 1149 555 1149 634 1149 c 0,20,21
 712 1149 712 1149 775 1170.5 c 128,-1,22
 838 1192 838 1192 883 1231 c 0,23,24
 927 1269 927 1269 950.5 1323 c 128,-1,25
 974 1377 974 1377 974 1442 c 1,0,-1
EndSplineSet
EndChar

StartChar: dotaccent
Encoding: 729 729 344
Width: 1229
GlyphClass: 1
Flags: W
LayerCount: 2
Fore
SplineSet
472 1363 m 0,0,1
 472 1303 472 1303 512 1263.5 c 128,-1,2
 552 1224 552 1224 622 1224 c 256,3,4
 692 1224 692 1224 732 1263.5 c 128,-1,5
 772 1303 772 1303 772 1363 c 0,6,7
 772 1424 772 1424 732 1463.5 c 128,-1,8
 692 1503 692 1503 622 1503 c 256,9,10
 552 1503 552 1503 512 1463.5 c 128,-1,11
 472 1424 472 1424 472 1363 c 0,0,1
EndSplineSet
EndChar

StartChar: ring
Encoding: 730 730 345
Width: 1229
GlyphClass: 1
Flags: W
LayerCount: 2
Fore
SplineSet
403 1231 m 256,0,1
 403 1189 403 1189 419.5 1153.5 c 128,-1,2
 436 1118 436 1118 465 1093 c 0,3,4
 494 1067 494 1067 533 1053 c 128,-1,5
 572 1039 572 1039 616 1039 c 256,6,7
 660 1039 660 1039 698 1053 c 128,-1,8
 736 1067 736 1067 764 1093 c 0,9,10
 792 1118 792 1118 808 1153.5 c 128,-1,11
 824 1189 824 1189 824 1231 c 256,12,13
 824 1273 824 1273 808 1309 c 128,-1,14
 792 1345 792 1345 764 1371 c 256,15,16
 736 1397 736 1397 698 1412 c 128,-1,17
 660 1427 660 1427 616 1427 c 256,18,19
 572 1427 572 1427 533 1412 c 128,-1,20
 494 1397 494 1397 465 1371 c 256,21,22
 436 1345 436 1345 419.5 1309 c 128,-1,23
 403 1273 403 1273 403 1231 c 256,0,1
517 1231 m 256,24,25
 517 1253 517 1253 524.5 1271 c 128,-1,26
 532 1289 532 1289 544 1302 c 0,27,28
 557 1316 557 1316 576 1323.5 c 128,-1,29
 595 1331 595 1331 616 1331 c 256,30,31
 637 1331 637 1331 654.5 1324 c 128,-1,32
 672 1317 672 1317 685 1304 c 0,33,34
 697 1291 697 1291 704 1272 c 128,-1,35
 711 1253 711 1253 711 1231 c 0,36,37
 711 1208 711 1208 703.5 1189.5 c 128,-1,38
 696 1171 696 1171 682 1158 c 0,39,40
 670 1146 670 1146 653 1139.5 c 128,-1,41
 636 1133 636 1133 616 1133 c 0,42,43
 595 1133 595 1133 577 1140 c 128,-1,44
 559 1147 559 1147 546 1159 c 0,45,46
 533 1172 533 1172 525 1190.5 c 128,-1,47
 517 1209 517 1209 517 1231 c 256,24,25
EndSplineSet
EndChar

StartChar: ogonek
Encoding: 731 731 346
Width: 1229
GlyphClass: 1
Flags: W
LayerCount: 2
Fore
SplineSet
748 0 m 1,0,-1
 595 60 l 1,1,2
 552 40 552 40 517.5 15 c 128,-1,3
 483 -10 483 -10 457 -38 c 0,4,5
 419 -79 419 -79 400 -125 c 128,-1,6
 381 -171 381 -171 381 -217 c 0,7,8
 381 -268 381 -268 398.5 -306.5 c 128,-1,9
 416 -345 416 -345 446 -371 c 256,10,11
 476 -397 476 -397 516.5 -410.5 c 128,-1,12
 557 -424 557 -424 603 -424 c 0,13,14
 672 -424 672 -424 716.5 -409.5 c 128,-1,15
 761 -395 761 -395 789 -380 c 1,16,-1
 742 -226 l 1,17,18
 728 -232 728 -232 708 -239 c 128,-1,19
 688 -246 688 -246 659 -246 c 0,20,21
 622 -246 622 -246 607 -226.5 c 128,-1,22
 592 -207 592 -207 592 -178 c 0,23,24
 592 -151 592 -151 599.5 -126.5 c 128,-1,25
 607 -102 607 -102 625 -80 c 256,26,27
 643 -58 643 -58 673 -38 c 128,-1,28
 703 -18 703 -18 748 0 c 1,0,-1
EndSplineSet
EndChar

StartChar: tilde
Encoding: 732 732 347
Width: 1229
GlyphClass: 1
Flags: W
LayerCount: 2
Fore
SplineSet
856 1511 m 1,0,-1
 716 1542 l 1,1,2
 716 1521 716 1521 709.5 1503.5 c 128,-1,3
 703 1486 703 1486 692 1474 c 0,4,5
 680 1460 680 1460 662.5 1452.5 c 128,-1,6
 645 1445 645 1445 626 1445 c 0,7,8
 588 1445 588 1445 554 1458.5 c 128,-1,9
 520 1472 520 1472 487 1489 c 0,10,11
 453 1505 453 1505 418 1518.5 c 128,-1,12
 383 1532 383 1532 343 1532 c 0,13,14
 294 1532 294 1532 254.5 1510 c 128,-1,15
 215 1488 215 1488 187 1453 c 256,16,17
 159 1418 159 1418 143.5 1374 c 128,-1,18
 128 1330 128 1330 128 1286 c 1,19,-1
 268 1256 l 1,20,21
 268 1279 268 1279 275 1297.5 c 128,-1,22
 282 1316 282 1316 295 1328 c 0,23,24
 307 1341 307 1341 323 1347.5 c 128,-1,25
 339 1354 339 1354 357 1354 c 0,26,27
 396 1354 396 1354 427 1340.5 c 128,-1,28
 458 1327 458 1327 490 1311 c 0,29,30
 521 1294 521 1294 556.5 1280.5 c 128,-1,31
 592 1267 592 1267 640 1267 c 0,32,33
 689 1267 689 1267 728.5 1288 c 128,-1,34
 768 1309 768 1309 797 1344 c 0,35,36
 825 1378 825 1378 840.5 1422 c 128,-1,37
 856 1466 856 1466 856 1511 c 1,0,-1
EndSplineSet
EndChar

StartChar: hungarumlaut
Encoding: 733 733 348
Width: 1229
GlyphClass: 1
Flags: W
LayerCount: 2
Fore
SplineSet
780 1518 m 1,0,-1
 535 1253 l 1,1,-1
 747 1253 l 1,2,-1
 1053 1518 l 1,3,-1
 780 1518 l 1,0,-1
413 1518 m 1,4,-1
 210 1253 l 1,5,-1
 416 1253 l 1,6,-1
 674 1518 l 1,7,-1
 413 1518 l 1,4,-1
EndSplineSet
EndChar

StartChar: uni02F3
Encoding: 755 755 349
Width: 1229
GlyphClass: 1
Flags: W
LayerCount: 2
Fore
SplineSet
441 -222 m 0,0,1
 441 -254 441 -254 454 -281.5 c 128,-1,2
 467 -309 467 -309 490 -328 c 0,3,4
 512 -348 512 -348 542.5 -359 c 128,-1,5
 573 -370 573 -370 608 -370 c 0,6,7
 642 -370 642 -370 672 -359 c 128,-1,8
 702 -348 702 -348 724 -328 c 0,9,10
 746 -309 746 -309 758.5 -282 c 128,-1,11
 771 -255 771 -255 771 -222 c 256,12,13
 771 -189 771 -189 758.5 -161 c 128,-1,14
 746 -133 746 -133 724 -112 c 0,15,16
 702 -92 702 -92 672 -80.5 c 128,-1,17
 642 -69 642 -69 608 -69 c 0,18,19
 573 -69 573 -69 542.5 -80.5 c 128,-1,20
 512 -92 512 -92 490 -112 c 0,21,22
 467 -133 467 -133 454 -161 c 128,-1,23
 441 -189 441 -189 441 -222 c 0,0,1
551 -222 m 0,24,25
 551 -196 551 -196 567 -179.5 c 128,-1,26
 583 -163 583 -163 608 -163 c 0,27,28
 631 -163 631 -163 646 -179.5 c 128,-1,29
 661 -196 661 -196 661 -222 c 0,30,31
 661 -246 661 -246 646 -261.5 c 128,-1,32
 631 -277 631 -277 608 -277 c 0,33,34
 583 -277 583 -277 567 -261.5 c 128,-1,35
 551 -246 551 -246 551 -222 c 0,24,25
EndSplineSet
EndChar

StartChar: gravecomb
Encoding: 768 768 350
Width: 1229
GlyphClass: 1
Flags: W
LayerCount: 2
Fore
SplineSet
-483 1210 m 1,0,-1
 -647 1560 l 1,1,-1
 -872 1560 l 1,2,-1
 -653 1210 l 1,3,-1
 -483 1210 l 1,0,-1
EndSplineSet
EndChar

StartChar: acutecomb
Encoding: 769 769 351
Width: 1229
GlyphClass: 1
Flags: W
LayerCount: 2
Fore
SplineSet
-510 1561 m 1,0,-1
 -656 1209 l 1,1,-1
 -490 1209 l 1,2,-1
 -286 1561 l 1,3,-1
 -510 1561 l 1,0,-1
EndSplineSet
EndChar

StartChar: hook
Encoding: 777 777 353
Width: 1229
GlyphClass: 1
Flags: W
LayerCount: 2
Fore
SplineSet
-710 1263 m 1,0,-1
 -503 1263 l 1,1,-1
 -503 1329 l 1,2,3
 -475 1333 -475 1333 -448 1343 c 128,-1,4
 -421 1353 -421 1353 -400 1371 c 0,5,6
 -379 1388 -379 1388 -366 1413.5 c 128,-1,7
 -353 1439 -353 1439 -353 1474 c 0,8,9
 -353 1523 -353 1523 -381 1562 c 128,-1,10
 -409 1601 -409 1601 -464 1626 c 0,11,12
 -510 1647 -510 1647 -575 1658 c 128,-1,13
 -640 1669 -640 1669 -723 1669 c 1,14,-1
 -730 1536 l 1,15,16
 -699 1536 -699 1536 -672 1532.5 c 128,-1,17
 -645 1529 -645 1529 -626 1521 c 256,18,19
 -607 1513 -607 1513 -596 1499.5 c 128,-1,20
 -585 1486 -585 1486 -585 1466 c 0,21,22
 -585 1451 -585 1451 -591.5 1440.5 c 128,-1,23
 -598 1430 -598 1430 -612 1422 c 0,24,25
 -629 1413 -629 1413 -656.5 1408 c 128,-1,26
 -684 1403 -684 1403 -723 1400 c 1,27,-1
 -710 1263 l 1,0,-1
EndSplineSet
EndChar

StartChar: uni030F
Encoding: 783 783 354
Width: 1229
GlyphClass: 1
Flags: W
LayerCount: 2
Fore
SplineSet
-508 1252 m 1,0,-1
 -753 1518 l 1,1,-1
 -1033 1518 l 1,2,-1
 -740 1252 l 1,3,-1
 -508 1252 l 1,0,-1
-178 1252 m 1,4,-1
 -374 1518 l 1,5,-1
 -647 1518 l 1,6,-1
 -402 1252 l 1,7,-1
 -178 1252 l 1,4,-1
EndSplineSet
EndChar

StartChar: dotbelow
Encoding: 803 803 355
Width: 1229
GlyphClass: 1
Flags: W
LayerCount: 2
Fore
SplineSet
-755 -224 m 0,0,1
 -755 -284 -755 -284 -712 -324 c 128,-1,2
 -669 -364 -669 -364 -593 -364 c 0,3,4
 -519 -364 -519 -364 -475 -324 c 128,-1,5
 -431 -284 -431 -284 -431 -224 c 0,6,7
 -431 -165 -431 -165 -474.5 -124 c 128,-1,8
 -518 -83 -518 -83 -593 -83 c 0,9,10
 -670 -83 -670 -83 -712.5 -124 c 128,-1,11
 -755 -165 -755 -165 -755 -224 c 0,0,1
EndSplineSet
EndChar

StartChar: tonos
Encoding: 900 900 356
Width: 1229
GlyphClass: 1
Flags: W
LayerCount: 2
Fore
SplineSet
661 1665 m 1,0,-1
 581 1266 l 1,1,-1
 721 1266 l 1,2,-1
 938 1665 l 1,3,-1
 661 1665 l 1,0,-1
EndSplineSet
EndChar

StartChar: dieresistonos
Encoding: 901 901 357
Width: 1229
GlyphClass: 1
Flags: W
LayerCount: 2
Fore
SplineSet
646 1801 m 1,0,-1
 603 1477 l 1,1,-1
 750 1477 l 1,2,-1
 918 1801 l 1,3,-1
 646 1801 l 1,0,-1
259 1353 m 0,4,5
 259 1300 259 1300 297.5 1262 c 128,-1,6
 336 1224 336 1224 401 1224 c 0,7,8
 462 1224 462 1224 502 1261 c 128,-1,9
 542 1298 542 1298 542 1353 c 0,10,11
 542 1409 542 1409 502.5 1446.5 c 128,-1,12
 463 1484 463 1484 401 1484 c 0,13,14
 335 1484 335 1484 297 1445.5 c 128,-1,15
 259 1407 259 1407 259 1353 c 0,4,5
808 1355 m 0,16,17
 808 1299 808 1299 847 1261.5 c 128,-1,18
 886 1224 886 1224 950 1224 c 0,19,20
 1010 1224 1010 1224 1050.5 1260.5 c 128,-1,21
 1091 1297 1091 1297 1091 1355 c 0,22,23
 1091 1411 1091 1411 1051.5 1448 c 128,-1,24
 1012 1485 1012 1485 950 1485 c 0,25,26
 884 1485 884 1485 846 1447 c 128,-1,27
 808 1409 808 1409 808 1355 c 0,16,17
EndSplineSet
EndChar

StartChar: Gamma
Encoding: 915 915 369
Width: 1229
GlyphClass: 1
Flags: W
LayerCount: 2
Fore
SplineSet
1083 1228 m 1,0,-1
 1083 1456 l 1,1,-1
 141 1456 l 1,2,-1
 141 0 l 1,3,-1
 422 0 l 1,4,-1
 422 1228 l 1,5,-1
 1083 1228 l 1,0,-1
EndSplineSet
EndChar

StartChar: Delta
Encoding: 916 916 370
AltUni2: 002206.ffffffff.0 002206.ffffffff.0
Width: 1229
GlyphClass: 1
Flags: W
LayerCount: 2
Fore
SplineSet
523 1456 m 1,0,-1
 35 0 l 1,1,-1
 1280 0 l 1,2,-1
 807 1456 l 1,3,-1
 523 1456 l 1,0,-1
399 226 m 1,4,-1
 649 1038 l 1,5,-1
 662 1079 l 1,6,-1
 674 1038 l 1,7,-1
 918 226 l 1,8,-1
 399 226 l 1,4,-1
EndSplineSet
EndChar

StartChar: Theta
Encoding: 920 920 374
Width: 1229
GlyphClass: 1
Flags: W
LayerCount: 2
Fore
SplineSet
818 614 m 1,0,-1
 818 837 l 1,1,-1
 430 837 l 1,2,-1
 430 614 l 1,3,-1
 818 614 l 1,0,-1
1158 621 m 2,4,-1
 1158 833 l 2,5,6
 1158 973 1158 973 1121 1091 c 128,-1,7
 1084 1209 1084 1209 1014 1295 c 0,8,9
 944 1380 944 1380 843.5 1428 c 128,-1,10
 743 1476 743 1476 616 1476 c 0,11,12
 490 1476 490 1476 392.5 1428 c 128,-1,13
 295 1380 295 1380 228 1295 c 0,14,15
 161 1209 161 1209 126 1091 c 128,-1,16
 91 973 91 973 91 833 c 2,17,-1
 91 621 l 2,18,19
 91 481 91 481 126 363.5 c 128,-1,20
 161 246 161 246 228 161 c 0,21,22
 295 75 295 75 393 27.5 c 128,-1,23
 491 -20 491 -20 617 -20 c 256,24,25
 743 -20 743 -20 843.5 27.5 c 128,-1,26
 944 75 944 75 1014 160 c 256,27,28
 1084 245 1084 245 1121 363 c 128,-1,29
 1158 481 1158 481 1158 621 c 2,4,-1
873 835 m 2,30,-1
 873 621 l 2,31,32
 873 532 873 532 858 457 c 128,-1,33
 843 382 843 382 813 328 c 0,34,35
 782 273 782 273 733.5 242 c 128,-1,36
 685 211 685 211 617 211 c 0,37,38
 548 211 548 211 502 242 c 128,-1,39
 456 273 456 273 428 328 c 256,40,41
 400 383 400 383 388 458 c 128,-1,42
 376 533 376 533 376 621 c 2,43,-1
 376 835 l 2,44,45
 376 924 376 924 388 999 c 128,-1,46
 400 1074 400 1074 428 1128 c 256,47,48
 456 1182 456 1182 502 1212.5 c 128,-1,49
 548 1243 548 1243 616 1243 c 0,50,51
 685 1243 685 1243 733.5 1212.5 c 128,-1,52
 782 1182 782 1182 813 1128 c 256,53,54
 844 1074 844 1074 858.5 999 c 128,-1,55
 873 924 873 924 873 835 c 2,30,-1
EndSplineSet
EndChar

StartChar: Lambda
Encoding: 923 923 377
Width: 1229
GlyphClass: 1
Flags: W
LayerCount: 2
Fore
SplineSet
612 1079 m 1,0,-1
 910 0 l 1,1,-1
 1204 0 l 1,2,-1
 755 1456 l 1,3,-1
 471 1456 l 1,4,-1
 23 0 l 1,5,-1
 316 0 l 1,6,-1
 612 1079 l 1,0,-1
EndSplineSet
EndChar

StartChar: Xi
Encoding: 926 926 380
Width: 1229
GlyphClass: 1
Flags: W
LayerCount: 2
Fore
SplineSet
121 226 m 1,0,-1
 121 0 l 1,1,-1
 1096 0 l 1,2,-1
 1096 226 l 1,3,-1
 121 226 l 1,0,-1
229 849 m 1,4,-1
 229 630 l 1,5,-1
 985 630 l 1,6,-1
 985 849 l 1,7,-1
 229 849 l 1,4,-1
140 1456 m 1,8,-1
 140 1228 l 1,9,-1
 1060 1228 l 1,10,-1
 1060 1456 l 1,11,-1
 140 1456 l 1,8,-1
EndSplineSet
EndChar

StartChar: Pi
Encoding: 928 928 382
Width: 1229
GlyphClass: 1
Flags: W
LayerCount: 2
Fore
SplineSet
1095 0 m 1,0,-1
 1095 1456 l 1,1,-1
 121 1456 l 1,2,-1
 121 0 l 1,3,-1
 402 0 l 1,4,-1
 402 1228 l 1,5,-1
 814 1228 l 1,6,-1
 814 0 l 1,7,-1
 1095 0 l 1,0,-1
EndSplineSet
EndChar

StartChar: Sigma
Encoding: 931 931 384
Width: 1229
GlyphClass: 1
Flags: W
LayerCount: 2
Fore
SplineSet
856 724 m 1,0,-1
 856 741 l 1,1,-1
 493 1228 l 1,2,-1
 1115 1228 l 1,3,-1
 1115 1456 l 1,4,-1
 111 1456 l 1,5,-1
 111 1304 l 1,6,-1
 559 733 l 1,7,-1
 111 152 l 1,8,-1
 111 1 l 1,9,-1
 1144 1 l 1,10,-1
 1144 225 l 1,11,-1
 488 225 l 1,12,-1
 856 724 l 1,0,-1
EndSplineSet
EndChar

